<?xml version="1.0" encoding="utf-8"?>
<!-- Generator: Adobe Illustrator 17.1.0, SVG Export Plug-In . SVG Version: 6.00 Build 0)  -->
<!DOCTYPE svg PUBLIC "-//W3C//DTD SVG 1.1//EN" "http://www.w3.org/Graphics/SVG/1.1/DTD/svg11.dtd">
<svg version="1.1" id="Layer_1" xmlns="http://www.w3.org/2000/svg" xmlns:xlink="http://www.w3.org/1999/xlink" x="0px" y="0px"
	 viewBox="0 0 365.5 83.3" enable-background="new 0 0 365.5 83.3" xml:space="preserve">
<g>
	<polygon points="0.7,-2.8 0.7,44 69.5,44 89.3,-2.8 	"/>
	<polygon fill="#2E3135" points="87.6,-2.8 67.8,44 161.3,44 181.1,-2.8 	"/>
	<polygon points="179.5,-2.8 159.7,44 253.2,44 273,-2.8 	"/>
	<polygon fill="#2E3135" points="342.1,44 362.1,-2.8 271.3,-2.8 251.5,44 	"/>
	<rect x="-0.5" y="41.8" fill="#FFFFFF" width="366" height="11"/>
</g>
<rect x="90.5" y="43.8" fill="#FFFFFF" width="14" height="6"/>
<g>
	<g>
		<path fill="#2E3135" d="M202.8,53.7l0.4-1.4c0.1-0.3,0.2-0.6,0.2-0.9c0.1-0.3,0.2-0.6,0.2-0.9h1.3l-1.4,4.4c0,0.1-0.1,0.2-0.1,0.3
			s-0.1,0.2-0.1,0.3c-0.1,0.3-0.2,0.5-0.3,0.6c-0.1,0.2-0.2,0.3-0.4,0.4s-0.3,0.2-0.5,0.2c-0.2,0-0.3,0.1-0.5,0.1h-0.5v-1.1h0.3
			c0.1,0,0.2,0,0.3-0.1s0.2-0.1,0.3-0.3c0,0,0-0.1,0-0.1c0,0,0-0.1,0-0.1l-1.8-4.7h1.4l0.5,1.7L202.8,53.7L202.8,53.7z"/>
		<path fill="#2E3135" d="M208.6,56.9v-2.6h-1.5v2.6h-1.4v-6.3h1.4v2.5h1.5v-2.5h1.4v6.3H208.6z"/>
		<path fill="#2E3135" d="M214.4,56.9v-3.4h0l-1.8,3.4h-1.3v-6.3h1.4v3.6h0l1.9-3.6h1.2v6.3H214.4z"/>
		<path fill="#2E3135" d="M221.3,55c0,0.3,0,0.6-0.1,0.8c-0.1,0.2-0.2,0.4-0.4,0.6s-0.4,0.3-0.6,0.4s-0.5,0.1-0.8,0.1h-2.2v-6.3h2.1
			c0.6,0,1.1,0.2,1.5,0.5s0.5,0.7,0.5,1.3c0,0.2-0.1,0.5-0.2,0.7c-0.1,0.2-0.3,0.4-0.6,0.5v0c0.2,0,0.3,0.1,0.4,0.2
			c0.1,0.1,0.2,0.2,0.3,0.3s0.1,0.3,0.2,0.4C221.3,54.7,221.3,54.8,221.3,55z M219.9,52.4c0-0.2-0.1-0.4-0.2-0.5
			c-0.1-0.1-0.3-0.2-0.5-0.2h-0.7v1.3h0.7c0.3,0,0.4-0.1,0.5-0.2C219.8,52.8,219.9,52.6,219.9,52.4z M219.9,54.9
			c0-0.2-0.1-0.4-0.2-0.5s-0.3-0.2-0.5-0.2h-0.8v1.4h0.8c0.3,0,0.5-0.1,0.6-0.2C219.9,55.3,219.9,55.1,219.9,54.9z"/>
		<path fill="#2E3135" d="M222.5,56.9v-6.3h3.8v1.2h-2.5v1.3h2.1v1.2h-2.1v1.3h2.5v1.2H222.5z"/>
		<path fill="#2E3135" d="M231.5,52.6c0,0.3,0,0.6-0.1,0.8c-0.1,0.2-0.2,0.5-0.4,0.6c-0.2,0.2-0.4,0.3-0.6,0.4
			c-0.3,0.1-0.5,0.1-0.8,0.1h-0.8v2.3h-1.4v-6.3h2.1c0.3,0,0.6,0,0.9,0.1c0.3,0.1,0.5,0.2,0.7,0.4s0.3,0.4,0.4,0.6
			C231.5,51.9,231.5,52.2,231.5,52.6z M230.2,52.6c0-0.3-0.1-0.5-0.2-0.6c-0.1-0.1-0.3-0.2-0.6-0.2h-0.7v1.6h0.7
			c0.2,0,0.4-0.1,0.5-0.2C230.1,53.1,230.2,52.9,230.2,52.6z"/>
		<path fill="#2E3135" d="M236.5,55.4c-0.1,0.5-0.3,0.9-0.7,1.1c-0.4,0.3-0.8,0.4-1.4,0.4c-0.4,0-0.7-0.1-1-0.2
			c-0.3-0.1-0.5-0.3-0.7-0.5c-0.2-0.2-0.3-0.4-0.4-0.7c-0.1-0.3-0.1-0.5-0.1-0.8v-2.2c0-0.2,0-0.5,0.1-0.7c0.1-0.2,0.2-0.5,0.4-0.6
			c0.2-0.2,0.4-0.3,0.7-0.5s0.6-0.2,1-0.2c0.3,0,0.6,0,0.8,0.1s0.4,0.2,0.6,0.3s0.3,0.3,0.4,0.5c0.1,0.2,0.2,0.4,0.2,0.6l-1.3,0.4
			c0-0.1,0-0.1-0.1-0.2c0-0.1-0.1-0.2-0.1-0.2c-0.1-0.1-0.1-0.1-0.2-0.2c-0.1,0-0.2-0.1-0.3-0.1c-0.1,0-0.3,0-0.3,0.1
			c-0.1,0-0.2,0.1-0.2,0.2s-0.1,0.1-0.1,0.2c0,0.1,0,0.2,0,0.2v2.3c0,0.2,0.1,0.4,0.2,0.6c0.1,0.2,0.3,0.2,0.6,0.2
			c0.2,0,0.4-0.1,0.5-0.2c0.1-0.1,0.2-0.3,0.3-0.5L236.5,55.4z"/>
		<path fill="#2E3135" d="M240.4,55.6h-1.6c-0.1,0.2-0.1,0.4-0.2,0.6c-0.1,0.2-0.1,0.4-0.2,0.6H237l1.9-6.3h1.4l1.9,6.3h-1.5
			L240.4,55.6z M239.3,53.5l-0.2,0.9h0.9l-0.2-0.9l-0.3-1.3h0L239.3,53.5z"/>
		<path fill="#2E3135" d="M247.3,50.6v6.3H246v-5h-1.1v1.9c0,0.5,0,0.9-0.1,1.2c0,0.4-0.1,0.7-0.3,1c-0.1,0.3-0.3,0.5-0.6,0.7
			c-0.3,0.2-0.6,0.3-1,0.4l-0.3-1c0.2-0.1,0.4-0.2,0.6-0.3c0.1-0.1,0.2-0.3,0.3-0.4s0.1-0.4,0.1-0.6c0-0.2,0-0.5,0-0.8v-3.2H247.3z"
			/>
		<path fill="#2E3135" d="M253,54.9c0,0.3,0,0.6-0.2,0.9c-0.1,0.2-0.2,0.5-0.4,0.6s-0.4,0.3-0.7,0.4c-0.3,0.1-0.5,0.1-0.8,0.1h-2.2
			v-6.3h1.4V53h0.8c0.3,0,0.6,0,0.9,0.1c0.3,0.1,0.5,0.2,0.6,0.4s0.3,0.4,0.4,0.6C253,54.3,253,54.6,253,54.9z M251.7,54.9
			c0-0.3-0.1-0.5-0.2-0.6s-0.3-0.2-0.6-0.2h-0.8v1.5h0.8c0.3,0,0.4-0.1,0.6-0.2C251.6,55.3,251.7,55.1,251.7,54.9z"/>
		<path fill="#2E3135" d="M256.8,56.9v-2.6h-1.5v2.6H254v-6.3h1.4v2.5h1.5v-2.5h1.4v6.3H256.8z"/>
		<path fill="#2E3135" d="M262.4,55.6h-1.6c-0.1,0.2-0.1,0.4-0.2,0.6c-0.1,0.2-0.1,0.4-0.2,0.6H259l1.9-6.3h1.4l1.9,6.3h-1.5
			L262.4,55.6z M261.3,53.5l-0.2,0.9h0.9l-0.2-0.9l-0.3-1.3h0L261.3,53.5z"/>
		<path fill="#2E3135" d="M269.2,50.6v6.3h-1.4v-2.5h-0.4c-0.2,0-0.4,0.1-0.5,0.2c-0.1,0.1-0.2,0.4-0.3,0.7l-0.4,1.6h-1.4l0.4-1.9
			c0-0.2,0.1-0.4,0.2-0.6c0.1-0.2,0.3-0.3,0.5-0.4c-0.3-0.1-0.6-0.3-0.7-0.6c-0.1-0.3-0.2-0.6-0.2-1c0-0.3,0.1-0.6,0.2-0.8
			c0.1-0.2,0.2-0.4,0.4-0.6s0.4-0.3,0.6-0.4c0.2-0.1,0.5-0.1,0.8-0.1H269.2z M266.3,52.5c0,0.1,0,0.2,0.1,0.3s0.1,0.1,0.2,0.2
			c0.1,0,0.2,0.1,0.3,0.1c0.1,0,0.2,0,0.3,0h0.6v-1.3h-0.7C266.6,51.8,266.3,52,266.3,52.5z"/>
		<path fill="#2E3135" d="M275.9,56.9v-5h-1.4v5h-1.4v-6.3h4.1v6.3H275.9z"/>
		<path fill="#2E3135" d="M282.8,52.6c0,0.3,0,0.6-0.1,0.8s-0.2,0.5-0.4,0.6c-0.2,0.2-0.4,0.3-0.6,0.4c-0.3,0.1-0.5,0.1-0.9,0.1H280
			v2.3h-1.4v-6.3h2.1c0.3,0,0.6,0,0.9,0.1c0.3,0.1,0.5,0.2,0.7,0.4c0.2,0.2,0.3,0.4,0.4,0.6C282.8,51.9,282.8,52.2,282.8,52.6z
			 M281.5,52.6c0-0.3-0.1-0.5-0.2-0.6c-0.1-0.1-0.3-0.2-0.6-0.2H280v1.6h0.7c0.2,0,0.4-0.1,0.5-0.2S281.5,52.9,281.5,52.6z"/>
		<path fill="#2E3135" d="M287.8,54.9c0,0.3-0.1,0.6-0.2,0.8c-0.1,0.2-0.2,0.5-0.4,0.6s-0.4,0.3-0.7,0.4c-0.3,0.1-0.5,0.1-0.8,0.1
			c-0.4,0-0.7-0.1-1-0.2c-0.3-0.1-0.5-0.3-0.7-0.5c-0.2-0.2-0.3-0.4-0.4-0.7s-0.1-0.5-0.1-0.8v-2.2c0-0.2,0-0.5,0.1-0.7
			c0.1-0.2,0.2-0.5,0.4-0.6c0.2-0.2,0.4-0.3,0.7-0.5s0.6-0.2,1-0.2c0.4,0,0.7,0.1,0.9,0.2s0.5,0.3,0.7,0.5c0.2,0.2,0.3,0.4,0.4,0.6
			c0.1,0.2,0.1,0.5,0.1,0.7V54.9z M286.4,52.5c0-0.1,0-0.1,0-0.2c0-0.1-0.1-0.2-0.1-0.2s-0.1-0.1-0.2-0.2c-0.1-0.1-0.2-0.1-0.3-0.1
			c-0.1,0-0.3,0-0.3,0.1c-0.1,0-0.2,0.1-0.2,0.2c-0.1,0.1-0.1,0.1-0.1,0.2c0,0.1,0,0.2,0,0.2v2.3c0,0.2,0.1,0.4,0.2,0.6
			c0.1,0.2,0.3,0.2,0.6,0.2c0.2,0,0.4-0.1,0.5-0.2s0.2-0.3,0.2-0.5V52.5z"/>
		<path fill="#2E3135" d="M291.9,56.9v-2.6h-1.5v2.6h-1.4v-6.3h1.4v2.5h1.5v-2.5h1.4v6.3H291.9z"/>
		<path fill="#2E3135" d="M297.8,56.9v-3.4h0l-1.8,3.4h-1.3v-6.3h1.4v3.6h0l1.9-3.6h1.2v6.3H297.8z"/>
		<path fill="#2E3135" d="M300.5,56.9v-6.3h1.4v2.5h0.3c0.1,0,0.2,0,0.3,0c0.1,0,0.2-0.1,0.3-0.1c0.1-0.1,0.2-0.2,0.2-0.3
			c0.1-0.1,0.1-0.3,0.2-0.4l0.4-1.6h1.3l-0.5,1.9c-0.1,0.3-0.2,0.6-0.3,0.8c-0.2,0.2-0.3,0.3-0.5,0.4c0.3,0.1,0.5,0.2,0.6,0.4
			c0.1,0.2,0.3,0.4,0.3,0.7l0.5,2.1h-1.4l-0.4-1.7c-0.1-0.3-0.2-0.6-0.4-0.7s-0.3-0.2-0.6-0.2h-0.4v2.6H300.5z"/>
		<path fill="#2E3135" d="M308.7,55.6h-1.6c-0.1,0.2-0.1,0.4-0.2,0.6c-0.1,0.2-0.1,0.4-0.2,0.6h-1.4l1.9-6.3h1.4l1.9,6.3H309
			L308.7,55.6z M307.6,53.5l-0.2,0.9h0.9l-0.2-0.9l-0.3-1.3h0L307.6,53.5z"/>
		<path fill="#2E3135" d="M315.3,50.6c0.7,0,1.2,0.2,1.5,0.5c0.3,0.4,0.5,0.9,0.5,1.5v2.3c0,0.6-0.2,1.1-0.5,1.5
			c-0.4,0.4-0.9,0.5-1.5,0.5c-0.3,0-0.6,0-0.9-0.1c-0.3-0.1-0.5-0.2-0.6-0.4c-0.2-0.2-0.3-0.4-0.4-0.6s-0.1-0.5-0.1-0.8v-0.6h-0.5
			v2.6h-1.4v-6.3h1.4v2.5h0.5v-0.5c0-0.3,0-0.6,0.1-0.8s0.2-0.5,0.4-0.6c0.2-0.2,0.4-0.3,0.6-0.4C314.7,50.6,314.9,50.6,315.3,50.6z
			 M315.3,51.8c-0.2,0-0.4,0.1-0.5,0.2c-0.1,0.1-0.2,0.3-0.2,0.5V55c0,0.2,0.1,0.4,0.2,0.5c0.1,0.1,0.3,0.2,0.5,0.2
			c0.2,0,0.4-0.1,0.5-0.2s0.2-0.3,0.2-0.5v-2.5c0-0.2-0.1-0.4-0.2-0.5C315.7,51.9,315.5,51.8,315.3,51.8z"/>
		<path fill="#2E3135" d="M324.5,56.9h-6v-6.3h1.4v5.1h1.2v-5.1h1.4v5.1h1.2v-5.1h1.4v5.1h0.7v2.5h-1.1V56.9z"/>
		<path fill="#2E3135" d="M329.5,55.6h-1.6c-0.1,0.2-0.1,0.4-0.2,0.6c-0.1,0.2-0.1,0.4-0.2,0.6h-1.4l1.9-6.3h1.4l1.9,6.3h-1.5
			L329.5,55.6z M328.4,53.5l-0.2,0.9h0.9l-0.2-0.9l-0.3-1.3h0L328.4,53.5z"/>
		<path fill="#2E3135" d="M336.3,50.6v6.3h-1.4v-2.5h-0.4c-0.2,0-0.4,0.1-0.5,0.2c-0.1,0.1-0.2,0.4-0.3,0.7l-0.4,1.6h-1.4l0.4-1.9
			c0-0.2,0.1-0.4,0.2-0.6c0.1-0.2,0.3-0.3,0.5-0.4c-0.3-0.1-0.6-0.3-0.7-0.6c-0.1-0.3-0.2-0.6-0.2-1c0-0.3,0.1-0.6,0.2-0.8
			c0.1-0.2,0.2-0.4,0.4-0.6s0.4-0.3,0.6-0.4c0.2-0.1,0.5-0.1,0.8-0.1H336.3z M333.4,52.5c0,0.1,0,0.2,0.1,0.3s0.1,0.1,0.2,0.2
			c0.1,0,0.2,0.1,0.3,0.1c0.1,0,0.2,0,0.3,0h0.6v-1.3h-0.7C333.7,51.8,333.4,52,333.4,52.5z"/>
		<path fill="#2E3135" d="M292.8,64.4c-0.2-0.1-0.4-0.2-0.5-0.4c-0.2-0.2-0.3-0.4-0.3-0.7l-0.5-1.9h1.3l0.4,1.6
			c0.1,0.3,0.2,0.6,0.4,0.7s0.3,0.2,0.5,0.2h0.3v-2.5h1.4v2.5h0.3c0.1,0,0.2,0,0.3,0c0.1,0,0.2-0.1,0.3-0.1c0.1-0.1,0.2-0.2,0.2-0.3
			c0.1-0.1,0.1-0.3,0.2-0.4l0.4-1.6h1.3l-0.5,1.9c-0.1,0.3-0.2,0.5-0.3,0.7c-0.2,0.2-0.3,0.3-0.5,0.4l0,0c0.2,0.1,0.4,0.2,0.6,0.4
			s0.3,0.4,0.3,0.7l0.5,2.1h-1.4l-0.4-1.7c-0.1-0.3-0.2-0.6-0.4-0.7s-0.3-0.2-0.6-0.2h-0.4v2.6h-1.4v-2.6h-0.4
			c-0.2,0-0.4,0.1-0.6,0.2c-0.1,0.1-0.3,0.4-0.3,0.7l-0.4,1.7h-1.4l0.5-2.1c0.1-0.3,0.2-0.5,0.3-0.7S292.6,64.5,292.8,64.4
			L292.8,64.4z"/>
		<path fill="#2E3135" d="M303.1,67.7v-3.4h0l-1.8,3.4h-1.3v-6.3h1.4V65h0l1.9-3.6h1.2v6.3H303.1z"/>
		<path fill="#2E3135" d="M306.5,67.7V69h-1.1v-2.4l0.6-0.1c0.1-0.1,0.2-0.3,0.3-0.4s0.1-0.3,0.2-0.5s0.1-0.4,0.1-0.7
			c0-0.3,0-0.5,0-0.9l0.1-2.5h3.8v5.1h0.6V69h-1.1v-1.3H306.5z M307.7,64.2c0,0.2,0,0.4,0,0.6c0,0.2,0,0.4-0.1,0.6s-0.1,0.4-0.1,0.6
			c0,0.2-0.1,0.3-0.2,0.4h1.7v-3.9h-1.2L307.7,64.2z"/>
		<path fill="#2E3135" d="M312,67.7v-6.3h1.4v2.5h0.3c0.1,0,0.2,0,0.3,0c0.1,0,0.2-0.1,0.3-0.1c0.1-0.1,0.2-0.2,0.2-0.3
			c0.1-0.1,0.1-0.3,0.2-0.4l0.4-1.6h1.3l-0.5,1.9c-0.1,0.3-0.2,0.6-0.3,0.8c-0.2,0.2-0.3,0.3-0.5,0.4c0.3,0.1,0.5,0.2,0.6,0.4
			c0.1,0.2,0.3,0.4,0.3,0.7l0.5,2.1h-1.4l-0.4-1.7c-0.1-0.3-0.2-0.6-0.4-0.7c-0.1-0.1-0.3-0.2-0.6-0.2h-0.4v2.6H312z"/>
		<path fill="#2E3135" d="M321.5,65.7c0,0.3-0.1,0.6-0.2,0.8c-0.1,0.2-0.2,0.5-0.4,0.6c-0.2,0.2-0.4,0.3-0.7,0.4
			c-0.3,0.1-0.5,0.1-0.8,0.1c-0.4,0-0.7-0.1-1-0.2c-0.3-0.1-0.5-0.3-0.7-0.5c-0.2-0.2-0.3-0.4-0.4-0.7c-0.1-0.3-0.1-0.5-0.1-0.8
			v-2.2c0-0.2,0-0.5,0.1-0.7c0.1-0.2,0.2-0.5,0.4-0.6c0.2-0.2,0.4-0.3,0.7-0.5c0.3-0.1,0.6-0.2,1-0.2c0.4,0,0.7,0.1,0.9,0.2
			s0.5,0.3,0.7,0.5c0.2,0.2,0.3,0.4,0.4,0.6c0.1,0.2,0.1,0.5,0.1,0.7V65.7z M320.1,63.3c0-0.1,0-0.1,0-0.2c0-0.1-0.1-0.2-0.1-0.2
			s-0.1-0.1-0.2-0.2c-0.1-0.1-0.2-0.1-0.3-0.1s-0.3,0-0.3,0.1s-0.2,0.1-0.2,0.2s-0.1,0.1-0.1,0.2c0,0.1,0,0.2,0,0.2v2.3
			c0,0.2,0.1,0.4,0.2,0.6c0.1,0.2,0.3,0.2,0.6,0.2c0.2,0,0.4-0.1,0.5-0.2s0.2-0.3,0.2-0.5V63.3z"/>
		<path fill="#2E3135" d="M326.8,66.2c-0.1,0.5-0.3,0.9-0.7,1.1c-0.4,0.3-0.8,0.4-1.4,0.4c-0.4,0-0.7-0.1-1-0.2
			c-0.3-0.1-0.5-0.3-0.7-0.5c-0.2-0.2-0.3-0.4-0.4-0.7s-0.1-0.5-0.1-0.8v-2.2c0-0.2,0-0.5,0.1-0.7c0.1-0.2,0.2-0.5,0.4-0.6
			c0.2-0.2,0.4-0.3,0.7-0.5c0.3-0.1,0.6-0.2,1-0.2c0.3,0,0.6,0,0.8,0.1s0.4,0.2,0.6,0.3c0.2,0.1,0.3,0.3,0.4,0.5
			c0.1,0.2,0.2,0.4,0.2,0.6l-1.3,0.4c0-0.1,0-0.1-0.1-0.2c0-0.1-0.1-0.2-0.1-0.2c-0.1-0.1-0.1-0.1-0.2-0.2c-0.1,0-0.2-0.1-0.3-0.1
			c-0.1,0-0.3,0-0.3,0.1s-0.2,0.1-0.2,0.2S324,63,324,63.1c0,0.1,0,0.2,0,0.2v2.3c0,0.2,0.1,0.4,0.2,0.6c0.1,0.2,0.3,0.2,0.6,0.2
			c0.2,0,0.4-0.1,0.5-0.2c0.1-0.1,0.2-0.3,0.3-0.5L326.8,66.2z"/>
		<path fill="#2E3135" d="M330.1,62.6v5.1h-1.4v-5.1h-1.4v-1.2h4.2v1.2H330.1z"/>
		<path fill="#2E3135" d="M336.7,65.7c0,0.3-0.1,0.6-0.2,0.9c-0.1,0.2-0.2,0.5-0.4,0.6c-0.2,0.2-0.4,0.3-0.7,0.4
			c-0.3,0.1-0.5,0.1-0.8,0.1h-2.2v-6.3h1.4v2.3h0.8c0.3,0,0.6,0,0.9,0.1c0.3,0.1,0.5,0.2,0.6,0.4s0.3,0.4,0.4,0.6
			S336.7,65.4,336.7,65.7z M335.3,65.7c0-0.3-0.1-0.5-0.2-0.6c-0.1-0.1-0.3-0.2-0.6-0.2h-0.8v1.5h0.8c0.3,0,0.4-0.1,0.6-0.2
			C335.2,66.1,335.3,65.9,335.3,65.7z"/>
	</g>
</g>
<g>
	<g>
		<path fill="#FFFFFF" d="M266.2,39.2c-0.2,1-0.6,1.8-1.4,2.4c-0.7,0.6-1.6,0.9-2.7,0.9c-0.7,0-1.4-0.1-1.9-0.4
			c-0.5-0.2-1-0.6-1.3-1c-0.3-0.4-0.6-0.9-0.7-1.4s-0.2-1.1-0.2-1.7v-4.6c0-0.5,0.1-1,0.2-1.5c0.1-0.5,0.4-0.9,0.7-1.3
			s0.8-0.7,1.3-1s1.2-0.4,1.9-0.4c0.6,0,1.1,0.1,1.6,0.3c0.5,0.2,0.9,0.4,1.2,0.7c0.3,0.3,0.6,0.6,0.8,1s0.4,0.8,0.4,1.2l-2.6,0.8
			c0-0.1-0.1-0.3-0.1-0.4c-0.1-0.2-0.1-0.3-0.3-0.5c-0.1-0.1-0.3-0.3-0.5-0.4c-0.2-0.1-0.4-0.1-0.7-0.1c-0.3,0-0.5,0-0.7,0.1
			c-0.2,0.1-0.3,0.2-0.4,0.4c-0.1,0.1-0.2,0.3-0.2,0.5c0,0.2-0.1,0.3-0.1,0.5v4.8c0,0.5,0.1,0.9,0.3,1.2s0.6,0.5,1.1,0.5
			c0.4,0,0.7-0.1,1-0.4c0.3-0.2,0.5-0.6,0.5-1L266.2,39.2z"/>
		<path fill="#FFFFFF" d="M273.4,42.4l-1.7-5.1h-1.1v5.1h-2.7v-13h4.3c0.5,0,1.1,0.1,1.6,0.2s0.9,0.4,1.3,0.7
			c0.4,0.3,0.7,0.7,0.9,1.2c0.2,0.5,0.3,1.1,0.3,1.7c0,0.8-0.2,1.6-0.5,2.1s-0.8,1.1-1.4,1.4l2.1,5.6H273.4z M273.6,33.2
			c0-0.5-0.1-0.9-0.4-1.1c-0.3-0.2-0.6-0.3-1.1-0.3h-1.5v2.9h1.5c0.4,0,0.8-0.1,1.1-0.3C273.4,34.2,273.6,33.8,273.6,33.2z"/>
		<path fill="#FFFFFF" d="M278.1,42.4v-13h7.6v2.5h-4.9v2.7h4.2V37h-4.2v2.8h4.9v2.6H278.1z"/>
		<path fill="#FFFFFF" d="M292.8,39.7h-3.1c-0.1,0.4-0.2,0.9-0.3,1.3c-0.1,0.4-0.2,0.9-0.4,1.3h-2.9l3.8-13h2.7l3.8,13h-2.9
			L292.8,39.7z M290.7,35.4l-0.4,1.9h1.9l-0.4-1.8l-0.5-2.6h-0.1L290.7,35.4z"/>
		<path fill="#FFFFFF" d="M305.9,33.5c0,0.6-0.1,1.2-0.3,1.7c-0.2,0.5-0.5,0.9-0.8,1.3s-0.8,0.6-1.3,0.8s-1.1,0.3-1.7,0.3h-1.6v4.7
			h-2.7v-13h4.1c0.6,0,1.2,0.1,1.7,0.2c0.5,0.2,1,0.4,1.3,0.7c0.4,0.3,0.7,0.8,0.9,1.3C305.8,32.1,305.9,32.8,305.9,33.5z
			 M303.3,33.4c0-0.6-0.1-1-0.4-1.2c-0.3-0.2-0.6-0.4-1.1-0.4h-1.4v3.2h1.4c0.4,0,0.8-0.1,1.1-0.4C303.1,34.5,303.3,34,303.3,33.4z"
			/>
		<path fill="#FFFFFF" d="M320,38.3c0,0.6-0.1,1.2-0.3,1.7c-0.2,0.5-0.5,1-0.9,1.3s-0.8,0.6-1.3,0.8c-0.5,0.2-1.1,0.3-1.7,0.3
			c-0.7,0-1.4-0.1-1.9-0.4c-0.5-0.2-1-0.6-1.3-1c-0.3-0.4-0.6-0.9-0.7-1.4c-0.2-0.5-0.2-1.1-0.2-1.7v-4.6c0-0.5,0.1-1,0.2-1.5
			c0.1-0.5,0.4-0.9,0.7-1.3s0.8-0.7,1.3-1s1.2-0.4,1.9-0.4c0.7,0,1.3,0.1,1.8,0.4c0.5,0.2,1,0.6,1.3,1c0.3,0.4,0.6,0.8,0.8,1.3
			c0.2,0.5,0.3,1,0.3,1.5V38.3z M317.2,33.3c0-0.1,0-0.3-0.1-0.4c0-0.2-0.1-0.3-0.2-0.5c-0.1-0.1-0.3-0.3-0.4-0.4
			c-0.2-0.1-0.4-0.2-0.7-0.2c-0.3,0-0.5,0-0.7,0.1c-0.2,0.1-0.3,0.2-0.5,0.4c-0.1,0.1-0.2,0.3-0.3,0.5c-0.1,0.2-0.1,0.3-0.1,0.5v4.8
			c0,0.5,0.1,0.9,0.3,1.2s0.6,0.5,1.1,0.5c0.4,0,0.7-0.1,1-0.4c0.3-0.2,0.4-0.6,0.4-1V33.3z"/>
		<path fill="#FFFFFF" d="M322,42.4v-13h2.7v13H322z"/>
		<path fill="#FFFFFF" d="M326.9,42.4v-13h2.7v10.4h4.9v2.6H326.9z"/>
	</g>
</g>
<g>
	<g>
		<g>
			<path fill="#9A4B74" d="M30.5,85.2c-8.3,0-15.1-2.8-20.3-8.4c-5.1-5.5-7.6-12.8-7.6-21.7c0-8.5,2.6-15.6,7.7-21.3
				c5.2-5.8,12.1-8.7,20.7-8.7c6.8,0,12.7,2,17.4,5.9c4.8,4,7.4,9.1,7.9,15.3l0.3,3.2H39.7l-0.5-2.4c-0.4-2.1-1.3-3.7-2.8-4.9
				c-1.5-1.2-3.3-1.7-5.7-1.7c-2.4,0-4.4,0.6-6,2c-1.7,1.4-2.9,3.1-3.6,5.1c-0.8,2.2-1.1,4.7-1.1,7.4c0,4.6,1,8.3,3.1,10.9
				c1.9,2.4,4.3,3.6,7.6,3.6c3.6,0,7.8-1,8.8-9l0.3-2.6h17.2l-0.3,3.3c-0.6,7.2-3.2,13-7.7,17.3C44.3,83,38.1,85.2,30.5,85.2z"/>
			<path fill="#FFFFFF" d="M30.9,28.2c6.1,0,11.3,1.7,15.4,5.2c4.2,3.5,6.4,7.9,6.9,13.3H42.1c-0.6-2.8-1.9-5.1-3.9-6.6
				c-2-1.6-4.5-2.4-7.6-2.4c-3.1,0-5.8,0.9-7.9,2.6c-2.1,1.8-3.7,3.9-4.5,6.5c-0.9,2.6-1.3,5.4-1.3,8.4c0,5.3,1.2,9.5,3.7,12.7
				c2.5,3.2,5.8,4.7,9.9,4.7c6.9,0,10.8-3.9,11.8-11.6h11.2c-0.6,6.5-2.8,11.6-6.8,15.4c-4,3.8-9.4,5.7-16.3,5.7
				c-7.5,0-13.5-2.5-18.1-7.4c-4.6-4.9-6.8-11.5-6.8-19.7c0-7.7,2.3-14.1,6.9-19.3C17.1,30.8,23.2,28.2,30.9,28.2 M30.9,22.2
				c-9.4,0-17.1,3.3-22.9,9.7c-5.6,6.2-8.5,14.1-8.5,23.3c0,9.7,2.8,17.7,8.4,23.7c5.7,6.2,13.3,9.4,22.5,9.4
				c8.5,0,15.4-2.5,20.5-7.4c5-4.8,7.9-11.3,8.6-19.2l0.6-6.5h-6.6H42.3H37l-0.7,5.3c-0.7,5.9-3.1,6.3-5.9,6.3
				c-2.3,0-3.9-0.7-5.2-2.4c-1.6-2.1-2.4-5.1-2.4-9c0-2.4,0.3-4.5,1-6.5c0.5-1.5,1.4-2.7,2.7-3.8c0.7-0.6,1.8-1.3,4.1-1.3
				c1.7,0,2.9,0.4,3.9,1.1c0.5,0.4,1.3,1.2,1.7,3.1l1,4.8h4.9h11.1h6.5l-0.5-6.5c-0.6-7-3.6-12.8-9-17.4
				C44.9,24.4,38.4,22.2,30.9,22.2L30.9,22.2z"/>
		</g>
		<g>
			<path fill="#9A4B74" d="M84.4,85.2c-8.5,0-15.4-2.8-20.6-8.4c-5.2-5.5-7.8-12.8-7.8-21.6c0-8.9,2.6-16.2,7.8-21.7
				c5.2-5.6,12.2-8.4,20.8-8.4c8.4,0,15.3,2.8,20.5,8.5c5.2,5.5,7.8,12.8,7.8,21.6c0,8.8-2.6,16.1-7.8,21.6
				C99.7,82.4,92.8,85.2,84.4,85.2z M84.4,40.5c-3.3,0-5.9,1.2-7.8,3.6c-2.1,2.6-3.2,6.3-3.2,11c0,4.8,1,8.6,3.1,11.2
				c1.9,2.4,4.6,3.6,8,3.7c3.3,0,5.9-1.2,7.7-3.6c2-2.6,3.1-6.4,3.1-11.2c0-4.7-1-8.4-3.1-11C90.3,41.7,87.7,40.5,84.4,40.5z"/>
			<path fill="#FFFFFF" d="M84.5,28.2c7.5,0,13.6,2.5,18.3,7.5c4.7,5,7,11.5,7,19.6c0,8.1-2.3,14.6-7,19.5c-4.7,5-10.8,7.4-18.4,7.4
				c-7.6,0-13.8-2.5-18.5-7.4c-4.7-4.9-7-11.5-7-19.5c0-8.2,2.3-14.7,7-19.7C70.6,30.7,76.8,28.2,84.5,28.2 M84.5,72.9
				c4.3,0,7.7-1.6,10.1-4.8c2.5-3.2,3.7-7.5,3.7-13c0-5.4-1.3-9.7-3.8-12.9c-2.5-3.2-5.9-4.7-10.2-4.7c-4.2,0-7.6,1.6-10.2,4.8
				c-2.5,3.2-3.8,7.5-3.8,12.8c0,5.6,1.3,9.9,3.8,13C76.6,71.3,80.1,72.8,84.5,72.9 M84.5,22.2c-9.4,0-17.1,3.1-22.9,9.3
				c-5.7,6.1-8.6,14.1-8.6,23.8c0,9.6,2.9,17.6,8.7,23.6c5.8,6.2,13.5,9.3,22.8,9.3c9.3,0,16.9-3.1,22.7-9.3
				c5.7-6.1,8.6-14,8.6-23.6c0-9.6-2.9-17.6-8.6-23.7C101.4,25.4,93.7,22.2,84.5,22.2L84.5,22.2z M84.5,66.9c-3.3,0-4.8-1.4-5.7-2.5
				c-1.6-2-2.5-5.2-2.5-9.3c0-3.9,0.8-7,2.5-9.1c1.4-1.8,3-2.5,5.5-2.5c2.5,0,4.2,0.8,5.5,2.5c1.6,2.1,2.5,5.1,2.5,9.1
				c0,4.1-0.8,7.3-2.4,9.4C88.6,66.2,87,66.9,84.5,66.9L84.5,66.9z"/>
		</g>
	</g>
</g>
</svg>
