<?xml version="1.0" encoding="utf-8"?>
<!-- Generator: Adobe Illustrator 17.1.0, SVG Export Plug-In . SVG Version: 6.00 Build 0)  -->
<!DOCTYPE svg PUBLIC "-//W3C//DTD SVG 1.1//EN" "http://www.w3.org/Graphics/SVG/1.1/DTD/svg11.dtd">
<svg version="1.1" id="Layer_1" xmlns="http://www.w3.org/2000/svg" xmlns:xlink="http://www.w3.org/1999/xlink" x="0px" y="0px"
	 viewBox="0 0 365.5 83.3" enable-background="new 0 0 365.5 83.3" xml:space="preserve">
<g>
	<polygon points="0.7,-2.8 0.7,44 69.5,44 89.3,-2.8 	"/>
	<polygon fill="#2E3135" points="87.6,-2.8 67.8,44 161.3,44 181.1,-2.8 	"/>
	<polygon points="179.5,-2.8 159.7,44 253.2,44 273,-2.8 	"/>
	<polygon fill="#2E3135" points="342.1,44 362.1,-2.8 271.3,-2.8 251.5,44 	"/>
	<rect x="-0.5" y="41.8" fill="#FFFFFF" width="366" height="11"/>
</g>
<g>
	<g>
		<path fill="#2E3135" d="M197.4,55.4c-0.1,0.5-0.3,0.9-0.7,1.1c-0.4,0.3-0.8,0.4-1.4,0.4c-0.4,0-0.7-0.1-1-0.2
			c-0.3-0.1-0.5-0.3-0.7-0.5c-0.2-0.2-0.3-0.4-0.4-0.7c-0.1-0.3-0.1-0.5-0.1-0.8v-2.2c0-0.2,0-0.5,0.1-0.7c0.1-0.2,0.2-0.5,0.4-0.6
			c0.2-0.2,0.4-0.3,0.7-0.5s0.6-0.2,1-0.2c0.3,0,0.6,0,0.8,0.1s0.4,0.2,0.6,0.3s0.3,0.3,0.4,0.5c0.1,0.2,0.2,0.4,0.2,0.6l-1.3,0.4
			c0-0.1,0-0.1-0.1-0.2c0-0.1-0.1-0.2-0.1-0.2c-0.1-0.1-0.1-0.1-0.2-0.2c-0.1,0-0.2-0.1-0.3-0.1c-0.1,0-0.3,0-0.3,0.1
			c-0.1,0-0.2,0.1-0.2,0.2s-0.1,0.1-0.1,0.2c0,0.1,0,0.2,0,0.2v2.3c0,0.2,0.1,0.4,0.2,0.6c0.1,0.2,0.3,0.2,0.6,0.2
			c0.2,0,0.4-0.1,0.5-0.2c0.1-0.1,0.2-0.3,0.3-0.5L197.4,55.4z"/>
		<path fill="#2E3135" d="M202.7,52.6c0,0.3,0,0.6-0.1,0.8s-0.2,0.5-0.4,0.6c-0.2,0.2-0.4,0.3-0.6,0.4c-0.3,0.1-0.5,0.1-0.9,0.1
			h-0.8v2.3h-1.4v-6.3h2.1c0.3,0,0.6,0,0.9,0.1c0.3,0.1,0.5,0.2,0.7,0.4c0.2,0.2,0.3,0.4,0.4,0.6C202.6,51.9,202.7,52.2,202.7,52.6z
			 M201.3,52.6c0-0.3-0.1-0.5-0.2-0.6c-0.1-0.1-0.3-0.2-0.6-0.2h-0.7v1.6h0.7c0.2,0,0.4-0.1,0.5-0.2S201.3,52.9,201.3,52.6z"/>
		<path fill="#2E3135" d="M203.6,56.9v-6.3h3.8v1.2H205v1.3h2.1v1.2H205v1.3h2.5v1.2H203.6z"/>
		<path fill="#2E3135" d="M209.2,56.9v1.3H208v-2.4l0.6-0.1c0.1-0.1,0.2-0.3,0.3-0.4s0.1-0.3,0.2-0.5c0-0.2,0.1-0.4,0.1-0.7
			s0-0.5,0-0.9l0.1-2.5h3.8v5.1h0.6v2.5h-1.1v-1.3H209.2z M210.4,53.4c0,0.2,0,0.4,0,0.6s0,0.4-0.1,0.6c0,0.2-0.1,0.4-0.1,0.6
			c0,0.2-0.1,0.3-0.2,0.4h1.7v-3.9h-1.2L210.4,53.4z"/>
		<path fill="#2E3135" d="M218.8,55.4c-0.1,0.5-0.3,0.9-0.7,1.1c-0.4,0.3-0.8,0.4-1.4,0.4c-0.4,0-0.7-0.1-1-0.2
			c-0.3-0.1-0.5-0.3-0.7-0.5c-0.2-0.2-0.3-0.4-0.4-0.7c-0.1-0.3-0.1-0.5-0.1-0.8v-2.2c0-0.2,0-0.5,0.1-0.7c0.1-0.2,0.2-0.5,0.4-0.6
			c0.2-0.2,0.4-0.3,0.7-0.5s0.6-0.2,1-0.2c0.3,0,0.6,0,0.8,0.1s0.4,0.2,0.6,0.3s0.3,0.3,0.4,0.5c0.1,0.2,0.2,0.4,0.2,0.6l-1.3,0.4
			c0-0.1,0-0.1-0.1-0.2c0-0.1-0.1-0.2-0.1-0.2c-0.1-0.1-0.1-0.1-0.2-0.2c-0.1,0-0.2-0.1-0.3-0.1c-0.1,0-0.3,0-0.3,0.1
			c-0.1,0-0.2,0.1-0.2,0.2s-0.1,0.1-0.1,0.2c0,0.1,0,0.2,0,0.2v2.3c0,0.2,0.1,0.4,0.2,0.6c0.1,0.2,0.3,0.2,0.6,0.2
			c0.2,0,0.4-0.1,0.5-0.2c0.1-0.1,0.2-0.3,0.3-0.5L218.8,55.4z"/>
		<path fill="#2E3135" d="M222.1,51.8v5.1h-1.4v-5.1h-1.4v-1.2h4.2v1.2H222.1z"/>
		<path fill="#2E3135" d="M228.6,55c0,0.3,0,0.6-0.1,0.8c-0.1,0.2-0.2,0.4-0.4,0.6s-0.4,0.3-0.6,0.4s-0.5,0.1-0.8,0.1h-2.2v-6.3h2.1
			c0.6,0,1.1,0.2,1.5,0.5s0.5,0.7,0.5,1.3c0,0.2-0.1,0.5-0.2,0.7c-0.1,0.2-0.3,0.4-0.6,0.5v0c0.2,0,0.3,0.1,0.4,0.2
			c0.1,0.1,0.2,0.2,0.3,0.3s0.1,0.3,0.2,0.4C228.6,54.7,228.6,54.8,228.6,55z M227.2,52.4c0-0.2-0.1-0.4-0.2-0.5
			c-0.1-0.1-0.3-0.2-0.5-0.2h-0.7v1.3h0.7c0.3,0,0.4-0.1,0.5-0.2C227.1,52.8,227.2,52.6,227.2,52.4z M227.2,54.9
			c0-0.2-0.1-0.4-0.2-0.5s-0.3-0.2-0.5-0.2h-0.8v1.4h0.8c0.3,0,0.5-0.1,0.6-0.2C227.2,55.3,227.2,55.1,227.2,54.9z"/>
		<path fill="#2E3135" d="M233.8,54.9c0,0.3-0.1,0.6-0.2,0.8c-0.1,0.2-0.2,0.5-0.4,0.6c-0.2,0.2-0.4,0.3-0.7,0.4
			c-0.3,0.1-0.5,0.1-0.8,0.1c-0.4,0-0.7-0.1-1-0.2c-0.3-0.1-0.5-0.3-0.7-0.5c-0.2-0.2-0.3-0.4-0.4-0.7s-0.1-0.5-0.1-0.8v-2.2
			c0-0.2,0-0.5,0.1-0.7c0.1-0.2,0.2-0.5,0.4-0.6c0.2-0.2,0.4-0.3,0.7-0.5s0.6-0.2,1-0.2c0.4,0,0.7,0.1,0.9,0.2s0.5,0.3,0.7,0.5
			c0.2,0.2,0.3,0.4,0.4,0.6c0.1,0.2,0.1,0.5,0.1,0.7V54.9z M232.4,52.5c0-0.1,0-0.1,0-0.2c0-0.1-0.1-0.2-0.1-0.2s-0.1-0.1-0.2-0.2
			c-0.1-0.1-0.2-0.1-0.3-0.1s-0.3,0-0.3,0.1c-0.1,0-0.2,0.1-0.2,0.2s-0.1,0.1-0.1,0.2c0,0.1,0,0.2,0,0.2v2.3c0,0.2,0.1,0.4,0.2,0.6
			c0.1,0.2,0.3,0.2,0.6,0.2c0.2,0,0.4-0.1,0.5-0.2s0.2-0.3,0.2-0.5V52.5z"/>
		<path fill="#2E3135" d="M238.3,56.9v1.3h-1.1v-2.4l0.6-0.1c0.1-0.1,0.2-0.3,0.3-0.4c0.1-0.2,0.1-0.3,0.2-0.5s0.1-0.4,0.1-0.7
			s0-0.5,0-0.9l0.1-2.5h3.8v5.1h0.6v2.5h-1.1v-1.3H238.3z M239.6,53.4c0,0.2,0,0.4,0,0.6s0,0.4-0.1,0.6s-0.1,0.4-0.1,0.6
			c0,0.2-0.1,0.3-0.2,0.4h1.7v-3.9h-1.2L239.6,53.4z"/>
		<path fill="#2E3135" d="M248.2,50.6v6.3h-1.4v-5h-1.1v1.9c0,0.5,0,0.9-0.1,1.2s-0.1,0.7-0.3,1c-0.1,0.3-0.3,0.5-0.6,0.7
			c-0.3,0.2-0.6,0.3-1,0.4l-0.3-1c0.2-0.1,0.4-0.2,0.6-0.3c0.1-0.1,0.2-0.3,0.3-0.4s0.1-0.4,0.1-0.6c0-0.2,0-0.5,0-0.8v-3.2H248.2z"
			/>
		<path fill="#2E3135" d="M253.7,50.6v6.3h-1.4v-2.5H252c-0.2,0-0.4,0.1-0.5,0.2c-0.1,0.1-0.2,0.4-0.3,0.7l-0.4,1.6h-1.4l0.4-1.9
			c0-0.2,0.1-0.4,0.2-0.6c0.1-0.2,0.3-0.3,0.5-0.4c-0.3-0.1-0.6-0.3-0.7-0.6c-0.1-0.3-0.2-0.6-0.2-1c0-0.3,0.1-0.6,0.2-0.8
			c0.1-0.2,0.2-0.4,0.4-0.6s0.4-0.3,0.6-0.4c0.2-0.1,0.5-0.1,0.8-0.1H253.7z M250.9,52.5c0,0.1,0,0.2,0.1,0.3s0.1,0.1,0.2,0.2
			s0.2,0.1,0.3,0.1c0.1,0,0.2,0,0.3,0h0.6v-1.3h-0.7C251.2,51.8,250.9,52,250.9,52.5z"/>
		<path fill="#2E3135" d="M257.4,55.4c0.2-0.1,0.4-0.1,0.7-0.2c0.2-0.1,0.4-0.1,0.7-0.2c0.1,0.2,0.1,0.4,0.3,0.5s0.3,0.2,0.5,0.2
			c0.1,0,0.2,0,0.3-0.1c0.1,0,0.2-0.1,0.2-0.2c0.1-0.1,0.1-0.2,0.1-0.2s0-0.2,0-0.3c0-0.1,0-0.2,0-0.3c0-0.1-0.1-0.2-0.1-0.2
			c-0.1-0.1-0.1-0.1-0.2-0.2c-0.1,0-0.2-0.1-0.4-0.1H259v-1.1h0.5c0.2,0,0.4-0.1,0.5-0.2c0.1-0.1,0.2-0.3,0.2-0.5c0-0.1,0-0.1,0-0.2
			c0-0.1-0.1-0.1-0.1-0.2c0-0.1-0.1-0.1-0.2-0.1s-0.2-0.1-0.3-0.1c-0.2,0-0.4,0.1-0.5,0.2c-0.1,0.1-0.2,0.3-0.3,0.5l-1.2-0.5
			c0.1-0.4,0.4-0.8,0.7-1.1c0.4-0.3,0.8-0.4,1.4-0.4c0.6,0,1.1,0.2,1.5,0.5s0.5,0.7,0.5,1.3c0,0.1,0,0.2,0,0.3s-0.1,0.3-0.1,0.4
			c-0.1,0.1-0.1,0.2-0.2,0.4c-0.1,0.1-0.2,0.2-0.4,0.3v0c0.2,0,0.3,0.1,0.4,0.2c0.1,0.1,0.2,0.2,0.2,0.3c0.1,0.1,0.1,0.3,0.1,0.4
			c0,0.1,0,0.3,0,0.4c0,0.3-0.1,0.6-0.2,0.9s-0.3,0.4-0.5,0.6c-0.2,0.2-0.4,0.3-0.7,0.3c-0.3,0.1-0.5,0.1-0.8,0.1
			c-0.6,0-1.1-0.1-1.4-0.4C257.7,56.2,257.5,55.8,257.4,55.4z"/>
		<path fill="#2E3135" d="M265.6,55.6H264c-0.1,0.2-0.1,0.4-0.2,0.6c-0.1,0.2-0.1,0.4-0.2,0.6h-1.4l1.9-6.3h1.4l1.9,6.3h-1.5
			L265.6,55.6z M264.5,53.5l-0.2,0.9h0.9l-0.2-0.9l-0.3-1.3h0L264.5,53.5z"/>
		<path fill="#2E3135" d="M274.2,56.9h-6v-6.3h1.4v5.1h1.2v-5.1h1.4v5.1h1.2v-5.1h1.4v5.1h0.7v2.5h-1.1V56.9z"/>
		<path fill="#2E3135" d="M279.4,56.9v-3.4h0l-1.8,3.4h-1.3v-6.3h1.4v3.6h0l1.9-3.6h1.2v6.3H279.4z"/>
		<path fill="#2E3135" d="M284.4,51.8v5.1h-1.4v-5.1h-1.4v-1.2h4.2v1.2H284.4z"/>
		<path fill="#2E3135" d="M286.7,56.9v-6.3h1.4V53h0.8c0.3,0,0.6,0,0.9,0.1c0.3,0.1,0.5,0.2,0.6,0.4s0.3,0.4,0.4,0.6
			c0.1,0.2,0.1,0.5,0.1,0.8c0,0.3,0,0.6-0.1,0.9c-0.1,0.2-0.2,0.5-0.4,0.6s-0.4,0.3-0.7,0.4s-0.5,0.1-0.8,0.1H286.7z M288.9,55.7
			c0.3,0,0.4-0.1,0.6-0.2c0.1-0.1,0.2-0.3,0.2-0.6c0-0.3-0.1-0.5-0.2-0.6c-0.1-0.1-0.3-0.2-0.6-0.2h-0.8v1.5H288.9z M291.5,56.9
			v-6.3h1.4v6.3H291.5z"/>
		<path fill="#2E3135" d="M300.9,54.9c0,0.3-0.1,0.6-0.2,0.8c-0.1,0.2-0.2,0.5-0.4,0.6c-0.2,0.2-0.4,0.3-0.7,0.4
			c-0.3,0.1-0.5,0.1-0.8,0.1c-0.4,0-0.7-0.1-1-0.2c-0.3-0.1-0.5-0.3-0.7-0.5c-0.2-0.2-0.3-0.4-0.4-0.7c-0.1-0.3-0.1-0.5-0.1-0.8
			v-2.2c0-0.2,0-0.5,0.1-0.7c0.1-0.2,0.2-0.5,0.4-0.6c0.2-0.2,0.4-0.3,0.7-0.5s0.6-0.2,1-0.2c0.4,0,0.7,0.1,0.9,0.2s0.5,0.3,0.7,0.5
			c0.2,0.2,0.3,0.4,0.4,0.6c0.1,0.2,0.1,0.5,0.1,0.7V54.9z M299.5,52.5c0-0.1,0-0.1,0-0.2c0-0.1-0.1-0.2-0.1-0.2s-0.1-0.1-0.2-0.2
			c-0.1-0.1-0.2-0.1-0.3-0.1s-0.3,0-0.3,0.1c-0.1,0-0.2,0.1-0.2,0.2s-0.1,0.1-0.1,0.2c0,0.1,0,0.2,0,0.2v2.3c0,0.2,0.1,0.4,0.2,0.6
			c0.1,0.2,0.3,0.2,0.6,0.2c0.2,0,0.4-0.1,0.5-0.2s0.2-0.3,0.2-0.5V52.5z"/>
		<path fill="#2E3135" d="M304.4,51.8v5.1H303v-5.1h-1.4v-1.2h4.2v1.2H304.4z"/>
		<path fill="#2E3135" d="M313.4,55c0,0.3,0,0.6-0.1,0.8c-0.1,0.2-0.2,0.4-0.4,0.6s-0.4,0.3-0.6,0.4s-0.5,0.1-0.8,0.1h-2.2v-6.3h2.1
			c0.6,0,1.1,0.2,1.5,0.5s0.5,0.7,0.5,1.3c0,0.2-0.1,0.5-0.2,0.7c-0.1,0.2-0.3,0.4-0.6,0.5v0c0.2,0,0.3,0.1,0.4,0.2
			c0.1,0.1,0.2,0.2,0.3,0.3c0.1,0.1,0.1,0.3,0.2,0.4C313.4,54.7,313.4,54.8,313.4,55z M312,52.4c0-0.2-0.1-0.4-0.2-0.5
			c-0.1-0.1-0.3-0.2-0.5-0.2h-0.7v1.3h0.7c0.3,0,0.4-0.1,0.5-0.2C312,52.8,312,52.6,312,52.4z M312.1,54.9c0-0.2-0.1-0.4-0.2-0.5
			s-0.3-0.2-0.5-0.2h-0.8v1.4h0.8c0.3,0,0.5-0.1,0.6-0.2C312,55.3,312.1,55.1,312.1,54.9z"/>
		<path fill="#2E3135" d="M318.9,50.6v6.3h-1.4v-5h-1.1v1.9c0,0.5,0,0.9-0.1,1.2s-0.1,0.7-0.3,1c-0.1,0.3-0.3,0.5-0.6,0.7
			c-0.3,0.2-0.6,0.3-1,0.4l-0.3-1c0.2-0.1,0.4-0.2,0.6-0.3c0.1-0.1,0.2-0.3,0.3-0.4s0.1-0.4,0.1-0.6c0-0.2,0-0.5,0-0.8v-3.2H318.9z"
			/>
		<path fill="#2E3135" d="M323.1,55.6h-1.6c-0.1,0.2-0.1,0.4-0.2,0.6c-0.1,0.2-0.1,0.4-0.2,0.6h-1.4l1.9-6.3h1.4l1.9,6.3h-1.5
			L323.1,55.6z M322.1,53.5l-0.2,0.9h0.9l-0.2-0.9l-0.3-1.3h0L322.1,53.5z"/>
		<path fill="#2E3135" d="M327.2,51.8v5.1h-1.4v-6.3h3.8v1.2H327.2z"/>
		<path fill="#2E3135" d="M333.7,56.9v-3.4h0l-1.8,3.4h-1.3v-6.3h1.4v3.6h0l1.9-3.6h1.2v6.3H333.7z"/>
	</g>
</g>
<g>
	<g>
		<path fill="#FFFFFF" d="M173.2,42.4v-6.1l-0.1,0l-0.9,2.3l-0.7,1.7h-1.9l-0.7-1.8l-0.9-2.2l-0.1,0v6.1h-2.7v-13h2.5l1.5,3.6
			l1.3,3.2h0.1l1.3-3.3l1.5-3.6h2.5v13H173.2z"/>
		<path fill="#FFFFFF" d="M186,38.3c0,0.6-0.1,1.2-0.3,1.7c-0.2,0.5-0.5,1-0.9,1.3c-0.4,0.4-0.8,0.6-1.3,0.8
			c-0.5,0.2-1.1,0.3-1.7,0.3c-0.7,0-1.4-0.1-1.9-0.4c-0.5-0.2-1-0.6-1.3-1c-0.3-0.4-0.6-0.9-0.7-1.4s-0.2-1.1-0.2-1.7v-4.6
			c0-0.5,0.1-1,0.2-1.5c0.1-0.5,0.4-0.9,0.7-1.3c0.3-0.4,0.8-0.7,1.3-1s1.2-0.4,1.9-0.4c0.7,0,1.3,0.1,1.8,0.4c0.5,0.2,1,0.6,1.3,1
			c0.3,0.4,0.6,0.8,0.8,1.3c0.2,0.5,0.3,1,0.3,1.5V38.3z M183.3,33.3c0-0.1,0-0.3-0.1-0.4c0-0.2-0.1-0.3-0.2-0.5
			c-0.1-0.1-0.3-0.3-0.4-0.4c-0.2-0.1-0.4-0.2-0.7-0.2s-0.5,0-0.7,0.1c-0.2,0.1-0.3,0.2-0.5,0.4c-0.1,0.1-0.2,0.3-0.3,0.5
			c-0.1,0.2-0.1,0.3-0.1,0.5v4.8c0,0.5,0.1,0.9,0.3,1.2s0.6,0.5,1.1,0.5c0.4,0,0.7-0.1,1-0.4c0.3-0.2,0.4-0.6,0.4-1V33.3z"/>
		<path fill="#FFFFFF" d="M188,42.4v-13h2.7v13H188z"/>
		<path fill="#FFFFFF" d="M201.2,38.5c0,1.2-0.4,2.2-1.1,2.9c-0.8,0.7-1.9,1-3.3,1c-0.5,0-1-0.1-1.5-0.2c-0.4-0.1-0.8-0.3-1.2-0.5
			s-0.7-0.4-1-0.7c-0.3-0.3-0.5-0.6-0.8-0.9l2.1-1.7c0.3,0.5,0.7,0.8,1.1,1c0.4,0.2,0.8,0.3,1.3,0.3c0.6,0,1-0.1,1.2-0.4
			s0.3-0.6,0.3-0.9c0-0.2-0.1-0.5-0.2-0.6c-0.1-0.2-0.3-0.3-0.5-0.5c-0.2-0.1-0.4-0.3-0.7-0.4c-0.3-0.1-0.6-0.2-0.9-0.3
			c-0.6-0.2-1.1-0.4-1.5-0.6c-0.4-0.2-0.8-0.5-1-0.8s-0.5-0.6-0.6-1c-0.1-0.4-0.2-0.8-0.2-1.3c0-0.6,0.1-1.1,0.3-1.5
			c0.2-0.5,0.5-0.9,0.8-1.2c0.4-0.3,0.8-0.6,1.3-0.8c0.5-0.2,1.1-0.3,1.7-0.3c1,0,1.8,0.2,2.4,0.5c0.6,0.3,1.2,0.8,1.6,1.4l-1.9,1.8
			c-0.6-0.7-1.3-1.1-2.1-1.1c-0.4,0-0.7,0.1-1,0.3c-0.3,0.2-0.4,0.5-0.4,0.8c0,0.2,0.1,0.4,0.2,0.5c0.1,0.1,0.3,0.3,0.5,0.4
			s0.5,0.2,0.7,0.4c0.3,0.1,0.6,0.2,0.9,0.3c0.6,0.2,1.2,0.4,1.6,0.7c0.4,0.3,0.8,0.5,1,0.9c0.3,0.3,0.4,0.7,0.6,1.1
			C201.2,37.6,201.2,38,201.2,38.5z"/>
		<path fill="#FFFFFF" d="M207.3,31.8v10.5h-2.7V31.8h-2.8v-2.5h8.3v2.5H207.3z"/>
		<path fill="#FFFFFF" d="M219.6,29.4v8.9c0,0.6-0.1,1.2-0.3,1.7c-0.2,0.5-0.5,1-0.9,1.3s-0.8,0.6-1.3,0.8c-0.5,0.2-1.1,0.3-1.7,0.3
			c-0.7,0-1.4-0.1-1.9-0.4c-0.5-0.2-1-0.6-1.3-1c-0.3-0.4-0.6-0.9-0.7-1.4c-0.2-0.5-0.2-1.1-0.2-1.7v-8.7h2.7v8.8
			c0,0.5,0.1,0.9,0.3,1.2c0.2,0.3,0.6,0.5,1.1,0.5c0.4,0,0.7-0.1,1-0.4c0.3-0.3,0.4-0.6,0.4-1.1v-9H219.6z"/>
		<path fill="#FFFFFF" d="M227.3,42.4l-1.7-5.1h-1.1v5.1h-2.7v-13h4.3c0.5,0,1.1,0.1,1.6,0.2s0.9,0.4,1.3,0.7
			c0.4,0.3,0.7,0.7,0.9,1.2c0.2,0.5,0.3,1.1,0.3,1.7c0,0.8-0.2,1.6-0.5,2.1s-0.8,1.1-1.4,1.4l2.1,5.6H227.3z M227.4,33.2
			c0-0.5-0.1-0.9-0.4-1.1c-0.3-0.2-0.6-0.3-1.1-0.3h-1.5v2.9h1.5c0.4,0,0.8-0.1,1.1-0.3C227.3,34.2,227.4,33.8,227.4,33.2z"/>
		<path fill="#FFFFFF" d="M232,42.4v-13h7.6v2.5h-4.9v2.7h4.2V37h-4.2v2.8h4.9v2.6H232z"/>
		<path fill="#FFFFFF" d="M254.1,33.5c0,0.6-0.1,1.2-0.3,1.7c-0.2,0.5-0.5,0.9-0.8,1.3s-0.8,0.6-1.3,0.8s-1.1,0.3-1.7,0.3h-1.6v4.7
			h-2.7v-13h4.1c0.6,0,1.2,0.1,1.7,0.2c0.5,0.2,1,0.4,1.3,0.7c0.4,0.3,0.7,0.8,0.9,1.3C254,32.1,254.1,32.8,254.1,33.5z M251.4,33.4
			c0-0.6-0.1-1-0.4-1.2c-0.3-0.2-0.6-0.4-1.1-0.4h-1.4v3.2h1.4c0.4,0,0.8-0.1,1.1-0.4C251.3,34.5,251.4,34,251.4,33.4z"/>
		<path fill="#FFFFFF" d="M261,42.4l-1.7-5.1h-1.1v5.1h-2.7v-13h4.3c0.5,0,1.1,0.1,1.6,0.2s0.9,0.4,1.3,0.7c0.4,0.3,0.7,0.7,0.9,1.2
			c0.2,0.5,0.3,1.1,0.3,1.7c0,0.8-0.2,1.6-0.5,2.1s-0.8,1.1-1.4,1.4l2.1,5.6H261z M261.2,33.2c0-0.5-0.1-0.9-0.4-1.1
			c-0.3-0.2-0.6-0.3-1.1-0.3h-1.5v2.9h1.5c0.4,0,0.8-0.1,1.1-0.3C261,34.2,261.2,33.8,261.2,33.2z"/>
		<path fill="#FFFFFF" d="M273.7,38.3c0,0.6-0.1,1.2-0.3,1.7c-0.2,0.5-0.5,1-0.9,1.3s-0.8,0.6-1.3,0.8c-0.5,0.2-1.1,0.3-1.7,0.3
			c-0.7,0-1.4-0.1-1.9-0.4c-0.5-0.2-1-0.6-1.3-1c-0.3-0.4-0.6-0.9-0.7-1.4c-0.2-0.5-0.2-1.1-0.2-1.7v-4.6c0-0.5,0.1-1,0.2-1.5
			c0.1-0.5,0.4-0.9,0.7-1.3s0.8-0.7,1.3-1s1.2-0.4,1.9-0.4c0.7,0,1.3,0.1,1.8,0.4c0.5,0.2,1,0.6,1.3,1c0.3,0.4,0.6,0.8,0.8,1.3
			c0.2,0.5,0.3,1,0.3,1.5V38.3z M271,33.3c0-0.1,0-0.3-0.1-0.4c0-0.2-0.1-0.3-0.2-0.5c-0.1-0.1-0.3-0.3-0.4-0.4
			c-0.2-0.1-0.4-0.2-0.7-0.2c-0.3,0-0.5,0-0.7,0.1c-0.2,0.1-0.3,0.2-0.5,0.4c-0.1,0.1-0.2,0.3-0.3,0.5c-0.1,0.2-0.1,0.3-0.1,0.5v4.8
			c0,0.5,0.1,0.9,0.3,1.2s0.6,0.5,1.1,0.5c0.4,0,0.7-0.1,1-0.4c0.3-0.2,0.4-0.6,0.4-1V33.3z"/>
		<path fill="#FFFFFF" d="M280.1,31.8v10.5h-2.7V31.8h-2.8v-2.5h8.3v2.5H280.1z"/>
		<path fill="#FFFFFF" d="M284.2,42.4v-13h7.6v2.5H287v2.7h4.2V37H287v2.8h4.9v2.6H284.2z"/>
		<path fill="#FFFFFF" d="M301.3,39.2c-0.2,1-0.6,1.8-1.4,2.4c-0.7,0.6-1.6,0.9-2.7,0.9c-0.7,0-1.4-0.1-1.9-0.4
			c-0.5-0.2-1-0.6-1.3-1c-0.3-0.4-0.6-0.9-0.7-1.4c-0.2-0.5-0.2-1.1-0.2-1.7v-4.6c0-0.5,0.1-1,0.2-1.5c0.1-0.5,0.4-0.9,0.7-1.3
			c0.3-0.4,0.8-0.7,1.3-1s1.2-0.4,1.9-0.4c0.6,0,1.1,0.1,1.6,0.3c0.5,0.2,0.9,0.4,1.2,0.7c0.3,0.3,0.6,0.6,0.8,1s0.4,0.8,0.4,1.2
			l-2.6,0.8c0-0.1-0.1-0.3-0.1-0.4c-0.1-0.2-0.1-0.3-0.3-0.5c-0.1-0.1-0.3-0.3-0.5-0.4c-0.2-0.1-0.4-0.1-0.7-0.1
			c-0.3,0-0.5,0-0.7,0.1c-0.2,0.1-0.3,0.2-0.4,0.4c-0.1,0.1-0.2,0.3-0.2,0.5c0,0.2-0.1,0.3-0.1,0.5v4.8c0,0.5,0.1,0.9,0.3,1.2
			c0.2,0.3,0.6,0.5,1.1,0.5c0.4,0,0.7-0.1,1-0.4c0.3-0.2,0.5-0.6,0.5-1L301.3,39.2z"/>
		<path fill="#FFFFFF" d="M307.4,31.8v10.5h-2.7V31.8H302v-2.5h8.3v2.5H307.4z"/>
		<path fill="#FFFFFF" d="M311.6,42.4v-13h2.7v13H311.6z"/>
		<path fill="#FFFFFF" d="M324.6,38.3c0,0.6-0.1,1.2-0.3,1.7c-0.2,0.5-0.5,1-0.9,1.3s-0.8,0.6-1.3,0.8c-0.5,0.2-1.1,0.3-1.7,0.3
			c-0.7,0-1.4-0.1-1.9-0.4c-0.5-0.2-1-0.6-1.3-1c-0.3-0.4-0.6-0.9-0.7-1.4c-0.2-0.5-0.2-1.1-0.2-1.7v-4.6c0-0.5,0.1-1,0.2-1.5
			c0.1-0.5,0.4-0.9,0.7-1.3s0.8-0.7,1.3-1s1.2-0.4,1.9-0.4c0.7,0,1.3,0.1,1.8,0.4c0.5,0.2,1,0.6,1.3,1c0.3,0.4,0.6,0.8,0.8,1.3
			c0.2,0.5,0.3,1,0.3,1.5V38.3z M321.8,33.3c0-0.1,0-0.3-0.1-0.4c0-0.2-0.1-0.3-0.2-0.5c-0.1-0.1-0.3-0.3-0.4-0.4
			c-0.2-0.1-0.4-0.2-0.7-0.2c-0.3,0-0.5,0-0.7,0.1c-0.2,0.1-0.3,0.2-0.5,0.4c-0.1,0.1-0.2,0.3-0.3,0.5c-0.1,0.2-0.1,0.3-0.1,0.5v4.8
			c0,0.5,0.1,0.9,0.3,1.2c0.2,0.3,0.6,0.5,1.1,0.5c0.4,0,0.7-0.1,1-0.4c0.3-0.2,0.4-0.6,0.4-1V33.3z"/>
		<path fill="#FFFFFF" d="M333.1,42.4l-2.4-4.3l-1.4-2.7l-0.1,0v7.1h-2.7v-13h2.4l2.1,3.9l1.7,3.1l0.1,0v-7h2.7v13H333.1z"/>
	</g>
</g>
<g>
	<g>
		<g>
			<polygon fill="#81C650" points="51.4,85.7 51.4,64.1 43.9,85.7 29.6,85.7 22,64 22,85.7 3.5,85.7 3.5,23.9 26.7,23.9 36.9,54 
				46.9,23.9 69.7,23.9 69.7,85.7 			"/>
			<path fill="#FFFFFF" d="M66.2,27.4v54.8H54.9v-39l-13.5,39h-9.3L18.5,43.6v38.6H7V27.4h17.2L36.9,65l12.5-37.7H66.2 M73.2,20.4
				h-7H49.4h-5.1l-1.6,4.8L36.9,43l-6.1-17.9l-1.6-4.7h-5H7H0v7v54.8v7h7h11.5h7v-4.7l0,0.1l1.6,4.7h5h9.3h5l1.5-4.3v4.3h7h11.3h7
				v-7V27.4V20.4L73.2,20.4z"/>
		</g>
		<g>
			<path fill="#81C650" d="M72.4,85.7V23.9h27.1c7,0,12.6,1.8,16.9,5.2c4.5,3.6,6.7,9,6.7,15.9c0,6.8-2.2,12.1-6.7,15.8
				c-4.2,3.5-9.7,5.2-16.3,5.2h-8.8v19.7H72.4z M98.5,49.5c5.4,0,5.9-2.1,5.9-4.4c0-2.3-0.4-4.4-5.8-4.4h-7.3v8.8H98.5z"/>
			<path fill="#FFFFFF" d="M99.5,27.4c6.2,0,11,1.5,14.7,4.4c3.6,3,5.4,7.4,5.4,13.2c0,5.8-1.8,10.1-5.4,13.1
				c-3.6,3-8.3,4.4-14.1,4.4H87.8v19.7H75.9V27.4H99.5 M87.8,53h10.7c6.3,0,9.4-2.6,9.4-7.9c0-5.3-3.1-7.9-9.3-7.9H87.8V53
				 M99.5,20.4H75.9h-7v7v54.8v7h7h11.9h7v-7V69.5h5.3c7.4,0,13.7-2,18.5-6c3.6-3,7.9-8.6,7.9-18.5c0-10-4.4-15.7-8-18.6
				C113.8,22.4,107.3,20.4,99.5,20.4L99.5,20.4z M94.8,44.2h3.8c1.3,0,1.9,0.2,2.3,0.3c0,0.1,0,0.4,0,0.7c0,0.3,0,0.4,0,0.6
				c-0.3,0.1-1.1,0.3-2.4,0.3h-3.7V44.2L94.8,44.2z"/>
		</g>
	</g>
</g>
<rect x="90.5" y="43.8" fill="#FFFFFF" width="14" height="6"/>
</svg>
