<?xml version="1.0" encoding="utf-8"?>
<!-- Generator: Adobe Illustrator 17.1.0, SVG Export Plug-In . SVG Version: 6.00 Build 0)  -->
<!DOCTYPE svg PUBLIC "-//W3C//DTD SVG 1.1//EN" "http://www.w3.org/Graphics/SVG/1.1/DTD/svg11.dtd">
<svg version="1.1" id="Layer_1" xmlns="http://www.w3.org/2000/svg" xmlns:xlink="http://www.w3.org/1999/xlink" x="0px" y="0px"
	 viewBox="0 0 365.5 83.3" enable-background="new 0 0 365.5 83.3" xml:space="preserve">
<g>
	<polygon points="0.7,-2.8 0.7,44 69.5,44 89.3,-2.8 	"/>
	<polygon fill="#2E3135" points="87.6,-2.8 67.8,44 161.3,44 181.1,-2.8 	"/>
	<polygon points="179.5,-2.8 159.7,44 253.2,44 273,-2.8 	"/>
	<polygon fill="#2E3135" points="342.1,44 362.1,-2.8 271.3,-2.8 251.5,44 	"/>
	<rect x="-0.5" y="41.8" fill="#FFFFFF" width="366" height="11"/>
</g>
<g>
	<g>
		<path fill="#2E3135" d="M192.4,55.4c-0.1,0.5-0.3,0.9-0.7,1.1c-0.4,0.3-0.8,0.4-1.4,0.4c-0.4,0-0.7-0.1-1-0.2
			c-0.3-0.1-0.5-0.3-0.7-0.5c-0.2-0.2-0.3-0.4-0.4-0.7c-0.1-0.3-0.1-0.5-0.1-0.8v-2.2c0-0.2,0-0.5,0.1-0.7c0.1-0.2,0.2-0.5,0.4-0.6
			c0.2-0.2,0.4-0.3,0.7-0.5c0.3-0.1,0.6-0.2,1-0.2c0.3,0,0.6,0,0.8,0.1s0.4,0.2,0.6,0.3s0.3,0.3,0.4,0.5c0.1,0.2,0.2,0.4,0.2,0.6
			l-1.3,0.4c0-0.1,0-0.1-0.1-0.2c0-0.1-0.1-0.2-0.1-0.2c-0.1-0.1-0.1-0.1-0.2-0.2c-0.1,0-0.2-0.1-0.3-0.1c-0.1,0-0.3,0-0.3,0.1
			c-0.1,0-0.2,0.1-0.2,0.2s-0.1,0.1-0.1,0.2c0,0.1,0,0.2,0,0.2v2.3c0,0.2,0.1,0.4,0.2,0.6c0.1,0.2,0.3,0.2,0.6,0.2
			c0.2,0,0.4-0.1,0.5-0.2c0.1-0.1,0.2-0.3,0.3-0.5L192.4,55.4z"/>
		<path fill="#2E3135" d="M197.7,52.6c0,0.3,0,0.6-0.1,0.8s-0.2,0.5-0.4,0.6c-0.2,0.2-0.4,0.3-0.6,0.4c-0.3,0.1-0.5,0.1-0.9,0.1
			h-0.8v2.3h-1.4v-6.3h2.1c0.3,0,0.6,0,0.9,0.1c0.3,0.1,0.5,0.2,0.7,0.4c0.2,0.2,0.3,0.4,0.4,0.6C197.6,51.9,197.7,52.2,197.7,52.6z
			 M196.3,52.6c0-0.3-0.1-0.5-0.2-0.6c-0.1-0.1-0.3-0.2-0.6-0.2h-0.7v1.6h0.7c0.2,0,0.4-0.1,0.5-0.2S196.3,52.9,196.3,52.6z"/>
		<path fill="#2E3135" d="M198.6,56.9v-6.3h3.8v1.2H200v1.3h2.1v1.2H200v1.3h2.5v1.2H198.6z"/>
		<path fill="#2E3135" d="M204.2,56.9v1.3H203v-2.4l0.6-0.1c0.1-0.1,0.2-0.3,0.3-0.4s0.1-0.3,0.2-0.5c0-0.2,0.1-0.4,0.1-0.7
			s0-0.5,0-0.9l0.1-2.5h3.8v5.1h0.6v2.5h-1.1v-1.3H204.2z M205.4,53.4c0,0.2,0,0.4,0,0.6s0,0.4-0.1,0.6c0,0.2-0.1,0.4-0.1,0.6
			c0,0.2-0.1,0.3-0.2,0.4h1.7v-3.9h-1.2L205.4,53.4z"/>
		<path fill="#2E3135" d="M213.8,55.4c-0.1,0.5-0.3,0.9-0.7,1.1c-0.4,0.3-0.8,0.4-1.4,0.4c-0.4,0-0.7-0.1-1-0.2
			c-0.3-0.1-0.5-0.3-0.7-0.5c-0.2-0.2-0.3-0.4-0.4-0.7c-0.1-0.3-0.1-0.5-0.1-0.8v-2.2c0-0.2,0-0.5,0.1-0.7c0.1-0.2,0.2-0.5,0.4-0.6
			c0.2-0.2,0.4-0.3,0.7-0.5s0.6-0.2,1-0.2c0.3,0,0.6,0,0.8,0.1s0.4,0.2,0.6,0.3s0.3,0.3,0.4,0.5c0.1,0.2,0.2,0.4,0.2,0.6l-1.3,0.4
			c0-0.1,0-0.1-0.1-0.2c0-0.1-0.1-0.2-0.1-0.2c-0.1-0.1-0.1-0.1-0.2-0.2c-0.1,0-0.2-0.1-0.3-0.1c-0.1,0-0.3,0-0.3,0.1
			c-0.1,0-0.2,0.1-0.2,0.2s-0.1,0.1-0.1,0.2c0,0.1,0,0.2,0,0.2v2.3c0,0.2,0.1,0.4,0.2,0.6c0.1,0.2,0.3,0.2,0.6,0.2
			c0.2,0,0.4-0.1,0.5-0.2c0.1-0.1,0.2-0.3,0.3-0.5L213.8,55.4z"/>
		<path fill="#2E3135" d="M217.1,51.8v5.1h-1.4v-5.1h-1.4v-1.2h4.2v1.2H217.1z"/>
		<path fill="#2E3135" d="M223.6,55c0,0.3,0,0.6-0.1,0.8c-0.1,0.2-0.2,0.4-0.4,0.6s-0.4,0.3-0.6,0.4s-0.5,0.1-0.8,0.1h-2.2v-6.3h2.1
			c0.6,0,1.1,0.2,1.5,0.5s0.5,0.7,0.5,1.3c0,0.2-0.1,0.5-0.2,0.7c-0.1,0.2-0.3,0.4-0.6,0.5v0c0.2,0,0.3,0.1,0.4,0.2
			c0.1,0.1,0.2,0.2,0.3,0.3s0.1,0.3,0.2,0.4C223.6,54.7,223.6,54.8,223.6,55z M222.2,52.4c0-0.2-0.1-0.4-0.2-0.5
			c-0.1-0.1-0.3-0.2-0.5-0.2h-0.7v1.3h0.7c0.3,0,0.4-0.1,0.5-0.2C222.1,52.8,222.2,52.6,222.2,52.4z M222.2,54.9
			c0-0.2-0.1-0.4-0.2-0.5s-0.3-0.2-0.5-0.2h-0.8v1.4h0.8c0.3,0,0.5-0.1,0.6-0.2C222.2,55.3,222.2,55.1,222.2,54.9z"/>
		<path fill="#2E3135" d="M228.8,54.9c0,0.3-0.1,0.6-0.2,0.8c-0.1,0.2-0.2,0.5-0.4,0.6c-0.2,0.2-0.4,0.3-0.7,0.4
			c-0.3,0.1-0.5,0.1-0.8,0.1c-0.4,0-0.7-0.1-1-0.2c-0.3-0.1-0.5-0.3-0.7-0.5c-0.2-0.2-0.3-0.4-0.4-0.7s-0.1-0.5-0.1-0.8v-2.2
			c0-0.2,0-0.5,0.1-0.7c0.1-0.2,0.2-0.5,0.4-0.6c0.2-0.2,0.4-0.3,0.7-0.5s0.6-0.2,1-0.2c0.4,0,0.7,0.1,0.9,0.2s0.5,0.3,0.7,0.5
			c0.2,0.2,0.3,0.4,0.4,0.6c0.1,0.2,0.1,0.5,0.1,0.7V54.9z M227.4,52.5c0-0.1,0-0.1,0-0.2c0-0.1-0.1-0.2-0.1-0.2s-0.1-0.1-0.2-0.2
			c-0.1-0.1-0.2-0.1-0.3-0.1s-0.3,0-0.3,0.1c-0.1,0-0.2,0.1-0.2,0.2s-0.1,0.1-0.1,0.2c0,0.1,0,0.2,0,0.2v2.3c0,0.2,0.1,0.4,0.2,0.6
			c0.1,0.2,0.3,0.2,0.6,0.2c0.2,0,0.4-0.1,0.5-0.2s0.2-0.3,0.2-0.5V52.5z"/>
		<path fill="#2E3135" d="M233.3,56.9v1.3h-1.1v-2.4l0.6-0.1c0.1-0.1,0.2-0.3,0.3-0.4c0.1-0.2,0.1-0.3,0.2-0.5s0.1-0.4,0.1-0.7
			s0-0.5,0-0.9l0.1-2.5h3.8v5.1h0.6v2.5h-1.1v-1.3H233.3z M234.6,53.4c0,0.2,0,0.4,0,0.6s0,0.4-0.1,0.6s-0.1,0.4-0.1,0.6
			c0,0.2-0.1,0.3-0.2,0.4h1.7v-3.9h-1.2L234.6,53.4z"/>
		<path fill="#2E3135" d="M243.2,50.6v6.3h-1.4v-5h-1.1v1.9c0,0.5,0,0.9-0.1,1.2s-0.1,0.7-0.3,1c-0.1,0.3-0.3,0.5-0.6,0.7
			c-0.3,0.2-0.6,0.3-1,0.4l-0.3-1c0.2-0.1,0.4-0.2,0.6-0.3c0.1-0.1,0.2-0.3,0.3-0.4s0.1-0.4,0.1-0.6c0-0.2,0-0.5,0-0.8v-3.2H243.2z"
			/>
		<path fill="#2E3135" d="M248.7,50.6v6.3h-1.4v-2.5H247c-0.2,0-0.4,0.1-0.5,0.2c-0.1,0.1-0.2,0.4-0.3,0.7l-0.4,1.6h-1.4l0.4-1.9
			c0-0.2,0.1-0.4,0.2-0.6c0.1-0.2,0.3-0.3,0.5-0.4c-0.3-0.1-0.6-0.3-0.7-0.6c-0.1-0.3-0.2-0.6-0.2-1c0-0.3,0.1-0.6,0.2-0.8
			c0.1-0.2,0.2-0.4,0.4-0.6s0.4-0.3,0.6-0.4c0.2-0.1,0.5-0.1,0.8-0.1H248.7z M245.9,52.5c0,0.1,0,0.2,0.1,0.3s0.1,0.1,0.2,0.2
			s0.2,0.1,0.3,0.1c0.1,0,0.2,0,0.3,0h0.6v-1.3h-0.7C246.2,51.8,245.9,52,245.9,52.5z"/>
		<path fill="#2E3135" d="M254.6,53.7l0.4-1.4c0.1-0.3,0.2-0.6,0.2-0.9c0.1-0.3,0.2-0.6,0.2-0.9h1.3l-1.4,4.4c0,0.1-0.1,0.2-0.1,0.3
			c0,0.1-0.1,0.2-0.1,0.3c-0.1,0.3-0.2,0.5-0.3,0.6c-0.1,0.2-0.2,0.3-0.4,0.4s-0.3,0.2-0.5,0.2c-0.2,0-0.3,0.1-0.5,0.1h-0.5v-1.1
			h0.3c0.1,0,0.2,0,0.3-0.1c0.1,0,0.2-0.1,0.3-0.3c0,0,0-0.1,0-0.1c0,0,0-0.1,0-0.1l-1.8-4.7h1.4l0.5,1.7L254.6,53.7L254.6,53.7z"/>
		<path fill="#2E3135" d="M257.9,56.9v1.3h-1.1v-2.4l0.6-0.1c0.1-0.1,0.2-0.3,0.3-0.4c0.1-0.2,0.1-0.3,0.2-0.5s0.1-0.4,0.1-0.7
			s0-0.5,0-0.9l0.1-2.5h3.8v5.1h0.6v2.5h-1.1v-1.3H257.9z M259.2,53.4c0,0.2,0,0.4,0,0.6s0,0.4-0.1,0.6s-0.1,0.4-0.1,0.6
			c0,0.2-0.1,0.3-0.2,0.4h1.7v-3.9h-1.2L259.2,53.4z"/>
		<path fill="#2E3135" d="M266.3,55.6h-1.6c-0.1,0.2-0.1,0.4-0.2,0.6c-0.1,0.2-0.1,0.4-0.2,0.6h-1.4l1.9-6.3h1.4l1.9,6.3h-1.5
			L266.3,55.6z M265.2,53.5l-0.2,0.9h0.9l-0.2-0.9l-0.3-1.3h0L265.2,53.5z"/>
		<path fill="#2E3135" d="M273.2,50.6v6.3h-1.4v-5h-1.1v1.9c0,0.5,0,0.9-0.1,1.2s-0.1,0.7-0.3,1c-0.1,0.3-0.3,0.5-0.6,0.7
			c-0.3,0.2-0.6,0.3-1,0.4l-0.3-1c0.2-0.1,0.4-0.2,0.6-0.3c0.1-0.1,0.2-0.3,0.3-0.4s0.1-0.4,0.1-0.6c0-0.2,0-0.5,0-0.8v-3.2H273.2z"
			/>
		<path fill="#2E3135" d="M274.7,56.9v-6.3h3.8v1.2H276v1.3h2.1v1.2H276v1.3h2.5v1.2H274.7z"/>
		<path fill="#2E3135" d="M282.4,56.9v-2.6h-1.5v2.6h-1.4v-6.3h1.4v2.5h1.5v-2.5h1.4v6.3H282.4z"/>
		<path fill="#2E3135" d="M288.2,56.9v-3.4h0l-1.8,3.4h-1.3v-6.3h1.4v3.6h0l1.9-3.6h1.2v6.3H288.2z"/>
		<path fill="#2E3135" d="M295.1,50.6v6.3h-1.4v-2.5h-0.4c-0.2,0-0.4,0.1-0.5,0.2c-0.1,0.1-0.2,0.4-0.3,0.7l-0.4,1.6h-1.4l0.4-1.9
			c0-0.2,0.1-0.4,0.2-0.6c0.1-0.2,0.3-0.3,0.5-0.4c-0.3-0.1-0.6-0.3-0.7-0.6c-0.1-0.3-0.2-0.6-0.2-1c0-0.3,0.1-0.6,0.2-0.8
			c0.1-0.2,0.2-0.4,0.4-0.6s0.4-0.3,0.6-0.4c0.2-0.1,0.5-0.1,0.8-0.1H295.1z M292.2,52.5c0,0.1,0,0.2,0.1,0.3s0.1,0.1,0.2,0.2
			s0.2,0.1,0.3,0.1c0.1,0,0.2,0,0.3,0h0.6v-1.3H293C292.5,51.8,292.2,52,292.2,52.5z"/>
		<path fill="#2E3135" d="M303.1,54.9c0,0.3-0.1,0.6-0.2,0.8c-0.1,0.2-0.2,0.5-0.4,0.6c-0.2,0.2-0.4,0.3-0.7,0.4
			c-0.3,0.1-0.5,0.1-0.8,0.1c-0.4,0-0.7-0.1-1-0.2c-0.3-0.1-0.5-0.3-0.7-0.5c-0.2-0.2-0.3-0.4-0.4-0.7c-0.1-0.3-0.1-0.5-0.1-0.8
			v-2.2c0-0.2,0-0.5,0.1-0.7c0.1-0.2,0.2-0.5,0.4-0.6c0.2-0.2,0.4-0.3,0.7-0.5s0.6-0.2,1-0.2c0.4,0,0.7,0.1,0.9,0.2s0.5,0.3,0.7,0.5
			c0.2,0.2,0.3,0.4,0.4,0.6c0.1,0.2,0.1,0.5,0.1,0.7V54.9z M301.7,52.5c0-0.1,0-0.1,0-0.2c0-0.1-0.1-0.2-0.1-0.2s-0.1-0.1-0.2-0.2
			c-0.1-0.1-0.2-0.1-0.3-0.1s-0.3,0-0.3,0.1c-0.1,0-0.2,0.1-0.2,0.2s-0.1,0.1-0.1,0.2c0,0.1,0,0.2,0,0.2v2.3c0,0.2,0.1,0.4,0.2,0.6
			c0.1,0.2,0.3,0.2,0.6,0.2c0.2,0,0.4-0.1,0.5-0.2s0.2-0.3,0.2-0.5V52.5z"/>
		<path fill="#2E3135" d="M304.3,56.9v-6.3h1.4v2.5h0.3c0.1,0,0.2,0,0.3,0c0.1,0,0.2-0.1,0.3-0.1c0.1-0.1,0.2-0.2,0.2-0.3
			c0.1-0.1,0.1-0.3,0.2-0.4l0.4-1.6h1.3l-0.5,1.9c-0.1,0.3-0.2,0.6-0.3,0.8c-0.2,0.2-0.3,0.3-0.5,0.4c0.3,0.1,0.5,0.2,0.6,0.4
			c0.1,0.2,0.3,0.4,0.3,0.7l0.5,2.1h-1.4l-0.4-1.7c-0.1-0.3-0.2-0.6-0.4-0.7c-0.1-0.1-0.3-0.2-0.6-0.2h-0.4v2.6H304.3z"/>
		<path fill="#2E3135" d="M312.8,56.9v-3.4h0l-1.8,3.4h-1.3v-6.3h1.4v3.6h0l1.9-3.6h1.2v6.3H312.8z"/>
		<path fill="#2E3135" d="M319.6,55.4c-0.1,0.5-0.3,0.9-0.7,1.1c-0.4,0.3-0.8,0.4-1.4,0.4c-0.4,0-0.7-0.1-1-0.2
			c-0.3-0.1-0.5-0.3-0.7-0.5c-0.2-0.2-0.3-0.4-0.4-0.7c-0.1-0.3-0.1-0.5-0.1-0.8v-2.2c0-0.2,0-0.5,0.1-0.7c0.1-0.2,0.2-0.5,0.4-0.6
			c0.2-0.2,0.4-0.3,0.7-0.5s0.6-0.2,1-0.2c0.3,0,0.6,0,0.8,0.1c0.2,0.1,0.4,0.2,0.6,0.3c0.2,0.1,0.3,0.3,0.4,0.5
			c0.1,0.2,0.2,0.4,0.2,0.6l-1.3,0.4c0-0.1,0-0.1-0.1-0.2c0-0.1-0.1-0.2-0.1-0.2c-0.1-0.1-0.1-0.1-0.2-0.2c-0.1,0-0.2-0.1-0.3-0.1
			c-0.1,0-0.3,0-0.3,0.1c-0.1,0-0.2,0.1-0.2,0.2s-0.1,0.1-0.1,0.2c0,0.1,0,0.2,0,0.2v2.3c0,0.2,0.1,0.4,0.2,0.6
			c0.1,0.2,0.3,0.2,0.6,0.2c0.2,0,0.4-0.1,0.5-0.2c0.1-0.1,0.2-0.3,0.3-0.5L319.6,55.4z"/>
		<path fill="#2E3135" d="M324.9,50.6v6.3h-1.4v-5h-1.1v1.9c0,0.5,0,0.9-0.1,1.2s-0.1,0.7-0.3,1c-0.1,0.3-0.3,0.5-0.6,0.7
			c-0.3,0.2-0.6,0.3-1,0.4l-0.3-1c0.2-0.1,0.4-0.2,0.6-0.3c0.1-0.1,0.2-0.3,0.3-0.4s0.1-0.4,0.1-0.6c0-0.2,0-0.5,0-0.8v-3.2H324.9z"
			/>
		<path fill="#2E3135" d="M330.4,54.9c0,0.3-0.1,0.6-0.2,0.8c-0.1,0.2-0.2,0.5-0.4,0.6c-0.2,0.2-0.4,0.3-0.7,0.4
			c-0.3,0.1-0.5,0.1-0.8,0.1c-0.4,0-0.7-0.1-1-0.2c-0.3-0.1-0.5-0.3-0.7-0.5c-0.2-0.2-0.3-0.4-0.4-0.7c-0.1-0.3-0.1-0.5-0.1-0.8
			v-2.2c0-0.2,0-0.5,0.1-0.7c0.1-0.2,0.2-0.5,0.4-0.6c0.2-0.2,0.4-0.3,0.7-0.5s0.6-0.2,1-0.2c0.4,0,0.7,0.1,0.9,0.2s0.5,0.3,0.7,0.5
			c0.2,0.2,0.3,0.4,0.4,0.6c0.1,0.2,0.1,0.5,0.1,0.7V54.9z M329,52.5c0-0.1,0-0.1,0-0.2c0-0.1-0.1-0.2-0.1-0.2s-0.1-0.1-0.2-0.2
			c-0.1-0.1-0.2-0.1-0.3-0.1s-0.3,0-0.3,0.1c-0.1,0-0.2,0.1-0.2,0.2s-0.1,0.1-0.1,0.2c0,0.1,0,0.2,0,0.2v2.3c0,0.2,0.1,0.4,0.2,0.6
			c0.1,0.2,0.3,0.2,0.6,0.2c0.2,0,0.4-0.1,0.5-0.2s0.2-0.3,0.2-0.5V52.5z"/>
		<path fill="#2E3135" d="M335.8,55c0,0.3,0,0.6-0.1,0.8c-0.1,0.2-0.2,0.4-0.4,0.6s-0.4,0.3-0.6,0.4s-0.5,0.1-0.8,0.1h-2.2v-6.3h2.1
			c0.6,0,1.1,0.2,1.5,0.5s0.5,0.7,0.5,1.3c0,0.2-0.1,0.5-0.2,0.7c-0.1,0.2-0.3,0.4-0.6,0.5v0c0.2,0,0.3,0.1,0.4,0.2
			c0.1,0.1,0.2,0.2,0.3,0.3c0.1,0.1,0.1,0.3,0.2,0.4C335.8,54.7,335.8,54.8,335.8,55z M334.4,52.4c0-0.2-0.1-0.4-0.2-0.5
			c-0.1-0.1-0.3-0.2-0.5-0.2H333v1.3h0.7c0.3,0,0.4-0.1,0.5-0.2C334.3,52.8,334.4,52.6,334.4,52.4z M334.5,54.9
			c0-0.2-0.1-0.4-0.2-0.5s-0.3-0.2-0.5-0.2H333v1.4h0.8c0.3,0,0.5-0.1,0.6-0.2C334.4,55.3,334.5,55.1,334.5,54.9z"/>
	</g>
</g>
<g>
	<g>
		<path fill="#FFFFFF" d="M224.3,38.3c0,0.6-0.1,1.2-0.3,1.7c-0.2,0.5-0.5,1-0.9,1.3s-0.8,0.6-1.3,0.8c-0.5,0.2-1.1,0.3-1.7,0.3
			c-0.7,0-1.4-0.1-1.9-0.4c-0.5-0.2-1-0.6-1.3-1c-0.3-0.4-0.6-0.9-0.7-1.4s-0.2-1.1-0.2-1.7v-4.6c0-0.5,0.1-1,0.2-1.5
			c0.2-0.5,0.4-0.9,0.7-1.3s0.8-0.7,1.3-1s1.2-0.4,1.9-0.4c0.7,0,1.3,0.1,1.8,0.4c0.5,0.2,1,0.6,1.3,1c0.3,0.4,0.6,0.8,0.8,1.3
			c0.2,0.5,0.3,1,0.3,1.5V38.3z M221.5,33.3c0-0.1,0-0.3-0.1-0.4c0-0.2-0.1-0.3-0.2-0.5s-0.3-0.3-0.4-0.4c-0.2-0.1-0.4-0.2-0.7-0.2
			s-0.5,0-0.7,0.1c-0.2,0.1-0.3,0.2-0.5,0.4c-0.1,0.1-0.2,0.3-0.3,0.5c-0.1,0.2-0.1,0.3-0.1,0.5v4.8c0,0.5,0.1,0.9,0.3,1.2
			s0.6,0.5,1.1,0.5c0.4,0,0.7-0.1,1-0.4c0.3-0.2,0.4-0.6,0.4-1V33.3z"/>
		<path fill="#FFFFFF" d="M228.2,42.4h-3.1l3.5-6.7l-3.3-6.3h3.1c0.3,0.6,0.5,1.2,0.8,1.8s0.5,1.2,0.8,1.8l1.7-3.6h3.1l-3.4,6.3
			l3.6,6.7H232l-1.9-4L228.2,42.4z"/>
		<path fill="#FFFFFF" d="M236.4,42.4v-13h2.7v13H236.4z"/>
		<path fill="#FFFFFF" d="M245.6,29.4c0.9,0,1.6,0.2,2.2,0.5c0.6,0.3,1.1,0.9,1.4,1.6c0.2,0.4,0.3,1,0.3,1.6s0,1.4,0,2.1
			c0,1.1,0,2.1,0,2.9c0,0.8-0.1,1.5-0.3,2c-0.2,0.4-0.4,0.8-0.6,1.1c-0.3,0.3-0.6,0.5-0.9,0.7c-0.3,0.2-0.7,0.3-1.1,0.4
			c-0.4,0.1-0.8,0.1-1.2,0.1h-4.1v-13H245.6z M246.9,34.8c0-0.4,0-0.7-0.1-1.1c0-0.3-0.1-0.7-0.2-0.9c-0.1-0.3-0.3-0.5-0.5-0.6
			s-0.5-0.2-0.9-0.2H244v8h1.1c0.7,0,1.1-0.2,1.4-0.5c0.2-0.3,0.3-0.8,0.3-1.4V34.8z"/>
		<path fill="#FFFFFF" d="M251.6,42.4v-13h7.6v2.5h-4.9v2.7h4.2V37h-4.2v2.8h4.9v2.6H251.6z"/>
		<path fill="#FFFFFF" d="M271,42.4l-1.7-5.1h-1.1v5.1h-2.7v-13h4.3c0.5,0,1.1,0.1,1.6,0.2s0.9,0.4,1.3,0.7c0.4,0.3,0.7,0.7,0.9,1.2
			c0.2,0.5,0.3,1.1,0.3,1.7c0,0.8-0.2,1.6-0.5,2.1s-0.8,1.1-1.4,1.4l2.1,5.6H271z M271.2,33.2c0-0.5-0.1-0.9-0.4-1.1
			c-0.3-0.2-0.6-0.3-1.1-0.3h-1.5v2.9h1.5c0.4,0,0.8-0.1,1.1-0.3C271,34.2,271.2,33.8,271.2,33.2z"/>
		<path fill="#FFFFFF" d="M275.7,42.4v-13h7.6v2.5h-4.9v2.7h4.2V37h-4.2v2.8h4.9v2.6H275.7z"/>
		<path fill="#FFFFFF" d="M292.8,42.4v-6.1l-0.1,0l-0.9,2.3l-0.7,1.7h-1.9l-0.7-1.8l-0.9-2.2l-0.1,0v6.1h-2.7v-13h2.5l1.5,3.6
			l1.3,3.2h0.1l1.3-3.3l1.5-3.6h2.5v13H292.8z"/>
		<path fill="#FFFFFF" d="M305.6,38.3c0,0.6-0.1,1.2-0.3,1.7c-0.2,0.5-0.5,1-0.9,1.3s-0.8,0.6-1.3,0.8c-0.5,0.2-1.1,0.3-1.7,0.3
			c-0.7,0-1.4-0.1-1.9-0.4c-0.5-0.2-1-0.6-1.3-1c-0.3-0.4-0.6-0.9-0.7-1.4c-0.2-0.5-0.2-1.1-0.2-1.7v-4.6c0-0.5,0.1-1,0.2-1.5
			c0.1-0.5,0.4-0.9,0.7-1.3s0.8-0.7,1.3-1s1.2-0.4,1.9-0.4c0.7,0,1.3,0.1,1.8,0.4c0.5,0.2,1,0.6,1.3,1c0.3,0.4,0.6,0.8,0.8,1.3
			c0.2,0.5,0.3,1,0.3,1.5V38.3z M302.9,33.3c0-0.1,0-0.3-0.1-0.4c0-0.2-0.1-0.3-0.2-0.5c-0.1-0.1-0.3-0.3-0.4-0.4
			c-0.2-0.1-0.4-0.2-0.7-0.2c-0.3,0-0.5,0-0.7,0.1c-0.2,0.1-0.3,0.2-0.5,0.4c-0.1,0.1-0.2,0.3-0.3,0.5c-0.1,0.2-0.1,0.3-0.1,0.5v4.8
			c0,0.5,0.1,0.9,0.3,1.2s0.6,0.5,1.1,0.5c0.4,0,0.7-0.1,1-0.4c0.3-0.2,0.4-0.6,0.4-1V33.3z"/>
		<path fill="#FFFFFF" d="M312.7,42.4H310l-3.5-13h2.9l1.2,5.4l0.7,3.6h0.1l0.7-3.5l1.2-5.5h2.9L312.7,42.4z"/>
		<path fill="#FFFFFF" d="M317.4,42.4v-13h7.6v2.5h-4.9v2.7h4.2V37h-4.2v2.8h4.9v2.6H317.4z"/>
		<path fill="#FFFFFF" d="M332.2,42.4l-1.7-5.1h-1.1v5.1h-2.7v-13h4.3c0.5,0,1.1,0.1,1.6,0.2s0.9,0.4,1.3,0.7
			c0.4,0.3,0.7,0.7,0.9,1.2c0.2,0.5,0.3,1.1,0.3,1.7c0,0.8-0.2,1.6-0.5,2.1s-0.8,1.1-1.4,1.4l2.1,5.6H332.2z M332.3,33.2
			c0-0.5-0.1-0.9-0.4-1.1c-0.3-0.2-0.6-0.3-1.1-0.3h-1.5v2.9h1.5c0.4,0,0.8-0.1,1.1-0.3C332.1,34.2,332.3,33.8,332.3,33.2z"/>
	</g>
</g>
<rect x="90.5" y="43.8" fill="#FFFFFF" width="14" height="6"/>
<g>
	<g>
		<path fill="#007538" d="M30.8,85.2c-8.5,0-15.4-2.8-20.6-8.4c-5.2-5.5-7.8-12.8-7.8-21.6c0-8.9,2.6-16.2,7.8-21.7
			c5.2-5.6,12.2-8.4,20.8-8.4c8.4,0,15.3,2.8,20.5,8.5c5.2,5.5,7.8,12.8,7.8,21.6c0,8.8-2.6,16.1-7.8,21.6
			C46.1,82.4,39.2,85.2,30.8,85.2z M30.7,40.5c-3.3,0-5.9,1.2-7.8,3.6c-2.1,2.6-3.2,6.3-3.2,11c0,4.8,1,8.6,3.1,11.2
			c1.9,2.4,4.6,3.6,8,3.7c3.3,0,5.9-1.2,7.7-3.6c2-2.6,3.1-6.4,3.1-11.2c0-4.7-1-8.4-3.1-11C36.6,41.7,34,40.5,30.7,40.5z"/>
		<path fill="#FFFFFF" d="M30.8,28.2c7.5,0,13.6,2.5,18.3,7.5c4.7,5,7,11.5,7,19.6c0,8.1-2.3,14.6-7,19.5c-4.7,5-10.8,7.4-18.4,7.4
			c-7.6,0-13.8-2.5-18.5-7.4c-4.7-4.9-7-11.5-7-19.5c0-8.2,2.3-14.7,7-19.7C16.9,30.7,23.1,28.2,30.8,28.2 M30.8,72.9
			c4.3,0,7.7-1.6,10.1-4.8c2.5-3.2,3.7-7.5,3.7-13c0-5.4-1.3-9.7-3.8-12.9c-2.5-3.2-5.9-4.7-10.2-4.7c-4.2,0-7.6,1.6-10.2,4.8
			c-2.5,3.2-3.8,7.5-3.8,12.8c0,5.6,1.3,9.9,3.8,13C23,71.3,26.4,72.8,30.8,72.9 M30.8,22.2c-9.4,0-17.1,3.1-22.9,9.3
			c-5.7,6.1-8.6,14.1-8.6,23.8c0,9.6,2.9,17.6,8.7,23.6c5.8,6.2,13.5,9.3,22.8,9.3c9.3,0,16.9-3.1,22.7-9.3c5.7-6.1,8.6-14,8.6-23.6
			c0-9.6-2.9-17.6-8.6-23.7C47.7,25.4,40.1,22.2,30.8,22.2L30.8,22.2z M30.9,66.9c-3.3,0-4.8-1.4-5.7-2.5c-1.6-2-2.5-5.2-2.5-9.3
			c0-3.9,0.8-7,2.5-9.1c1.4-1.8,3-2.5,5.5-2.5c2.5,0,4.2,0.8,5.5,2.5c1.6,2.1,2.5,5.1,2.5,9.1c0,4.1-0.8,7.3-2.4,9.4
			C34.9,66.2,33.3,66.9,30.9,66.9L30.9,66.9z"/>
	</g>
	<g>
		<path fill="#007538" d="M109.2,84H95.6l-0.8-1.7c-0.5-1.1-0.9-2.3-1.1-3.8c-0.2-1.3-0.4-2.8-0.5-4.8c-0.2-2.1-0.2-2.8-0.2-3.1
			c-0.4-3.7-1.3-5.1-1.8-5.6c-0.4-0.4-1.7-1.2-5.5-1.2h-7.1V84H61.3V26.4h28.6c5.8,0,10.6,1.4,14.3,4.2c4,3,6.1,7.5,6.1,13.4
			c0,3.6-0.9,6.8-2.7,9.5c-0.7,1.1-1.6,2.2-2.6,3c2.2,2.2,4.1,5.8,4.6,11.9l0,0.1v0.1c0,0,0,0.4,0.1,2c0.1,1.2,0.2,2.2,0.3,2.9
			c0.1,0.7,0.2,1.6,0.4,2.7c0.1,1,0.3,1.6,0.5,2c0.1,0.4,0.3,0.5,0.3,0.5l6,5.3L109.2,84z M86.2,49.6c2.6,0,4.6-0.4,5.9-1.1
			c0.7-0.4,1.1-1.5,1.1-3.2c0-2.3-0.8-2.7-1-2.9c-1.3-0.7-3.1-1.1-5.4-1.1h-8.2v8.3H86.2z"/>
		<path fill="#FFFFFF" d="M89.9,29.4c5.1,0,9.3,1.2,12.5,3.6c3.2,2.4,4.9,6.1,4.9,11c0,3-0.7,5.6-2.2,7.9c-1.4,2.2-3.5,3.9-6,4.8
			c4.4,0.9,7,4.9,7.6,12c0,0.2,0,1,0.1,2.2c0.1,1.3,0.2,2.3,0.3,3c0.1,0.7,0.2,1.7,0.4,2.7c0.1,1.1,0.4,2,0.7,2.7
			c0.3,0.7,0.6,1.3,1,1.6H97.5c-0.4-0.8-0.7-1.8-0.9-2.9c-0.2-1.2-0.4-2.7-0.5-4.6c-0.1-1.9-0.2-2.9-0.2-3.1
			c-0.4-3.6-1.3-6.1-2.7-7.5c-1.4-1.4-3.9-2.1-7.6-2.1H75.5V81H64.3V29.4H89.9 M75.5,52.6h10.7c3.1,0,5.6-0.5,7.4-1.5
			c1.8-1,2.6-2.9,2.6-5.8c0-2.7-0.9-4.5-2.6-5.5c-1.7-1-4-1.4-6.9-1.4H75.5V52.6 M89.9,23.4H64.3h-6v6V81v6h6h11.2h6v-6V66.8h4.1
			c2.2,0,3.1,0.3,3.4,0.4c0.2,0.3,0.6,1.3,0.9,3.6c0,0.4,0.1,1.2,0.2,3.1c0.2,2.1,0.3,3.7,0.6,5.1c0.3,1.8,0.8,3.3,1.4,4.7l1.7,3.3
			h3.7h11.7h16L113.7,77c-0.1-0.2-0.1-0.5-0.2-1c-0.1-1-0.3-1.9-0.4-2.7c-0.1-0.6-0.2-1.5-0.3-2.7c-0.1-1.3-0.1-1.7-0.1-1.8v-0.2
			l0-0.3c-0.5-5.2-1.8-8.9-3.6-11.5c0.4-0.5,0.7-1,1.1-1.5c2.1-3.2,3.1-7,3.1-11.1c0-8.6-3.9-13.3-7.3-15.8
			C101.8,25.1,96.3,23.4,89.9,23.4L89.9,23.4z M81.5,44.3h5.2c1.8,0,2.9,0.2,3.5,0.5c0,0.1,0,0.3,0,0.5c0,0.4,0,0.6-0.1,0.8
			c-0.6,0.2-1.8,0.5-3.9,0.5h-4.7V44.3L81.5,44.3z"/>
	</g>
</g>
</svg>
