<?xml version="1.0" encoding="utf-8"?>
<!-- Generator: Adobe Illustrator 17.1.0, SVG Export Plug-In . SVG Version: 6.00 Build 0)  -->
<!DOCTYPE svg PUBLIC "-//W3C//DTD SVG 1.1//EN" "http://www.w3.org/Graphics/SVG/1.1/DTD/svg11.dtd">
<svg version="1.1" id="Layer_1" xmlns="http://www.w3.org/2000/svg" xmlns:xlink="http://www.w3.org/1999/xlink" x="0px" y="0px"
	 viewBox="0 0 365.5 83.3" enable-background="new 0 0 365.5 83.3" xml:space="preserve">
<g>
	<polygon points="0.7,-2.8 0.7,44 69.5,44 89.3,-2.8 	"/>
	<polygon fill="#2E3135" points="87.6,-2.8 67.8,44 161.3,44 181.1,-2.8 	"/>
	<polygon points="179.5,-2.8 159.7,44 253.2,44 273,-2.8 	"/>
	<polygon fill="#2E3135" points="342.1,44 362.1,-2.8 271.3,-2.8 251.5,44 	"/>
	<rect x="-5.5" y="41.8" fill="#FFFFFF" width="376" height="11"/>
</g>
<rect x="90.5" y="43.8" fill="#FFFFFF" width="14" height="6"/>
<g>
	<g>
		<path fill="#2E3135" d="M193.3,56.9v-6.3h3.7v1.2h-2.3V53h0.8c0.3,0,0.6,0,0.9,0.1c0.3,0.1,0.5,0.2,0.6,0.4s0.3,0.4,0.4,0.6
			c0.1,0.2,0.1,0.5,0.1,0.8c0,0.3,0,0.6-0.1,0.9s-0.2,0.5-0.4,0.6c-0.2,0.2-0.4,0.3-0.7,0.4s-0.5,0.1-0.8,0.1H193.3z M195.4,55.7
			c0.3,0,0.4-0.1,0.6-0.2s0.2-0.3,0.2-0.6c0-0.3-0.1-0.5-0.2-0.6c-0.1-0.1-0.3-0.2-0.6-0.2h-0.8v1.5H195.4z"/>
		<path fill="#2E3135" d="M198.5,56.9v-6.3h3.8v1.2h-2.5v1.3h2.1v1.2h-2.1v1.3h2.5v1.2H198.5z"/>
		<path fill="#2E3135" d="M203.1,55.4c0.2-0.1,0.4-0.1,0.7-0.2c0.2-0.1,0.4-0.1,0.7-0.2c0,0.2,0.1,0.4,0.3,0.5
			c0.1,0.1,0.3,0.2,0.5,0.2c0.1,0,0.2,0,0.3-0.1c0.1,0,0.2-0.1,0.2-0.2c0.1-0.1,0.1-0.2,0.1-0.2s0-0.2,0-0.3c0-0.1,0-0.2,0-0.3
			c0-0.1-0.1-0.2-0.1-0.2s-0.1-0.1-0.2-0.2s-0.2-0.1-0.4-0.1h-0.5v-1.1h0.5c0.2,0,0.4-0.1,0.5-0.2c0.1-0.1,0.2-0.3,0.2-0.5
			c0-0.1,0-0.1,0-0.2c0-0.1-0.1-0.1-0.1-0.2c0-0.1-0.1-0.1-0.2-0.1c-0.1,0-0.2-0.1-0.3-0.1c-0.2,0-0.4,0.1-0.5,0.2s-0.2,0.3-0.3,0.5
			l-1.2-0.5c0.1-0.4,0.4-0.8,0.7-1.1c0.4-0.3,0.8-0.4,1.4-0.4c0.6,0,1.1,0.2,1.5,0.5s0.5,0.7,0.5,1.3c0,0.1,0,0.2,0,0.3
			s-0.1,0.3-0.1,0.4c0,0.1-0.1,0.2-0.2,0.4c-0.1,0.1-0.2,0.2-0.4,0.3v0c0.2,0,0.3,0.1,0.4,0.2c0.1,0.1,0.2,0.2,0.2,0.3
			c0.1,0.1,0.1,0.3,0.1,0.4c0,0.1,0,0.3,0,0.4c0,0.3-0.1,0.6-0.2,0.9s-0.3,0.4-0.5,0.6c-0.2,0.2-0.4,0.3-0.7,0.3
			c-0.3,0.1-0.5,0.1-0.8,0.1c-0.6,0-1.1-0.1-1.4-0.4C203.5,56.2,203.2,55.8,203.1,55.4z"/>
		<path fill="#2E3135" d="M212.5,54.9c0,0.3-0.1,0.6-0.2,0.8c-0.1,0.2-0.2,0.5-0.4,0.6s-0.4,0.3-0.7,0.4c-0.3,0.1-0.5,0.1-0.8,0.1
			c-0.4,0-0.7-0.1-1-0.2c-0.3-0.1-0.5-0.3-0.7-0.5c-0.2-0.2-0.3-0.4-0.4-0.7s-0.1-0.5-0.1-0.8v-2.2c0-0.2,0-0.5,0.1-0.7
			c0.1-0.2,0.2-0.5,0.4-0.6c0.2-0.2,0.4-0.3,0.7-0.5s0.6-0.2,1-0.2c0.4,0,0.7,0.1,0.9,0.2s0.5,0.3,0.7,0.5c0.2,0.2,0.3,0.4,0.4,0.6
			c0.1,0.2,0.1,0.5,0.1,0.7V54.9z M211.1,52.5c0-0.1,0-0.1,0-0.2c0-0.1-0.1-0.2-0.1-0.2s-0.1-0.1-0.2-0.2c-0.1-0.1-0.2-0.1-0.3-0.1
			c-0.1,0-0.3,0-0.3,0.1c-0.1,0-0.2,0.1-0.2,0.2c-0.1,0.1-0.1,0.1-0.1,0.2c0,0.1,0,0.2,0,0.2v2.3c0,0.2,0.1,0.4,0.2,0.6
			c0.1,0.2,0.3,0.2,0.6,0.2c0.2,0,0.4-0.1,0.5-0.2s0.2-0.3,0.2-0.5V52.5z"/>
		<path fill="#2E3135" d="M216.5,56.9v-5h-1.4v5h-1.4v-6.3h4.1v6.3H216.5z"/>
		<path fill="#2E3135" d="M222.1,55.6h-1.6c-0.1,0.2-0.1,0.4-0.2,0.6c-0.1,0.2-0.1,0.4-0.2,0.6h-1.4l1.9-6.3h1.4l1.9,6.3h-1.5
			L222.1,55.6z M221,53.5l-0.2,0.9h0.9l-0.2-0.9l-0.3-1.3h0L221,53.5z"/>
		<path fill="#2E3135" d="M228.8,55.4c-0.1,0.5-0.3,0.9-0.7,1.1c-0.4,0.3-0.8,0.4-1.4,0.4c-0.4,0-0.7-0.1-1-0.2
			c-0.3-0.1-0.5-0.3-0.7-0.5c-0.2-0.2-0.3-0.4-0.4-0.7c-0.1-0.3-0.1-0.5-0.1-0.8v-2.2c0-0.2,0-0.5,0.1-0.7c0.1-0.2,0.2-0.5,0.4-0.6
			c0.2-0.2,0.4-0.3,0.7-0.5s0.6-0.2,1-0.2c0.3,0,0.6,0,0.8,0.1s0.4,0.2,0.6,0.3s0.3,0.3,0.4,0.5c0.1,0.2,0.2,0.4,0.2,0.6l-1.3,0.4
			c0-0.1,0-0.1-0.1-0.2c0-0.1-0.1-0.2-0.1-0.2c-0.1-0.1-0.1-0.1-0.2-0.2c-0.1,0-0.2-0.1-0.3-0.1c-0.1,0-0.3,0-0.3,0.1
			c-0.1,0-0.2,0.1-0.2,0.2s-0.1,0.1-0.1,0.2c0,0.1,0,0.2,0,0.2v2.3c0,0.2,0.1,0.4,0.2,0.6c0.1,0.2,0.3,0.2,0.6,0.2
			c0.2,0,0.4-0.1,0.5-0.2c0.1-0.1,0.2-0.3,0.3-0.5L228.8,55.4z"/>
		<path fill="#2E3135" d="M232.7,56.9v-2.6h-1.5v2.6h-1.4v-6.3h1.4v2.5h1.5v-2.5h1.4v6.3H232.7z"/>
		<path fill="#2E3135" d="M235.4,56.9v-6.3h1.4V53h0.8c0.3,0,0.6,0,0.9,0.1c0.3,0.1,0.5,0.2,0.6,0.4s0.3,0.4,0.4,0.6
			c0.1,0.2,0.1,0.5,0.1,0.8c0,0.3,0,0.6-0.1,0.9c-0.1,0.2-0.2,0.5-0.4,0.6s-0.4,0.3-0.7,0.4s-0.5,0.1-0.8,0.1H235.4z M237.6,55.7
			c0.3,0,0.4-0.1,0.6-0.2c0.1-0.1,0.2-0.3,0.2-0.6c0-0.3-0.1-0.5-0.2-0.6c-0.1-0.1-0.3-0.2-0.6-0.2h-0.8v1.5H237.6z M240.2,56.9
			v-6.3h1.4v6.3H240.2z"/>
		<path fill="#2E3135" d="M246.1,56.9v-3.4h0l-1.8,3.4h-1.3v-6.3h1.4v3.6h0l1.9-3.6h1.2v6.3H246.1z M245.3,50.3
			c-0.3,0-0.5-0.1-0.7-0.2c-0.2-0.1-0.3-0.2-0.5-0.4c-0.1-0.2-0.2-0.3-0.3-0.5c-0.1-0.2-0.1-0.3-0.1-0.5h1c0,0.1,0,0.1,0,0.2
			c0,0.1,0.1,0.1,0.1,0.2c0,0.1,0.1,0.1,0.2,0.2s0.1,0.1,0.2,0.1c0.1,0,0.2,0,0.2-0.1s0.1-0.1,0.2-0.2c0-0.1,0.1-0.1,0.1-0.2
			c0-0.1,0-0.1,0-0.2h1c0,0.2,0,0.3-0.1,0.5c-0.1,0.2-0.1,0.3-0.3,0.5c-0.1,0.2-0.3,0.3-0.5,0.4C245.8,50.3,245.5,50.3,245.3,50.3z"
			/>
		<path fill="#2E3135" d="M252.4,53.1h1.5v-0.6c0-0.1,0-0.1,0-0.2c0-0.1,0-0.2-0.1-0.2c0-0.1-0.1-0.1-0.2-0.2s-0.2-0.1-0.4-0.1
			c-0.1,0-0.2,0-0.3,0.1c-0.1,0.1-0.2,0.1-0.2,0.2c-0.1,0.1-0.1,0.1-0.2,0.2c0,0.1-0.1,0.2-0.1,0.2l-1.3-0.4c0-0.2,0.1-0.4,0.2-0.6
			c0.1-0.2,0.2-0.4,0.4-0.5c0.2-0.1,0.4-0.3,0.6-0.3s0.5-0.1,0.8-0.1c0.4,0,0.7,0.1,1,0.2s0.5,0.3,0.6,0.5c0.2,0.2,0.3,0.4,0.3,0.6
			c0.1,0.2,0.1,0.5,0.1,0.7v2.2c0,0.3,0,0.6-0.1,0.8c-0.1,0.3-0.2,0.5-0.4,0.7c-0.2,0.2-0.4,0.3-0.7,0.5c-0.3,0.1-0.6,0.2-1,0.2
			c-0.5,0-1-0.1-1.4-0.4c-0.4-0.3-0.6-0.7-0.7-1.1l1.3-0.4c0,0.2,0.1,0.4,0.3,0.5c0.1,0.1,0.3,0.2,0.5,0.2c0.3,0,0.5-0.1,0.6-0.2
			s0.2-0.4,0.2-0.6v-0.6h-1.5V53.1z"/>
		<path fill="#2E3135" d="M260.8,50.6v6.3h-1.4v-5h-1.1v1.9c0,0.5,0,0.9-0.1,1.2s-0.1,0.7-0.3,1c-0.1,0.3-0.3,0.5-0.6,0.7
			c-0.3,0.2-0.6,0.3-1,0.4l-0.3-1c0.2-0.1,0.4-0.2,0.6-0.3c0.1-0.1,0.2-0.3,0.3-0.4s0.1-0.4,0.1-0.6c0-0.2,0-0.5,0-0.8v-3.2H260.8z"
			/>
		<path fill="#2E3135" d="M262.2,56.9v-6.3h3.8v1.2h-2.5v1.3h2.1v1.2h-2.1v1.3h2.5v1.2H262.2z"/>
		<path fill="#2E3135" d="M267.1,56.9v-6.3h1.4v2.5h0.3c0.1,0,0.2,0,0.3,0c0.1,0,0.2-0.1,0.3-0.1c0.1-0.1,0.2-0.2,0.2-0.3
			c0.1-0.1,0.1-0.3,0.2-0.4l0.4-1.6h1.3l-0.5,1.9c-0.1,0.3-0.2,0.6-0.3,0.8c-0.2,0.2-0.3,0.3-0.5,0.4c0.3,0.1,0.5,0.2,0.6,0.4
			c0.1,0.2,0.3,0.4,0.3,0.7l0.5,2.1h-1.4l-0.4-1.7c-0.1-0.3-0.2-0.6-0.4-0.7c-0.1-0.1-0.3-0.2-0.6-0.2h-0.4v2.6H267.1z"/>
		<path fill="#2E3135" d="M274.8,51.8v5.1h-1.4v-5.1H272v-1.2h4.2v1.2H274.8z"/>
		<path fill="#2E3135" d="M281.3,52.6c0,0.3,0,0.6-0.1,0.8c-0.1,0.2-0.2,0.5-0.4,0.6c-0.2,0.2-0.4,0.3-0.6,0.4
			c-0.3,0.1-0.5,0.1-0.9,0.1h-0.8v2.3h-1.4v-6.3h2.1c0.3,0,0.6,0,0.9,0.1c0.3,0.1,0.5,0.2,0.7,0.4c0.2,0.2,0.3,0.4,0.4,0.6
			C281.2,51.9,281.3,52.2,281.3,52.6z M279.9,52.6c0-0.3-0.1-0.5-0.2-0.6c-0.1-0.1-0.3-0.2-0.6-0.2h-0.7v1.6h0.7
			c0.2,0,0.4-0.1,0.5-0.2S279.9,52.9,279.9,52.6z"/>
		<path fill="#2E3135" d="M286.3,54.9c0,0.3-0.1,0.6-0.2,0.8c-0.1,0.2-0.2,0.5-0.4,0.6c-0.2,0.2-0.4,0.3-0.7,0.4
			c-0.3,0.1-0.5,0.1-0.8,0.1c-0.4,0-0.7-0.1-1-0.2c-0.3-0.1-0.5-0.3-0.7-0.5c-0.2-0.2-0.3-0.4-0.4-0.7c-0.1-0.3-0.1-0.5-0.1-0.8
			v-2.2c0-0.2,0-0.5,0.1-0.7c0.1-0.2,0.2-0.5,0.4-0.6c0.2-0.2,0.4-0.3,0.7-0.5s0.6-0.2,1-0.2c0.4,0,0.7,0.1,0.9,0.2s0.5,0.3,0.7,0.5
			c0.2,0.2,0.3,0.4,0.4,0.6c0.1,0.2,0.1,0.5,0.1,0.7V54.9z M284.9,52.5c0-0.1,0-0.1,0-0.2c0-0.1-0.1-0.2-0.1-0.2s-0.1-0.1-0.2-0.2
			c-0.1-0.1-0.2-0.1-0.3-0.1s-0.3,0-0.3,0.1c-0.1,0-0.2,0.1-0.2,0.2s-0.1,0.1-0.1,0.2c0,0.1,0,0.2,0,0.2v2.3c0,0.2,0.1,0.4,0.2,0.6
			c0.1,0.2,0.3,0.2,0.6,0.2c0.2,0,0.4-0.1,0.5-0.2s0.2-0.3,0.2-0.5V52.5z"/>
		<path fill="#2E3135" d="M291.6,54.9c0,0.3-0.1,0.6-0.2,0.8c-0.1,0.2-0.2,0.5-0.4,0.6c-0.2,0.2-0.4,0.3-0.7,0.4
			c-0.3,0.1-0.5,0.1-0.8,0.1c-0.4,0-0.7-0.1-1-0.2c-0.3-0.1-0.5-0.3-0.7-0.5c-0.2-0.2-0.3-0.4-0.4-0.7c-0.1-0.3-0.1-0.5-0.1-0.8
			v-2.2c0-0.2,0-0.5,0.1-0.7c0.1-0.2,0.2-0.5,0.4-0.6c0.2-0.2,0.4-0.3,0.7-0.5s0.6-0.2,1-0.2c0.4,0,0.7,0.1,0.9,0.2s0.5,0.3,0.7,0.5
			c0.2,0.2,0.3,0.4,0.4,0.6c0.1,0.2,0.1,0.5,0.1,0.7V54.9z M290.2,52.5c0-0.1,0-0.1,0-0.2c0-0.1-0.1-0.2-0.1-0.2s-0.1-0.1-0.2-0.2
			c-0.1-0.1-0.2-0.1-0.3-0.1s-0.3,0-0.3,0.1c-0.1,0-0.2,0.1-0.2,0.2s-0.1,0.1-0.1,0.2c0,0.1,0,0.2,0,0.2v2.3c0,0.2,0.1,0.4,0.2,0.6
			c0.1,0.2,0.3,0.2,0.6,0.2c0.2,0,0.4-0.1,0.5-0.2s0.2-0.3,0.2-0.5V52.5z"/>
		<path fill="#2E3135" d="M294,50.6v1.8c0,0.4,0.1,0.6,0.2,0.8c0.1,0.1,0.3,0.2,0.6,0.2c0.1,0,0.2,0,0.4,0c0.1,0,0.3-0.1,0.3-0.1
			v-2.7h1.4v6.3h-1.4v-2.5c-0.2,0.1-0.3,0.1-0.5,0.1c-0.2,0-0.4,0-0.5,0c-0.2,0-0.5,0-0.7-0.1c-0.2-0.1-0.4-0.2-0.5-0.3
			s-0.3-0.3-0.4-0.5c-0.1-0.2-0.1-0.5-0.1-0.8v-2.3H294z"/>
		<path fill="#2E3135" d="M301.3,56.9v-3.4h0l-1.8,3.4h-1.3v-6.3h1.4v3.6h0l1.9-3.6h1.2v6.3H301.3z"/>
		<path fill="#2E3135" d="M308,55.4c-0.1,0.5-0.3,0.9-0.7,1.1c-0.4,0.3-0.8,0.4-1.4,0.4c-0.4,0-0.7-0.1-1-0.2
			c-0.3-0.1-0.5-0.3-0.7-0.5c-0.2-0.2-0.3-0.4-0.4-0.7c-0.1-0.3-0.1-0.5-0.1-0.8v-2.2c0-0.2,0-0.5,0.1-0.7c0.1-0.2,0.2-0.5,0.4-0.6
			c0.2-0.2,0.4-0.3,0.7-0.5s0.6-0.2,1-0.2c0.3,0,0.6,0,0.8,0.1c0.2,0.1,0.4,0.2,0.6,0.3c0.2,0.1,0.3,0.3,0.4,0.5
			c0.1,0.2,0.2,0.4,0.2,0.6l-1.3,0.4c0-0.1,0-0.1-0.1-0.2c0-0.1-0.1-0.2-0.1-0.2c-0.1-0.1-0.1-0.1-0.2-0.2c-0.1,0-0.2-0.1-0.3-0.1
			c-0.1,0-0.3,0-0.3,0.1c-0.1,0-0.2,0.1-0.2,0.2s-0.1,0.1-0.1,0.2c0,0.1,0,0.2,0,0.2v2.3c0,0.2,0.1,0.4,0.2,0.6
			c0.1,0.2,0.3,0.2,0.6,0.2c0.2,0,0.4-0.1,0.5-0.2c0.1-0.1,0.2-0.3,0.3-0.5L308,55.4z"/>
		<path fill="#2E3135" d="M311.3,51.8v5.1H310v-5.1h-1.4v-1.2h4.2v1.2H311.3z"/>
		<path fill="#2E3135" d="M316.8,56.9v-3.4h0l-1.8,3.4h-1.3v-6.3h1.4v3.6h0l1.9-3.6h1.2v6.3H316.8z"/>
		<path fill="#2E3135" d="M321.7,51.8v5.1h-1.4v-5.1H319v-1.2h4.2v1.2H321.7z"/>
		<path fill="#2E3135" d="M324,56.9v-6.3h3.8v1.2h-2.5v1.3h2.1v1.2h-2.1v1.3h2.5v1.2H324z"/>
		<path fill="#2E3135" d="M333.2,50.6v6.3h-1.4v-5h-1.1v1.9c0,0.5,0,0.9-0.1,1.2s-0.1,0.7-0.3,1c-0.1,0.3-0.3,0.5-0.6,0.7
			c-0.3,0.2-0.6,0.3-1,0.4l-0.3-1c0.2-0.1,0.4-0.2,0.6-0.3c0.1-0.1,0.2-0.3,0.3-0.4s0.1-0.4,0.1-0.6c0-0.2,0-0.5,0-0.8v-3.2H333.2z"
			/>
		<path fill="#2E3135" d="M338.9,54.9c0,0.3-0.1,0.6-0.2,0.9c-0.1,0.2-0.2,0.5-0.4,0.6s-0.4,0.3-0.7,0.4s-0.5,0.1-0.8,0.1h-2.2v-6.3
			h1.4V53h0.8c0.3,0,0.6,0,0.9,0.1c0.3,0.1,0.5,0.2,0.6,0.4s0.3,0.4,0.4,0.6S338.9,54.6,338.9,54.9z M337.5,54.9
			c0-0.3-0.1-0.5-0.2-0.6c-0.1-0.1-0.3-0.2-0.6-0.2H336v1.5h0.8c0.3,0,0.4-0.1,0.6-0.2C337.4,55.3,337.5,55.1,337.5,54.9z"/>
	</g>
</g>
<g>
	<g>
		<path fill="#FFFFFF" d="M289,18.2c0,1.2-0.4,2.2-1.1,2.9s-1.9,1-3.3,1c-0.5,0-1-0.1-1.5-0.2c-0.4-0.1-0.8-0.3-1.2-0.5
			c-0.4-0.2-0.7-0.4-1-0.7c-0.3-0.3-0.5-0.6-0.8-0.9l2.1-1.7c0.3,0.5,0.7,0.8,1.1,1c0.4,0.2,0.8,0.3,1.3,0.3c0.6,0,1-0.1,1.2-0.4
			s0.3-0.6,0.3-0.9c0-0.2-0.1-0.5-0.2-0.6s-0.3-0.3-0.5-0.5c-0.2-0.1-0.4-0.3-0.7-0.4c-0.3-0.1-0.6-0.2-0.9-0.3
			c-0.6-0.2-1.1-0.4-1.5-0.6c-0.4-0.2-0.8-0.5-1-0.8c-0.3-0.3-0.5-0.6-0.6-1c-0.1-0.4-0.2-0.8-0.2-1.3c0-0.6,0.1-1.1,0.3-1.5
			s0.5-0.9,0.8-1.2c0.4-0.3,0.8-0.6,1.3-0.8C283.5,9,284,9,284.6,9c1,0,1.8,0.2,2.4,0.5c0.6,0.3,1.2,0.8,1.6,1.4l-1.9,1.8
			c-0.6-0.7-1.3-1.1-2.1-1.1c-0.4,0-0.7,0.1-1,0.3c-0.3,0.2-0.4,0.5-0.4,0.8c0,0.2,0.1,0.4,0.2,0.5c0.1,0.1,0.3,0.3,0.5,0.4
			s0.5,0.2,0.7,0.4s0.6,0.2,0.9,0.3c0.6,0.2,1.2,0.4,1.6,0.7c0.4,0.3,0.8,0.5,1,0.9c0.3,0.3,0.4,0.7,0.6,1.1
			C289,17.3,289,17.7,289,18.2z"/>
		<path fill="#FFFFFF" d="M296.2,19.4h-3.1c-0.1,0.4-0.2,0.9-0.3,1.3s-0.2,0.9-0.4,1.3h-2.9l3.8-13h2.7l3.8,13h-2.9L296.2,19.4z
			 M294.1,15.1l-0.4,1.9h1.9l-0.4-1.8l-0.5-2.6h-0.1L294.1,15.1z"/>
		<path fill="#FFFFFF" d="M303.7,11.5v2.7h4.2v2.5h-4.2V22H301V9h7.6v2.5H303.7z"/>
		<path fill="#FFFFFF" d="M310,22V9h7.6v2.5h-4.9v2.7h4.2v2.5h-4.2v2.8h4.9V22H310z"/>
		<path fill="#FFFFFF" d="M323.6,11.5V22h-2.7V11.5h-2.8V9h8.3v2.5H323.6z"/>
		<path fill="#FFFFFF" d="M332.6,16.8V22H330v-5.2L326.6,9h3l0.9,2.7l0.8,2.5h0.1l0.8-2.5l1-2.6h2.9L332.6,16.8z"/>
		<path fill="#FFFFFF" d="M195.1,42V29h7.6v2.5h-4.9v2.7h4.2v2.5h-4.2v2.8h4.9V42H195.1z"/>
		<path fill="#FFFFFF" d="M204.3,42V29h2.7v10.4h4.9V42H204.3z"/>
		<path fill="#FFFFFF" d="M213.3,42V29h7.6v2.5H216v2.7h4.2v2.5H216v2.8h4.9V42H213.3z"/>
		<path fill="#FFFFFF" d="M230.4,38.9c-0.2,1-0.6,1.8-1.4,2.4c-0.7,0.6-1.6,0.9-2.7,0.9c-0.7,0-1.4-0.1-1.9-0.4
			c-0.5-0.2-1-0.6-1.3-1c-0.3-0.4-0.6-0.9-0.7-1.4c-0.2-0.5-0.2-1.1-0.2-1.7v-4.6c0-0.5,0.1-1,0.2-1.5c0.1-0.5,0.4-0.9,0.7-1.3
			s0.8-0.7,1.3-1s1.2-0.4,1.9-0.4c0.6,0,1.1,0.1,1.6,0.3c0.5,0.2,0.9,0.4,1.2,0.7c0.3,0.3,0.6,0.6,0.8,1s0.4,0.8,0.4,1.2l-2.6,0.8
			c0-0.1-0.1-0.3-0.1-0.4c-0.1-0.2-0.1-0.3-0.3-0.5s-0.3-0.3-0.5-0.4c-0.2-0.1-0.4-0.1-0.7-0.1c-0.3,0-0.5,0-0.7,0.1
			c-0.2,0.1-0.3,0.2-0.4,0.4c-0.1,0.1-0.2,0.3-0.2,0.5s-0.1,0.3-0.1,0.5v4.8c0,0.5,0.1,0.9,0.3,1.2s0.6,0.5,1.1,0.5
			c0.4,0,0.7-0.1,1-0.4c0.3-0.2,0.5-0.6,0.5-1L230.4,38.9z"/>
		<path fill="#FFFFFF" d="M236.5,31.5V42h-2.7V31.5H231V29h8.3v2.5H236.5z"/>
		<path fill="#FFFFFF" d="M246.2,42l-1.7-5.1h-1.1V42h-2.7V29h4.3c0.5,0,1.1,0.1,1.6,0.2s0.9,0.4,1.3,0.7c0.4,0.3,0.7,0.7,0.9,1.2
			c0.2,0.5,0.3,1.1,0.3,1.7c0,0.8-0.2,1.6-0.5,2.1c-0.3,0.6-0.8,1.1-1.4,1.4l2.1,5.6H246.2z M246.3,32.9c0-0.5-0.1-0.9-0.4-1.1
			s-0.6-0.3-1.1-0.3h-1.5v2.9h1.5c0.4,0,0.8-0.1,1.1-0.3C246.2,33.9,246.3,33.5,246.3,32.9z"/>
		<path fill="#FFFFFF" d="M258.9,38c0,0.6-0.1,1.2-0.3,1.7c-0.2,0.5-0.5,1-0.9,1.3s-0.8,0.6-1.3,0.8c-0.5,0.2-1.1,0.3-1.7,0.3
			c-0.7,0-1.4-0.1-1.9-0.4c-0.5-0.2-1-0.6-1.3-1c-0.3-0.4-0.6-0.9-0.7-1.4c-0.2-0.5-0.2-1.1-0.2-1.7v-4.6c0-0.5,0.1-1,0.2-1.5
			c0.1-0.5,0.4-0.9,0.7-1.3c0.3-0.4,0.8-0.7,1.3-1s1.2-0.4,1.9-0.4c0.7,0,1.3,0.1,1.8,0.4c0.5,0.2,1,0.6,1.3,1
			c0.3,0.4,0.6,0.8,0.8,1.3s0.3,1,0.3,1.5V38z M256.1,33c0-0.1,0-0.3-0.1-0.4c0-0.2-0.1-0.3-0.2-0.5s-0.3-0.3-0.4-0.4
			c-0.2-0.1-0.4-0.2-0.7-0.2c-0.3,0-0.5,0-0.7,0.1c-0.2,0.1-0.3,0.2-0.5,0.4c-0.1,0.1-0.2,0.3-0.3,0.5c-0.1,0.2-0.1,0.3-0.1,0.5v4.8
			c0,0.5,0.1,0.9,0.3,1.2s0.6,0.5,1.1,0.5c0.4,0,0.7-0.1,1-0.4c0.3-0.2,0.4-0.6,0.4-1V33z"/>
		<path fill="#FFFFFF" d="M260.6,38.2v-2.3h6v2.3H260.6z"/>
		<path fill="#FFFFFF" d="M276.5,38.9c-0.2,1-0.6,1.8-1.4,2.4c-0.7,0.6-1.6,0.9-2.7,0.9c-0.7,0-1.4-0.1-1.9-0.4
			c-0.5-0.2-1-0.6-1.3-1c-0.3-0.4-0.6-0.9-0.7-1.4c-0.2-0.5-0.2-1.1-0.2-1.7v-4.6c0-0.5,0.1-1,0.2-1.5c0.1-0.5,0.4-0.9,0.7-1.3
			s0.8-0.7,1.3-1s1.2-0.4,1.9-0.4c0.6,0,1.1,0.1,1.6,0.3c0.5,0.2,0.9,0.4,1.2,0.7c0.3,0.3,0.6,0.6,0.8,1s0.4,0.8,0.4,1.2l-2.6,0.8
			c0-0.1-0.1-0.3-0.1-0.4c-0.1-0.2-0.1-0.3-0.3-0.5s-0.3-0.3-0.5-0.4c-0.2-0.1-0.4-0.1-0.7-0.1c-0.3,0-0.5,0-0.7,0.1
			c-0.2,0.1-0.3,0.2-0.4,0.4c-0.1,0.1-0.2,0.3-0.2,0.5S271,32.9,271,33v4.8c0,0.5,0.1,0.9,0.3,1.2s0.6,0.5,1.1,0.5
			c0.4,0,0.7-0.1,1-0.4c0.3-0.2,0.5-0.6,0.5-1L276.5,38.9z"/>
		<path fill="#FFFFFF" d="M278.1,42V29h2.7v10.4h4.9V42H278.1z"/>
		<path fill="#FFFFFF" d="M287.1,42V29h7.6v2.5h-4.9v2.7h4.2v2.5h-4.2v2.8h4.9V42H287.1z"/>
		<path fill="#FFFFFF" d="M301.9,39.4h-3.1c-0.1,0.4-0.2,0.9-0.3,1.3s-0.2,0.9-0.4,1.3h-2.9l3.8-13h2.7l3.8,13h-2.9L301.9,39.4z
			 M299.8,35.1l-0.4,1.9h1.9l-0.4-1.8l-0.5-2.6h-0.1L299.8,35.1z"/>
		<path fill="#FFFFFF" d="M313.2,42l-2.4-4.3l-1.4-2.7l-0.1,0V42h-2.7V29h2.4l2.1,3.9l1.7,3.1l0.1,0v-7h2.7v13H313.2z"/>
		<path fill="#FFFFFF" d="M317.8,42V29h7.6v2.5h-4.9v2.7h4.2v2.5h-4.2v2.8h4.9V42H317.8z"/>
		<path fill="#FFFFFF" d="M332.5,42l-1.7-5.1h-1.1V42h-2.7V29h4.3c0.5,0,1.1,0.1,1.6,0.2s0.9,0.4,1.3,0.7c0.4,0.3,0.7,0.7,0.9,1.2
			s0.3,1.1,0.3,1.7c0,0.8-0.2,1.6-0.5,2.1c-0.3,0.6-0.8,1.1-1.4,1.4l2.1,5.6H332.5z M332.7,32.9c0-0.5-0.1-0.9-0.4-1.1
			s-0.6-0.3-1.1-0.3h-1.5v2.9h1.5c0.4,0,0.8-0.1,1.1-0.3C332.5,33.9,332.7,33.5,332.7,32.9z"/>
	</g>
</g>
<g>
	<g>
		<path fill="#CA5265" d="M27.3,84.8c-8.1,0-14.6-2-19.3-5.8c-4.9-4-7.4-9.6-7.5-16.7l0-3h17.9l0.1,2.9c0.1,3.7,1.3,7.4,9.4,7.4
			c2.5,0,4.4-0.5,5.7-1.4c1-0.7,1.5-1.6,1.5-2.9c0-0.8-0.2-1.1-0.9-1.5c-1-0.5-3.6-1.5-9.9-3.4c-0.9-0.2-1.6-0.4-2.1-0.6
			c-1.8-0.5-3.1-0.9-3.9-1.1c-0.7-0.2-1.9-0.6-3.5-1.2c-1.8-0.6-3.1-1.2-4-1.8c-0.8-0.5-1.7-1.2-2.9-2.1c-1.4-1.1-2.4-2.3-3.1-3.6
			c-0.6-1.1-1-2.3-1.5-3.8c-0.5-1.6-0.7-3.3-0.7-5.1c0-5.9,2.3-10.7,6.9-14.3c4.4-3.4,10.1-5.1,17.2-5.1c6.8,0,12.5,1.7,16.9,4.9
			c4.7,3.5,7.1,8.7,7.2,15.5l0.1,3.1H33.6l-0.2-2.7c-0.2-2.8-1.3-5.4-7.4-5.4c-2.1,0-3.7,0.4-4.8,1.1c-0.8,0.5-1.1,1.2-1.1,2.1
			c0,0.4,0.1,0.6,0.1,0.6h0c0,0,0.1,0.1,0.2,0.2c0.4,0.3,0.8,0.6,1.2,0.8c0.2,0.1,0.8,0.4,2,0.7c1.1,0.3,2.1,0.6,3,0.9
			c0.8,0.2,2.1,0.6,3.7,1c1.7,0.4,3.2,0.8,4.4,1.2c5.9,1.7,10.2,3.8,13.2,6.4c3.3,2.9,5,7,5,12.2c0,3.6-0.8,6.9-2.3,9.6
			c-1.5,2.8-3.6,5-6.2,6.6c-2.4,1.5-5.1,2.7-8,3.4C33.5,84.5,30.5,84.8,27.3,84.8z"/>
		<path fill="#FFFFFF" d="M26.6,24.6c6.2,0,11.2,1.5,15.1,4.4c3.9,2.9,5.9,7.3,6,13.1H36.3c-0.5-5.4-3.9-8.2-10.4-8.2
			c-2.8,0-4.9,0.6-6.5,1.7c-1.6,1.1-2.3,2.6-2.3,4.6c0,0.7,0.1,1.3,0.3,1.8c0.2,0.5,0.6,1,1.2,1.4c0.6,0.4,1.1,0.8,1.7,1.1
			c0.6,0.3,1.4,0.6,2.5,0.9c1.1,0.3,2.1,0.6,3,0.9c0.9,0.3,2.2,0.6,3.8,1c1.6,0.4,3.1,0.8,4.3,1.2c5.4,1.5,9.4,3.5,12.1,5.8
			c2.6,2.3,4,5.6,4,9.9c0,3.1-0.6,5.9-1.9,8.2c-1.3,2.3-3,4.2-5.2,5.5c-2.2,1.4-4.6,2.4-7.2,3c-2.6,0.6-5.4,1-8.3,1
			c-7.4,0-13.3-1.7-17.4-5.1c-4.2-3.4-6.3-8.2-6.4-14.4h11.9c0.2,6.9,4.3,10.3,12.4,10.3c3.1,0,5.6-0.7,7.4-2
			c1.8-1.3,2.7-3.1,2.7-5.4c0-1.9-0.8-3.3-2.5-4.2c-1.7-0.9-5.2-2.1-10.5-3.6c-0.9-0.2-1.5-0.4-2-0.5c-1.8-0.5-3.1-0.9-3.9-1.1
			c-0.7-0.2-1.9-0.6-3.4-1.2c-1.6-0.6-2.7-1.1-3.4-1.5c-0.7-0.5-1.6-1.1-2.7-1.9c-1.1-0.8-1.8-1.7-2.3-2.6c-0.5-0.9-0.9-2-1.3-3.3
			C5.7,44,5.5,42.6,5.5,41c0-5,1.9-9,5.8-11.9C15.1,26.1,20.3,24.6,26.6,24.6 M26.6,18.6c-7.7,0-14.1,1.9-19,5.7
			C2.3,28.4-0.5,34.2-0.5,41c0,2.1,0.3,4.1,0.8,6c0.5,1.7,1.1,3.1,1.7,4.4c0.9,1.7,2.2,3.2,3.9,4.6c0.2,0.1,0.3,0.2,0.5,0.4H3.5h-6
			l0,6c0.1,8.1,2.9,14.5,8.6,19c5.3,4.3,12.4,6.5,21.2,6.5c3.4,0,6.7-0.4,9.7-1.1c3.2-0.8,6.2-2,8.9-3.7c3.1-1.9,5.5-4.5,7.3-7.7
			c1.8-3.2,2.7-7,2.7-11.1c0-7.6-3.3-12.1-6-14.5c-0.6-0.5-1.3-1.1-2-1.6h6L53.7,42c-0.2-9.7-4.7-15-8.4-17.8
			C40.3,20.5,34.1,18.6,26.6,18.6L26.6,18.6z M25.5,39.9c0.1,0,0.3,0,0.4,0c2.7,0,3.7,0.5,4.1,1.3c-1.1-0.3-2-0.5-2.7-0.7
			C26.8,40.3,26.2,40.1,25.5,39.9L25.5,39.9z M27.8,66.6c-5.6,0-6.3-1.8-6.4-3.8c0.5,0.2,1.2,0.3,2,0.5c4.4,1.3,6.8,2.1,8.1,2.6
			C30.7,66.3,29.5,66.6,27.8,66.6L27.8,66.6z"/>
	</g>
	<g>
		<polygon fill="#CA5265" points="53.1,83.6 53.1,22.8 100.2,22.8 100.2,38.6 71,38.6 71,44.6 97.8,44.6 97.8,60 71,60 71,67.5 
			100.8,67.5 100.8,83.6 		"/>
		<path fill="#FFFFFF" d="M97.2,25.8v9.9H68v11.9h26.8V57H68v13.5h29.7v10.1H56.1V25.8H97.2 M103.2,19.8h-6H56.1h-6v6v54.8v6h6h41.7
			h6v-6V70.5v-6h-6H74V63h20.8h6v-6v-9.5v-5.9h2.4v-6v-9.9V19.8L103.2,19.8z"/>
	</g>
	<g>
		<path fill="#CA5265" d="M129.4,84.9c-8.8,0-16-3-21.4-8.9c-5.4-5.8-8.1-13.5-8.1-22.9c0-8.9,2.7-16.5,8.1-22.5
			c5.5-6.1,12.8-9.2,21.8-9.2c7.2,0,13.4,2.1,18.3,6.2c5,4.2,7.9,9.6,8.4,16.1l0.3,3.2h-17.5l-0.5-2.4c-0.5-2.3-1.5-4.1-3-5.3
			c-1.6-1.3-3.6-1.9-6.2-1.9c-2.6,0-4.8,0.7-6.5,2.1c-1.9,1.5-3.1,3.3-3.9,5.5c-0.8,2.4-1.2,5.1-1.2,8c0,4.9,1.1,8.9,3.3,11.7
			c2,2.6,4.7,3.9,8.2,3.9c3.9,0,8.5-1.1,9.6-9.7l0.3-2.6h17.9l-0.3,3.3c-0.7,7.6-3.4,13.7-8.1,18.3C144,82.6,137.5,84.9,129.4,84.9z
			"/>
		<path fill="#FFFFFF" d="M129.9,24.5c6.5,0,12,1.8,16.4,5.5c4.4,3.7,6.9,8.4,7.3,14.1h-11.8c-0.6-3-2-5.4-4.1-7
			c-2.1-1.7-4.8-2.5-8-2.5c-3.3,0-6.1,0.9-8.4,2.8c-2.3,1.9-3.9,4.2-4.8,6.9c-0.9,2.7-1.4,5.7-1.4,8.9c0,5.6,1.3,10.2,3.9,13.5
			c2.6,3.4,6.1,5,10.5,5c7.3,0,11.5-4.1,12.6-12.3H154c-0.6,6.9-3,12.3-7.2,16.4c-4.2,4.1-10,6.1-17.3,6.1c-8,0-14.4-2.6-19.2-7.9
			c-4.9-5.3-7.3-12.2-7.3-20.9c0-8.2,2.5-15,7.4-20.5C115.2,27.2,121.7,24.5,129.9,24.5 M129.9,18.5c-9.9,0-18,3.4-24.1,10.1
			c-5.9,6.6-8.9,14.8-8.9,24.5c0,10.2,3,18.6,8.9,25c6,6.5,14,9.8,23.6,9.8c8.9,0,16.1-2.6,21.5-7.8c5.3-5.1,8.3-11.9,9.1-20.2
			l0.6-6.5H154H142h-5.3l-0.7,5.3c-0.8,6.5-3.6,7.1-6.6,7.1c-2.6,0-4.3-0.8-5.8-2.7c-1.8-2.3-2.7-5.6-2.7-9.8c0-2.6,0.4-4.9,1.1-7
			c0.6-1.7,1.5-3,2.9-4.2c1.2-1,2.7-1.4,4.6-1.4c1.9,0,3.3,0.4,4.3,1.2c0.6,0.5,1.5,1.4,1.9,3.5l1,4.8h4.9h11.8h6.5l-0.5-6.5
			c-0.6-7.3-3.8-13.5-9.4-18.2C144.6,20.8,137.8,18.5,129.9,18.5L129.9,18.5z"/>
	</g>
</g>
<rect x="122.5" y="38.8" fill="#FFFFFF" width="14" height="7"/>
<rect x="24.5" y="38.8" fill="#FFFFFF" width="6" height="5"/>
</svg>
