<?xml version="1.0" encoding="utf-8"?>
<!-- Generator: Adobe Illustrator 17.1.0, SVG Export Plug-In . SVG Version: 6.00 Build 0)  -->
<!DOCTYPE svg PUBLIC "-//W3C//DTD SVG 1.1//EN" "http://www.w3.org/Graphics/SVG/1.1/DTD/svg11.dtd">
<svg version="1.1" id="Layer_1" xmlns="http://www.w3.org/2000/svg" xmlns:xlink="http://www.w3.org/1999/xlink" x="0px" y="0px"
	 viewBox="0 0 365.5 83.3" enable-background="new 0 0 365.5 83.3" xml:space="preserve">
<g>
	<polygon points="0.7,-2.8 0.7,44 69.5,44 89.3,-2.8 	"/>
	<polygon fill="#2E3135" points="87.6,-2.8 67.8,44 161.3,44 181.1,-2.8 	"/>
	<polygon points="179.5,-2.8 159.7,44 253.2,44 273,-2.8 	"/>
	<polygon fill="#2E3135" points="342.1,44 362.1,-2.8 271.3,-2.8 251.5,44 	"/>
	<rect x="-5.5" y="41.8" fill="#FFFFFF" width="376" height="11"/>
</g>
<rect x="90.5" y="43.8" fill="#FFFFFF" width="14" height="6"/>
<g>
	<g>
		<path fill="#2E3135" d="M244.4,55c0,0.3,0,0.6-0.1,0.8c-0.1,0.2-0.2,0.4-0.4,0.6c-0.2,0.2-0.4,0.3-0.6,0.4
			c-0.2,0.1-0.5,0.1-0.8,0.1h-2.2v-6.3h2.1c0.6,0,1.1,0.2,1.5,0.5s0.5,0.7,0.5,1.3c0,0.2-0.1,0.5-0.2,0.7c-0.1,0.2-0.3,0.4-0.6,0.5
			v0c0.2,0,0.3,0.1,0.4,0.2c0.1,0.1,0.2,0.2,0.3,0.3s0.1,0.3,0.2,0.4C244.4,54.7,244.4,54.8,244.4,55z M243,52.4
			c0-0.2-0.1-0.4-0.2-0.5c-0.1-0.1-0.3-0.2-0.5-0.2h-0.7v1.3h0.7c0.3,0,0.4-0.1,0.5-0.2S243,52.6,243,52.4z M243.1,54.9
			c0-0.2-0.1-0.4-0.2-0.5s-0.3-0.2-0.5-0.2h-0.8v1.4h0.8c0.3,0,0.5-0.1,0.6-0.2C243,55.3,243.1,55.1,243.1,54.9z"/>
		<path fill="#2E3135" d="M245.6,56.9v-6.3h1.4V53h0.8c0.3,0,0.6,0,0.9,0.1c0.3,0.1,0.5,0.2,0.6,0.4s0.3,0.4,0.4,0.6
			c0.1,0.2,0.1,0.5,0.1,0.8c0,0.3,0,0.6-0.1,0.9s-0.2,0.5-0.4,0.6c-0.2,0.2-0.4,0.3-0.7,0.4c-0.3,0.1-0.5,0.1-0.8,0.1H245.6z
			 M247.7,55.7c0.3,0,0.4-0.1,0.6-0.2s0.2-0.3,0.2-0.6c0-0.3-0.1-0.5-0.2-0.6c-0.1-0.1-0.3-0.2-0.6-0.2h-0.8v1.5H247.7z M250.3,56.9
			v-6.3h1.4v6.3H250.3z"/>
		<path fill="#2E3135" d="M257.1,55.4c-0.1,0.5-0.3,0.9-0.7,1.1c-0.4,0.3-0.8,0.4-1.4,0.4c-0.4,0-0.7-0.1-1-0.2
			c-0.3-0.1-0.5-0.3-0.7-0.5c-0.2-0.2-0.3-0.4-0.4-0.7s-0.1-0.5-0.1-0.8v-2.2c0-0.2,0-0.5,0.1-0.7c0.1-0.2,0.2-0.5,0.4-0.6
			c0.2-0.2,0.4-0.3,0.7-0.5c0.3-0.1,0.6-0.2,1-0.2c0.3,0,0.6,0,0.8,0.1c0.2,0.1,0.4,0.2,0.6,0.3c0.2,0.1,0.3,0.3,0.4,0.5
			c0.1,0.2,0.2,0.4,0.2,0.6l-1.3,0.4c0-0.1,0-0.1-0.1-0.2c0-0.1-0.1-0.2-0.1-0.2c-0.1-0.1-0.1-0.1-0.2-0.2c-0.1,0-0.2-0.1-0.3-0.1
			c-0.1,0-0.3,0-0.3,0.1s-0.2,0.1-0.2,0.2s-0.1,0.1-0.1,0.2c0,0.1,0,0.2,0,0.2v2.3c0,0.2,0.1,0.4,0.2,0.6c0.1,0.2,0.3,0.2,0.6,0.2
			c0.2,0,0.4-0.1,0.5-0.2c0.1-0.1,0.2-0.3,0.3-0.5L257.1,55.4z"/>
		<path fill="#2E3135" d="M262.2,54.9c0,0.3-0.1,0.6-0.2,0.8c-0.1,0.2-0.2,0.5-0.4,0.6c-0.2,0.2-0.4,0.3-0.7,0.4
			c-0.3,0.1-0.5,0.1-0.8,0.1c-0.4,0-0.7-0.1-1-0.2c-0.3-0.1-0.5-0.3-0.7-0.5c-0.2-0.2-0.3-0.4-0.4-0.7c-0.1-0.3-0.1-0.5-0.1-0.8
			v-2.2c0-0.2,0-0.5,0.1-0.7c0.1-0.2,0.2-0.5,0.4-0.6c0.2-0.2,0.4-0.3,0.7-0.5c0.3-0.1,0.6-0.2,1-0.2c0.4,0,0.7,0.1,0.9,0.2
			s0.5,0.3,0.7,0.5c0.2,0.2,0.3,0.4,0.4,0.6c0.1,0.2,0.1,0.5,0.1,0.7V54.9z M260.9,52.5c0-0.1,0-0.1,0-0.2c0-0.1-0.1-0.2-0.1-0.2
			s-0.1-0.1-0.2-0.2c-0.1-0.1-0.2-0.1-0.3-0.1s-0.3,0-0.3,0.1s-0.2,0.1-0.2,0.2s-0.1,0.1-0.1,0.2c0,0.1,0,0.2,0,0.2v2.3
			c0,0.2,0.1,0.4,0.2,0.6c0.1,0.2,0.3,0.2,0.6,0.2c0.2,0,0.4-0.1,0.5-0.2s0.2-0.3,0.2-0.5V52.5z"/>
		<path fill="#2E3135" d="M263.5,56.9v-6.3h1.4v2.5h0.3c0.1,0,0.2,0,0.3,0c0.1,0,0.2-0.1,0.3-0.1c0.1-0.1,0.2-0.2,0.2-0.3
			c0.1-0.1,0.1-0.3,0.2-0.4l0.4-1.6h1.3l-0.5,1.9c-0.1,0.3-0.2,0.6-0.3,0.8c-0.2,0.2-0.3,0.3-0.5,0.4c0.3,0.1,0.5,0.2,0.6,0.4
			c0.1,0.2,0.3,0.4,0.3,0.7l0.5,2.1h-1.4l-0.4-1.7c-0.1-0.3-0.2-0.6-0.4-0.7s-0.3-0.2-0.6-0.2h-0.4v2.6H263.5z"/>
		<path fill="#2E3135" d="M273,54.9c0,0.3-0.1,0.6-0.2,0.8c-0.1,0.2-0.2,0.5-0.4,0.6c-0.2,0.2-0.4,0.3-0.7,0.4
			c-0.3,0.1-0.5,0.1-0.8,0.1c-0.4,0-0.7-0.1-1-0.2c-0.3-0.1-0.5-0.3-0.7-0.5c-0.2-0.2-0.3-0.4-0.4-0.7c-0.1-0.3-0.1-0.5-0.1-0.8
			v-2.2c0-0.2,0-0.5,0.1-0.7c0.1-0.2,0.2-0.5,0.4-0.6c0.2-0.2,0.4-0.3,0.7-0.5c0.3-0.1,0.6-0.2,1-0.2c0.4,0,0.7,0.1,0.9,0.2
			s0.5,0.3,0.7,0.5c0.2,0.2,0.3,0.4,0.4,0.6c0.1,0.2,0.1,0.5,0.1,0.7V54.9z M271.6,52.5c0-0.1,0-0.1,0-0.2c0-0.1-0.1-0.2-0.1-0.2
			s-0.1-0.1-0.2-0.2c-0.1-0.1-0.2-0.1-0.3-0.1s-0.3,0-0.3,0.1s-0.2,0.1-0.2,0.2s-0.1,0.1-0.1,0.2c0,0.1,0,0.2,0,0.2v2.3
			c0,0.2,0.1,0.4,0.2,0.6c0.1,0.2,0.3,0.2,0.6,0.2c0.2,0,0.4-0.1,0.5-0.2s0.2-0.3,0.2-0.5V52.5z"/>
		<path fill="#2E3135" d="M275.3,53.1h1.5v-0.6c0-0.1,0-0.1,0-0.2c0-0.1,0-0.2-0.1-0.2c0-0.1-0.1-0.1-0.2-0.2
			c-0.1,0-0.2-0.1-0.4-0.1c-0.1,0-0.2,0-0.3,0.1c-0.1,0.1-0.2,0.1-0.2,0.2c-0.1,0.1-0.1,0.1-0.2,0.2c0,0.1-0.1,0.2-0.1,0.2l-1.3-0.4
			c0-0.2,0.1-0.4,0.2-0.6c0.1-0.2,0.2-0.4,0.4-0.5s0.4-0.3,0.6-0.3s0.5-0.1,0.8-0.1c0.4,0,0.7,0.1,1,0.2c0.3,0.1,0.5,0.3,0.6,0.5
			c0.2,0.2,0.3,0.4,0.3,0.6c0.1,0.2,0.1,0.5,0.1,0.7v2.2c0,0.3,0,0.6-0.1,0.8s-0.2,0.5-0.4,0.7c-0.2,0.2-0.4,0.3-0.7,0.5
			c-0.3,0.1-0.6,0.2-1,0.2c-0.5,0-1-0.1-1.4-0.4c-0.4-0.3-0.6-0.7-0.7-1.1l1.3-0.4c0,0.2,0.1,0.4,0.3,0.5c0.1,0.1,0.3,0.2,0.5,0.2
			c0.3,0,0.5-0.1,0.6-0.2s0.2-0.4,0.2-0.6v-0.6h-1.5V53.1z"/>
		<path fill="#2E3135" d="M282.7,56.9h-1.3v-0.5c-0.5,0-0.9-0.1-1.1-0.3s-0.5-0.4-0.7-0.6c-0.2-0.2-0.3-0.5-0.3-0.8
			c-0.1-0.3-0.1-0.6-0.1-1c0-0.3,0-0.6,0.1-1c0.1-0.3,0.2-0.6,0.3-0.8s0.4-0.4,0.7-0.6c0.3-0.2,0.7-0.3,1.1-0.3v-0.4h1.3V51
			c0.4,0,0.8,0.1,1.1,0.3c0.3,0.2,0.5,0.4,0.7,0.6c0.2,0.2,0.3,0.5,0.4,0.8c0.1,0.3,0.1,0.6,0.1,0.9c0,0.3,0,0.7-0.1,1
			c-0.1,0.3-0.2,0.6-0.3,0.8c-0.2,0.2-0.4,0.4-0.7,0.6c-0.3,0.2-0.7,0.3-1.1,0.3V56.9z M281.4,52.1c-0.2,0-0.3,0.1-0.4,0.2
			c-0.1,0.1-0.2,0.2-0.3,0.3c-0.1,0.1-0.1,0.3-0.1,0.5s0,0.4,0,0.6c0,0.2,0,0.4,0,0.5c0,0.2,0,0.3,0.1,0.5c0.1,0.1,0.1,0.3,0.3,0.4
			c0.1,0.1,0.3,0.2,0.5,0.2V52.1z M282.7,55.2c0.2,0,0.4-0.1,0.5-0.2c0.1-0.1,0.2-0.2,0.3-0.4c0.1-0.2,0.1-0.3,0.1-0.5
			c0-0.2,0-0.4,0-0.6s0-0.4,0-0.6c0-0.2-0.1-0.3-0.1-0.5c-0.1-0.1-0.2-0.2-0.3-0.3s-0.3-0.1-0.4-0.1V55.2z"/>
		<path fill="#2E3135" d="M289.6,56.9h-1.3v-0.5c-0.5,0-0.9-0.1-1.1-0.3s-0.5-0.4-0.7-0.6c-0.2-0.2-0.3-0.5-0.3-0.8
			c-0.1-0.3-0.1-0.6-0.1-1c0-0.3,0-0.6,0.1-1c0.1-0.3,0.2-0.6,0.3-0.8c0.2-0.2,0.4-0.4,0.7-0.6c0.3-0.2,0.7-0.3,1.1-0.3v-0.4h1.3V51
			c0.4,0,0.8,0.1,1.1,0.3c0.3,0.2,0.5,0.4,0.7,0.6c0.2,0.2,0.3,0.5,0.4,0.8c0.1,0.3,0.1,0.6,0.1,0.9c0,0.3,0,0.7-0.1,1
			c-0.1,0.3-0.2,0.6-0.3,0.8c-0.2,0.2-0.4,0.4-0.7,0.6c-0.3,0.2-0.7,0.3-1.1,0.3V56.9z M288.2,52.1c-0.2,0-0.3,0.1-0.4,0.2
			c-0.1,0.1-0.2,0.2-0.3,0.3c-0.1,0.1-0.1,0.3-0.1,0.5s0,0.4,0,0.6c0,0.2,0,0.4,0,0.5c0,0.2,0,0.3,0.1,0.5c0.1,0.1,0.1,0.3,0.3,0.4
			c0.1,0.1,0.3,0.2,0.5,0.2V52.1z M289.6,55.2c0.2,0,0.4-0.1,0.5-0.2c0.1-0.1,0.2-0.2,0.3-0.4c0.1-0.2,0.1-0.3,0.1-0.5
			c0-0.2,0-0.4,0-0.6s0-0.4,0-0.6c0-0.2-0.1-0.3-0.1-0.5c-0.1-0.1-0.2-0.2-0.3-0.3s-0.3-0.1-0.4-0.1V55.2z"/>
		<path fill="#2E3135" d="M293,56.9v-6.3h3.8v1.2h-2.5v1.3h2.1v1.2h-2.1v1.3h2.5v1.2H293z"/>
		<path fill="#2E3135" d="M297.9,56.9v-6.3h1.4v2.5h0.3c0.1,0,0.2,0,0.3,0c0.1,0,0.2-0.1,0.3-0.1c0.1-0.1,0.2-0.2,0.2-0.3
			c0.1-0.1,0.1-0.3,0.2-0.4l0.4-1.6h1.3l-0.5,1.9c-0.1,0.3-0.2,0.6-0.3,0.8c-0.2,0.2-0.3,0.3-0.5,0.4c0.3,0.1,0.5,0.2,0.6,0.4
			c0.1,0.2,0.3,0.4,0.3,0.7l0.5,2.1H301l-0.4-1.7c-0.1-0.3-0.2-0.6-0.4-0.7c-0.1-0.1-0.3-0.2-0.6-0.2h-0.4v2.6H297.9z"/>
		<path fill="#2E3135" d="M305.5,51.8v5.1h-1.4v-5.1h-1.4v-1.2h4.2v1.2H305.5z"/>
		<path fill="#2E3135" d="M311,56.9v-3.4h0l-1.8,3.4h-1.3v-6.3h1.4v3.6h0l1.9-3.6h1.2v6.3H311z"/>
		<path fill="#2E3135" d="M317.8,55c0,0.3,0,0.6-0.1,0.8c-0.1,0.2-0.2,0.4-0.4,0.6c-0.2,0.2-0.4,0.3-0.6,0.4
			c-0.2,0.1-0.5,0.1-0.8,0.1h-2.2v-6.3h2.1c0.6,0,1.1,0.2,1.5,0.5s0.5,0.7,0.5,1.3c0,0.2-0.1,0.5-0.2,0.7c-0.1,0.2-0.3,0.4-0.6,0.5
			v0c0.2,0,0.3,0.1,0.4,0.2c0.1,0.1,0.2,0.2,0.3,0.3s0.1,0.3,0.2,0.4C317.8,54.7,317.8,54.8,317.8,55z M316.4,52.4
			c0-0.2-0.1-0.4-0.2-0.5c-0.1-0.1-0.3-0.2-0.5-0.2H315v1.3h0.7c0.3,0,0.4-0.1,0.5-0.2S316.4,52.6,316.4,52.4z M316.5,54.9
			c0-0.2-0.1-0.4-0.2-0.5s-0.3-0.2-0.5-0.2H315v1.4h0.8c0.3,0,0.5-0.1,0.6-0.2C316.5,55.3,316.5,55.1,316.5,54.9z"/>
		<path fill="#2E3135" d="M321.9,56.9v-2.6h-1.5v2.6H319v-6.3h1.4v2.5h1.5v-2.5h1.4v6.3H321.9z"/>
		<path fill="#2E3135" d="M324.6,56.9v-6.3h1.4V53h0.8c0.3,0,0.6,0,0.9,0.1c0.3,0.1,0.5,0.2,0.6,0.4s0.3,0.4,0.4,0.6
			c0.1,0.2,0.1,0.5,0.1,0.8c0,0.3,0,0.6-0.1,0.9s-0.2,0.5-0.4,0.6c-0.2,0.2-0.4,0.3-0.7,0.4c-0.3,0.1-0.5,0.1-0.8,0.1H324.6z
			 M326.8,55.7c0.3,0,0.4-0.1,0.6-0.2s0.2-0.3,0.2-0.6c0-0.3-0.1-0.5-0.2-0.6c-0.1-0.1-0.3-0.2-0.6-0.2H326v1.5H326.8z M329.4,56.9
			v-6.3h1.4v6.3H329.4z"/>
		<path fill="#2E3135" d="M335.2,56.9v-3.4h0l-1.8,3.4h-1.3v-6.3h1.4v3.6h0l1.9-3.6h1.2v6.3H335.2z M334.4,50.3
			c-0.3,0-0.5-0.1-0.7-0.2c-0.2-0.1-0.3-0.2-0.5-0.4c-0.1-0.2-0.2-0.3-0.3-0.5s-0.1-0.3-0.1-0.5h1c0,0.1,0,0.1,0,0.2
			c0,0.1,0.1,0.1,0.1,0.2c0,0.1,0.1,0.1,0.2,0.2s0.1,0.1,0.2,0.1c0.1,0,0.2,0,0.2-0.1s0.1-0.1,0.2-0.2c0-0.1,0.1-0.1,0.1-0.2
			c0-0.1,0-0.1,0-0.2h1c0,0.2,0,0.3-0.1,0.5c-0.1,0.2-0.2,0.3-0.3,0.5c-0.1,0.2-0.3,0.3-0.5,0.4C334.9,50.3,334.7,50.3,334.4,50.3z"
			/>
		<path fill="#2E3135" d="M250.5,63.9h1.5v-0.6c0-0.1,0-0.1,0-0.2c0-0.1,0-0.2-0.1-0.2c0-0.1-0.1-0.1-0.2-0.2
			c-0.1,0-0.2-0.1-0.4-0.1c-0.1,0-0.2,0-0.3,0.1c-0.1,0.1-0.2,0.1-0.2,0.2c-0.1,0.1-0.1,0.1-0.2,0.2c0,0.1-0.1,0.2-0.1,0.2l-1.3-0.4
			c0-0.2,0.1-0.4,0.2-0.6c0.1-0.2,0.2-0.4,0.4-0.5s0.4-0.3,0.6-0.3s0.5-0.1,0.8-0.1c0.4,0,0.7,0.1,1,0.2c0.3,0.1,0.5,0.3,0.6,0.5
			c0.2,0.2,0.3,0.4,0.3,0.6c0.1,0.2,0.1,0.5,0.1,0.7v2.2c0,0.3,0,0.6-0.1,0.8s-0.2,0.5-0.4,0.7c-0.2,0.2-0.4,0.3-0.7,0.5
			c-0.3,0.1-0.6,0.2-1,0.2c-0.5,0-1-0.1-1.4-0.4c-0.4-0.3-0.6-0.7-0.7-1.1l1.3-0.4c0,0.2,0.1,0.4,0.3,0.5c0.1,0.1,0.3,0.2,0.5,0.2
			c0.3,0,0.5-0.1,0.6-0.2s0.2-0.4,0.2-0.6v-0.6h-1.5V63.9z"/>
		<path fill="#2E3135" d="M258.9,61.4v6.3h-1.4v-5h-1.1v1.9c0,0.5,0,0.9-0.1,1.2c0,0.4-0.1,0.7-0.3,1c-0.1,0.3-0.3,0.5-0.6,0.7
			c-0.3,0.2-0.6,0.3-1,0.4l-0.3-1c0.2-0.1,0.4-0.2,0.6-0.3c0.1-0.1,0.2-0.3,0.3-0.4s0.1-0.4,0.1-0.6c0-0.2,0-0.5,0-0.8v-3.2H258.9z"
			/>
		<path fill="#2E3135" d="M260.3,67.7v-6.3h3.8v1.2h-2.5v1.3h2.1v1.2h-2.1v1.3h2.5v1.2H260.3z"/>
		<path fill="#2E3135" d="M265.2,67.7v-6.3h1.4v2.5h0.3c0.1,0,0.2,0,0.3,0c0.1,0,0.2-0.1,0.3-0.1c0.1-0.1,0.2-0.2,0.2-0.3
			c0.1-0.1,0.1-0.3,0.2-0.4l0.4-1.6h1.3l-0.5,1.9c-0.1,0.3-0.2,0.6-0.3,0.8c-0.2,0.2-0.3,0.3-0.5,0.4c0.3,0.1,0.5,0.2,0.6,0.4
			c0.1,0.2,0.3,0.4,0.3,0.7l0.5,2.1h-1.4l-0.4-1.7c-0.1-0.3-0.2-0.6-0.4-0.7c-0.1-0.1-0.3-0.2-0.6-0.2h-0.4v2.6H265.2z"/>
		<path fill="#2E3135" d="M272.9,62.6v5.1h-1.4v-5.1h-1.4v-1.2h4.2v1.2H272.9z"/>
		<path fill="#2E3135" d="M279.4,63.4c0,0.3,0,0.6-0.1,0.8s-0.2,0.5-0.4,0.6c-0.2,0.2-0.4,0.3-0.6,0.4c-0.3,0.1-0.5,0.1-0.9,0.1
			h-0.8v2.3h-1.4v-6.3h2.1c0.3,0,0.6,0,0.9,0.1c0.3,0.1,0.5,0.2,0.7,0.4c0.2,0.2,0.3,0.4,0.4,0.6C279.4,62.7,279.4,63,279.4,63.4z
			 M278.1,63.4c0-0.3-0.1-0.5-0.2-0.6c-0.1-0.1-0.3-0.2-0.6-0.2h-0.7v1.6h0.7c0.2,0,0.4-0.1,0.5-0.2S278.1,63.7,278.1,63.4z"/>
		<path fill="#2E3135" d="M284.4,65.7c0,0.3-0.1,0.6-0.2,0.8c-0.1,0.2-0.2,0.5-0.4,0.6s-0.4,0.3-0.7,0.4c-0.3,0.1-0.5,0.1-0.8,0.1
			c-0.4,0-0.7-0.1-1-0.2c-0.3-0.1-0.5-0.3-0.7-0.5c-0.2-0.2-0.3-0.4-0.4-0.7s-0.1-0.5-0.1-0.8v-2.2c0-0.2,0-0.5,0.1-0.7
			c0.1-0.2,0.2-0.5,0.4-0.6c0.2-0.2,0.4-0.3,0.7-0.5s0.6-0.2,1-0.2c0.4,0,0.7,0.1,0.9,0.2s0.5,0.3,0.7,0.5c0.2,0.2,0.3,0.4,0.4,0.6
			c0.1,0.2,0.1,0.5,0.1,0.7V65.7z M283,63.3c0-0.1,0-0.1,0-0.2c0-0.1-0.1-0.2-0.1-0.2s-0.1-0.1-0.2-0.2c-0.1-0.1-0.2-0.1-0.3-0.1
			c-0.1,0-0.3,0-0.3,0.1c-0.1,0-0.2,0.1-0.2,0.2c-0.1,0.1-0.1,0.1-0.1,0.2c0,0.1,0,0.2,0,0.2v2.3c0,0.2,0.1,0.4,0.2,0.6
			c0.1,0.2,0.3,0.2,0.6,0.2c0.2,0,0.4-0.1,0.5-0.2s0.2-0.3,0.2-0.5V63.3z"/>
		<path fill="#2E3135" d="M289.7,65.7c0,0.3-0.1,0.6-0.2,0.8c-0.1,0.2-0.2,0.5-0.4,0.6c-0.2,0.2-0.4,0.3-0.7,0.4
			c-0.3,0.1-0.5,0.1-0.8,0.1c-0.4,0-0.7-0.1-1-0.2c-0.3-0.1-0.5-0.3-0.7-0.5c-0.2-0.2-0.3-0.4-0.4-0.7c-0.1-0.3-0.1-0.5-0.1-0.8
			v-2.2c0-0.2,0-0.5,0.1-0.7c0.1-0.2,0.2-0.5,0.4-0.6c0.2-0.2,0.4-0.3,0.7-0.5c0.3-0.1,0.6-0.2,1-0.2c0.4,0,0.7,0.1,0.9,0.2
			s0.5,0.3,0.7,0.5c0.2,0.2,0.3,0.4,0.4,0.6c0.1,0.2,0.1,0.5,0.1,0.7V65.7z M288.3,63.3c0-0.1,0-0.1,0-0.2c0-0.1-0.1-0.2-0.1-0.2
			s-0.1-0.1-0.2-0.2c-0.1-0.1-0.2-0.1-0.3-0.1s-0.3,0-0.3,0.1s-0.2,0.1-0.2,0.2s-0.1,0.1-0.1,0.2c0,0.1,0,0.2,0,0.2v2.3
			c0,0.2,0.1,0.4,0.2,0.6c0.1,0.2,0.3,0.2,0.6,0.2c0.2,0,0.4-0.1,0.5-0.2s0.2-0.3,0.2-0.5V63.3z"/>
		<path fill="#2E3135" d="M292.1,61.4v1.8c0,0.4,0.1,0.6,0.2,0.8c0.1,0.1,0.3,0.2,0.6,0.2c0.1,0,0.2,0,0.4,0c0.1,0,0.3-0.1,0.3-0.1
			v-2.7h1.4v6.3h-1.4v-2.5c-0.2,0.1-0.3,0.1-0.5,0.1c-0.2,0-0.4,0-0.5,0c-0.2,0-0.5,0-0.7-0.1c-0.2-0.1-0.4-0.2-0.5-0.3
			c-0.2-0.1-0.3-0.3-0.4-0.5s-0.1-0.5-0.1-0.8v-2.3H292.1z"/>
		<path fill="#2E3135" d="M299.4,67.7v-3.4h0l-1.8,3.4h-1.3v-6.3h1.4V65h0l1.9-3.6h1.2v6.3H299.4z"/>
		<path fill="#2E3135" d="M306.2,66.2c-0.1,0.5-0.3,0.9-0.7,1.1c-0.4,0.3-0.8,0.4-1.4,0.4c-0.4,0-0.7-0.1-1-0.2
			c-0.3-0.1-0.5-0.3-0.7-0.5c-0.2-0.2-0.3-0.4-0.4-0.7c-0.1-0.3-0.1-0.5-0.1-0.8v-2.2c0-0.2,0-0.5,0.1-0.7c0.1-0.2,0.2-0.5,0.4-0.6
			c0.2-0.2,0.4-0.3,0.7-0.5s0.6-0.2,1-0.2c0.3,0,0.6,0,0.8,0.1s0.4,0.2,0.6,0.3s0.3,0.3,0.4,0.5c0.1,0.2,0.2,0.4,0.2,0.6l-1.3,0.4
			c0-0.1,0-0.1-0.1-0.2c0-0.1-0.1-0.2-0.1-0.2c-0.1-0.1-0.1-0.1-0.2-0.2c-0.1,0-0.2-0.1-0.3-0.1c-0.1,0-0.3,0-0.3,0.1
			c-0.1,0-0.2,0.1-0.2,0.2s-0.1,0.1-0.1,0.2c0,0.1,0,0.2,0,0.2v2.3c0,0.2,0.1,0.4,0.2,0.6c0.1,0.2,0.3,0.2,0.6,0.2
			c0.2,0,0.4-0.1,0.5-0.2c0.1-0.1,0.2-0.3,0.3-0.5L306.2,66.2z"/>
		<path fill="#2E3135" d="M309.5,62.6v5.1h-1.4v-5.1h-1.4v-1.2h4.2v1.2H309.5z"/>
		<path fill="#2E3135" d="M314.9,67.7v-3.4h0l-1.8,3.4h-1.3v-6.3h1.4V65h0l1.9-3.6h1.2v6.3H314.9z"/>
		<path fill="#2E3135" d="M319.9,62.6v5.1h-1.4v-5.1h-1.4v-1.2h4.2v1.2H319.9z"/>
		<path fill="#2E3135" d="M322.2,67.7v-6.3h3.8v1.2h-2.5v1.3h2.1v1.2h-2.1v1.3h2.5v1.2H322.2z"/>
		<path fill="#2E3135" d="M331.3,61.4v6.3H330v-5h-1.1v1.9c0,0.5,0,0.9-0.1,1.2s-0.1,0.7-0.3,1c-0.1,0.3-0.3,0.5-0.6,0.7
			c-0.3,0.2-0.6,0.3-1,0.4l-0.3-1c0.2-0.1,0.4-0.2,0.6-0.3c0.1-0.1,0.2-0.3,0.3-0.4s0.1-0.4,0.1-0.6c0-0.2,0-0.5,0-0.8v-3.2H331.3z"
			/>
		<path fill="#2E3135" d="M337,65.7c0,0.3-0.1,0.6-0.2,0.9c-0.1,0.2-0.2,0.5-0.4,0.6c-0.2,0.2-0.4,0.3-0.7,0.4
			c-0.3,0.1-0.5,0.1-0.8,0.1h-2.2v-6.3h1.4v2.3h0.8c0.3,0,0.6,0,0.9,0.1c0.3,0.1,0.5,0.2,0.6,0.4s0.3,0.4,0.4,0.6S337,65.4,337,65.7
			z M335.6,65.7c0-0.3-0.1-0.5-0.2-0.6c-0.1-0.1-0.3-0.2-0.6-0.2h-0.8v1.5h0.8c0.3,0,0.4-0.1,0.6-0.2
			C335.6,66.1,335.6,65.9,335.6,65.7z"/>
	</g>
</g>
<g>
	<g>
		<path fill="#FFFFFF" d="M313.4,11.5V22h-2.7V11.5h-2.8V9h8.3v2.5H313.4z"/>
		<path fill="#FFFFFF" d="M325.5,18c0,0.6-0.1,1.2-0.3,1.7c-0.2,0.5-0.5,1-0.9,1.3s-0.8,0.6-1.3,0.8c-0.5,0.2-1.1,0.3-1.7,0.3
			c-0.7,0-1.4-0.1-1.9-0.4c-0.5-0.2-1-0.6-1.3-1c-0.3-0.4-0.6-0.9-0.7-1.4c-0.2-0.5-0.2-1.1-0.2-1.7v-4.6c0-0.5,0.1-1,0.2-1.5
			c0.1-0.5,0.4-0.9,0.7-1.3c0.3-0.4,0.8-0.7,1.3-1s1.2-0.4,1.9-0.4c0.7,0,1.3,0.1,1.8,0.4c0.5,0.2,1,0.6,1.3,1
			c0.3,0.4,0.6,0.8,0.8,1.3s0.3,1,0.3,1.5V18z M322.8,13c0-0.1,0-0.3-0.1-0.4c0-0.2-0.1-0.3-0.2-0.5s-0.3-0.3-0.4-0.4
			c-0.2-0.1-0.4-0.2-0.7-0.2c-0.3,0-0.5,0-0.7,0.1c-0.2,0.1-0.3,0.2-0.5,0.4c-0.1,0.1-0.2,0.3-0.3,0.5c-0.1,0.2-0.1,0.3-0.1,0.5v4.8
			c0,0.5,0.1,0.9,0.3,1.2s0.6,0.5,1.1,0.5c0.4,0,0.7-0.1,1-0.4s0.4-0.6,0.4-1V13z"/>
		<path fill="#FFFFFF" d="M335.8,13.2c0,0.6-0.1,1.2-0.3,1.7c-0.2,0.5-0.5,0.9-0.8,1.3c-0.3,0.4-0.8,0.6-1.3,0.8
			c-0.5,0.2-1.1,0.3-1.7,0.3h-1.6V22h-2.7V9h4.1c0.6,0,1.2,0.1,1.7,0.2s1,0.4,1.3,0.7s0.7,0.8,0.9,1.3
			C335.7,11.8,335.8,12.4,335.8,13.2z M333.2,13.1c0-0.6-0.1-1-0.4-1.2c-0.3-0.2-0.6-0.4-1.1-0.4h-1.4v3.2h1.4
			c0.4,0,0.8-0.1,1.1-0.4C333,14.2,333.2,13.7,333.2,13.1z"/>
		<path fill="#FFFFFF" d="M195.1,42V29h7.6v2.5h-4.9v2.7h4.2v2.5h-4.2v2.8h4.9V42H195.1z"/>
		<path fill="#FFFFFF" d="M204.3,42V29h2.7v10.4h4.9V42H204.3z"/>
		<path fill="#FFFFFF" d="M213.3,42V29h7.6v2.5H216v2.7h4.2v2.5H216v2.8h4.9V42H213.3z"/>
		<path fill="#FFFFFF" d="M230.4,38.9c-0.2,1-0.6,1.8-1.4,2.4c-0.7,0.6-1.6,0.9-2.7,0.9c-0.7,0-1.4-0.1-1.9-0.4
			c-0.5-0.2-1-0.6-1.3-1c-0.3-0.4-0.6-0.9-0.7-1.4c-0.2-0.5-0.2-1.1-0.2-1.7v-4.6c0-0.5,0.1-1,0.2-1.5c0.1-0.5,0.4-0.9,0.7-1.3
			s0.8-0.7,1.3-1s1.2-0.4,1.9-0.4c0.6,0,1.1,0.1,1.6,0.3c0.5,0.2,0.9,0.4,1.2,0.7c0.3,0.3,0.6,0.6,0.8,1s0.4,0.8,0.4,1.2l-2.6,0.8
			c0-0.1-0.1-0.3-0.1-0.4c-0.1-0.2-0.1-0.3-0.3-0.5s-0.3-0.3-0.5-0.4c-0.2-0.1-0.4-0.1-0.7-0.1c-0.3,0-0.5,0-0.7,0.1
			c-0.2,0.1-0.3,0.2-0.4,0.4c-0.1,0.1-0.2,0.3-0.2,0.5s-0.1,0.3-0.1,0.5v4.8c0,0.5,0.1,0.9,0.3,1.2s0.6,0.5,1.1,0.5
			c0.4,0,0.7-0.1,1-0.4c0.3-0.2,0.5-0.6,0.5-1L230.4,38.9z"/>
		<path fill="#FFFFFF" d="M236.5,31.5V42h-2.7V31.5H231V29h8.3v2.5H236.5z"/>
		<path fill="#FFFFFF" d="M246.2,42l-1.7-5.1h-1.1V42h-2.7V29h4.3c0.5,0,1.1,0.1,1.6,0.2s0.9,0.4,1.3,0.7c0.4,0.3,0.7,0.7,0.9,1.2
			c0.2,0.5,0.3,1.1,0.3,1.7c0,0.8-0.2,1.6-0.5,2.1c-0.3,0.6-0.8,1.1-1.4,1.4l2.1,5.6H246.2z M246.3,32.9c0-0.5-0.1-0.9-0.4-1.1
			s-0.6-0.3-1.1-0.3h-1.5v2.9h1.5c0.4,0,0.8-0.1,1.1-0.3C246.2,33.9,246.3,33.5,246.3,32.9z"/>
		<path fill="#FFFFFF" d="M258.9,38c0,0.6-0.1,1.2-0.3,1.7c-0.2,0.5-0.5,1-0.9,1.3s-0.8,0.6-1.3,0.8c-0.5,0.2-1.1,0.3-1.7,0.3
			c-0.7,0-1.4-0.1-1.9-0.4c-0.5-0.2-1-0.6-1.3-1c-0.3-0.4-0.6-0.9-0.7-1.4c-0.2-0.5-0.2-1.1-0.2-1.7v-4.6c0-0.5,0.1-1,0.2-1.5
			c0.1-0.5,0.4-0.9,0.7-1.3c0.3-0.4,0.8-0.7,1.3-1s1.2-0.4,1.9-0.4c0.7,0,1.3,0.1,1.8,0.4c0.5,0.2,1,0.6,1.3,1
			c0.3,0.4,0.6,0.8,0.8,1.3s0.3,1,0.3,1.5V38z M256.1,33c0-0.1,0-0.3-0.1-0.4c0-0.2-0.1-0.3-0.2-0.5s-0.3-0.3-0.4-0.4
			c-0.2-0.1-0.4-0.2-0.7-0.2c-0.3,0-0.5,0-0.7,0.1c-0.2,0.1-0.3,0.2-0.5,0.4c-0.1,0.1-0.2,0.3-0.3,0.5c-0.1,0.2-0.1,0.3-0.1,0.5v4.8
			c0,0.5,0.1,0.9,0.3,1.2s0.6,0.5,1.1,0.5c0.4,0,0.7-0.1,1-0.4c0.3-0.2,0.4-0.6,0.4-1V33z"/>
		<path fill="#FFFFFF" d="M260.6,38.2v-2.3h6v2.3H260.6z"/>
		<path fill="#FFFFFF" d="M276.5,38.9c-0.2,1-0.6,1.8-1.4,2.4c-0.7,0.6-1.6,0.9-2.7,0.9c-0.7,0-1.4-0.1-1.9-0.4
			c-0.5-0.2-1-0.6-1.3-1c-0.3-0.4-0.6-0.9-0.7-1.4c-0.2-0.5-0.2-1.1-0.2-1.7v-4.6c0-0.5,0.1-1,0.2-1.5c0.1-0.5,0.4-0.9,0.7-1.3
			s0.8-0.7,1.3-1s1.2-0.4,1.9-0.4c0.6,0,1.1,0.1,1.6,0.3c0.5,0.2,0.9,0.4,1.2,0.7c0.3,0.3,0.6,0.6,0.8,1s0.4,0.8,0.4,1.2l-2.6,0.8
			c0-0.1-0.1-0.3-0.1-0.4c-0.1-0.2-0.1-0.3-0.3-0.5s-0.3-0.3-0.5-0.4c-0.2-0.1-0.4-0.1-0.7-0.1c-0.3,0-0.5,0-0.7,0.1
			c-0.2,0.1-0.3,0.2-0.4,0.4c-0.1,0.1-0.2,0.3-0.2,0.5S271,32.9,271,33v4.8c0,0.5,0.1,0.9,0.3,1.2s0.6,0.5,1.1,0.5
			c0.4,0,0.7-0.1,1-0.4c0.3-0.2,0.5-0.6,0.5-1L276.5,38.9z"/>
		<path fill="#FFFFFF" d="M278.1,42V29h2.7v10.4h4.9V42H278.1z"/>
		<path fill="#FFFFFF" d="M287.1,42V29h7.6v2.5h-4.9v2.7h4.2v2.5h-4.2v2.8h4.9V42H287.1z"/>
		<path fill="#FFFFFF" d="M301.9,39.4h-3.1c-0.1,0.4-0.2,0.9-0.3,1.3s-0.2,0.9-0.4,1.3h-2.9l3.8-13h2.7l3.8,13h-2.9L301.9,39.4z
			 M299.8,35.1l-0.4,1.9h1.9l-0.4-1.8l-0.5-2.6h-0.1L299.8,35.1z"/>
		<path fill="#FFFFFF" d="M313.2,42l-2.4-4.3l-1.4-2.7l-0.1,0V42h-2.7V29h2.4l2.1,3.9l1.7,3.1l0.1,0v-7h2.7v13H313.2z"/>
		<path fill="#FFFFFF" d="M317.8,42V29h7.6v2.5h-4.9v2.7h4.2v2.5h-4.2v2.8h4.9V42H317.8z"/>
		<path fill="#FFFFFF" d="M332.5,42l-1.7-5.1h-1.1V42h-2.7V29h4.3c0.5,0,1.1,0.1,1.6,0.2s0.9,0.4,1.3,0.7c0.4,0.3,0.7,0.7,0.9,1.2
			s0.3,1.1,0.3,1.7c0,0.8-0.2,1.6-0.5,2.1c-0.3,0.6-0.8,1.1-1.4,1.4l2.1,5.6H332.5z M332.7,32.9c0-0.5-0.1-0.9-0.4-1.1
			s-0.6-0.3-1.1-0.3h-1.5v2.9h1.5c0.4,0,0.8-0.1,1.1-0.3C332.5,33.9,332.7,33.5,332.7,32.9z"/>
	</g>
</g>
<rect x="-2.5" y="23.8" fill="#FFFFFF" width="9" height="31"/>
<g>
	<g>
		<g>
			<polygon fill="#DC8347" points="21.9,83.7 21.9,39.2 5.5,39.2 5.5,22.9 56.5,22.9 56.5,39.2 40,39.2 40,83.7 			"/>
			<path fill="#FFFFFF" d="M53.5,25.9v10.2H37v44.6H24.9V36.2H8.5V25.9H53.5 M59.5,19.9h-6h-45h-6v6v10.2v6h6h10.5v38.6v6h6H37h6v-6
				V42.2h10.5h6v-6V25.9V19.9L59.5,19.9z"/>
		</g>
		<g>
			<polygon fill="#DC8347" points="55.8,83.7 55.8,22.9 102.9,22.9 102.9,38.8 73.8,38.8 73.8,44.7 100.5,44.7 100.5,60.2 
				73.8,60.2 73.8,67.7 103.5,67.7 103.5,83.7 			"/>
			<path fill="#FFFFFF" d="M99.9,25.9v9.9H70.8v11.9h26.8v9.5H70.8v13.5h29.7v10.1H58.8V25.9H99.9 M105.9,19.9h-6H58.8h-6v6v54.8v6
				h6h41.7h6v-6V70.7v-6h-6H76.8v-1.5h20.8h6v-6v-9.5v-5.9h2.4v-6v-9.9V19.9L105.9,19.9z"/>
		</g>
		<g>
			<path fill="#DC8347" d="M132.1,85.1c-8.8,0-16-3-21.4-8.9c-5.4-5.8-8.1-13.5-8.1-22.9c0-8.9,2.7-16.5,8.1-22.5
				c5.5-6.1,12.8-9.2,21.8-9.2c7.2,0,13.4,2.1,18.3,6.2c5,4.2,7.9,9.6,8.4,16.1l0.3,3.2h-17.5l-0.5-2.4c-0.5-2.3-1.5-4.1-3-5.3
				c-1.6-1.3-3.6-1.9-6.2-1.9c-2.6,0-4.8,0.7-6.5,2.1c-1.9,1.5-3.1,3.3-3.9,5.5c-0.8,2.4-1.2,5.1-1.2,8c0,4.9,1.1,8.9,3.3,11.7
				c2,2.6,4.7,3.9,8.2,3.9c3.9,0,8.5-1.1,9.6-9.7l0.3-2.6H160l-0.3,3.3c-0.7,7.6-3.4,13.7-8.1,18.3
				C146.8,82.7,140.2,85.1,132.1,85.1z"/>
			<path fill="#FFFFFF" d="M132.6,24.6c6.5,0,12,1.8,16.4,5.5c4.4,3.7,6.9,8.4,7.3,14.1h-11.8c-0.6-3-2-5.4-4.1-7
				c-2.1-1.7-4.8-2.5-8-2.5c-3.3,0-6.1,0.9-8.4,2.8c-2.3,1.9-3.9,4.2-4.8,6.9c-0.9,2.7-1.4,5.7-1.4,8.9c0,5.6,1.3,10.2,3.9,13.5
				c2.6,3.4,6.1,5,10.5,5c7.3,0,11.5-4.1,12.6-12.3h11.9c-0.6,6.9-3,12.3-7.2,16.4c-4.2,4.1-10,6.1-17.3,6.1c-8,0-14.4-2.6-19.2-7.9
				c-4.9-5.3-7.3-12.2-7.3-20.9c0-8.2,2.5-15,7.4-20.5C117.9,27.3,124.4,24.6,132.6,24.6 M132.6,18.6c-9.9,0-18,3.4-24.1,10.1
				c-5.9,6.6-8.9,14.8-8.9,24.5c0,10.2,3,18.6,8.9,25c6,6.5,14,9.8,23.6,9.8c8.9,0,16.1-2.6,21.5-7.8c5.3-5.1,8.3-11.9,9.1-20.2
				l0.6-6.5h-6.6h-11.9h-5.3l-0.7,5.3c-0.8,6.5-3.6,7.1-6.6,7.1c-2.6,0-4.3-0.8-5.8-2.7c-1.8-2.3-2.7-5.6-2.7-9.8
				c0-2.6,0.4-4.9,1.1-7c0.6-1.7,1.5-3,2.9-4.2c1.2-1,2.7-1.4,4.6-1.4c1.9,0,3.3,0.4,4.3,1.2c0.6,0.5,1.5,1.4,1.9,3.5l1,4.8h4.9
				h11.8h6.5l-0.5-6.5c-0.6-7.3-3.8-13.5-9.4-18.2C147.3,21,140.5,18.6,132.6,18.6L132.6,18.6z"/>
		</g>
	</g>
</g>
<rect x="126.5" y="38.8" fill="#FFFFFF" width="11" height="8"/>
<rect x="-8.5" y="19.8" fill="#FFFFFF" width="115" height="5"/>
<rect x="104.5" y="19.8" fill="#FFFFFF" width="2" height="14"/>
</svg>
