<?xml version="1.0" encoding="utf-8"?>
<!-- Generator: Adobe Illustrator 17.1.0, SVG Export Plug-In . SVG Version: 6.00 Build 0)  -->
<!DOCTYPE svg PUBLIC "-//W3C//DTD SVG 1.1//EN" "http://www.w3.org/Graphics/SVG/1.1/DTD/svg11.dtd">
<svg version="1.1" id="Layer_1" xmlns="http://www.w3.org/2000/svg" xmlns:xlink="http://www.w3.org/1999/xlink" x="0px" y="0px"
	 viewBox="0 0 365.5 83.3" enable-background="new 0 0 365.5 83.3" xml:space="preserve">
<g>
	<polygon points="0.7,-2.8 0.7,44 69.5,44 89.3,-2.8 	"/>
	<polygon fill="#2E3135" points="87.6,-2.8 67.8,44 161.3,44 181.1,-2.8 	"/>
	<polygon points="179.5,-2.8 159.7,44 253.2,44 273,-2.8 	"/>
	<polygon fill="#2E3135" points="342.1,44 362.1,-2.8 271.3,-2.8 251.5,44 	"/>
	<rect x="-5.5" y="41.8" fill="#FFFFFF" width="376" height="11"/>
</g>
<rect x="90.5" y="43.8" fill="#FFFFFF" width="14" height="6"/>
<g>
	<g>
		<path fill="#2E3135" d="M258.4,55c0,0.3,0,0.6-0.1,0.8c-0.1,0.2-0.2,0.4-0.4,0.6c-0.2,0.2-0.4,0.3-0.6,0.4
			c-0.2,0.1-0.5,0.1-0.8,0.1h-2.2v-6.3h2.1c0.6,0,1.1,0.2,1.5,0.5s0.5,0.7,0.5,1.3c0,0.2-0.1,0.5-0.2,0.7c-0.1,0.2-0.3,0.4-0.6,0.5
			v0c0.2,0,0.3,0.1,0.4,0.2c0.1,0.1,0.2,0.2,0.3,0.3s0.1,0.3,0.2,0.4C258.4,54.7,258.4,54.8,258.4,55z M257,52.4
			c0-0.2-0.1-0.4-0.2-0.5c-0.1-0.1-0.3-0.2-0.5-0.2h-0.7v1.3h0.7c0.3,0,0.4-0.1,0.5-0.2S257,52.6,257,52.4z M257.1,54.9
			c0-0.2-0.1-0.4-0.2-0.5s-0.3-0.2-0.5-0.2h-0.8v1.4h0.8c0.3,0,0.5-0.1,0.6-0.2C257,55.3,257.1,55.1,257.1,54.9z"/>
		<path fill="#2E3135" d="M263.6,54.9c0,0.3-0.1,0.6-0.2,0.8c-0.1,0.2-0.2,0.5-0.4,0.6c-0.2,0.2-0.4,0.3-0.7,0.4
			c-0.3,0.1-0.5,0.1-0.8,0.1c-0.4,0-0.7-0.1-1-0.2c-0.3-0.1-0.5-0.3-0.7-0.5c-0.2-0.2-0.3-0.4-0.4-0.7c-0.1-0.3-0.1-0.5-0.1-0.8
			v-2.2c0-0.2,0-0.5,0.1-0.7c0.1-0.2,0.2-0.5,0.4-0.6c0.2-0.2,0.4-0.3,0.7-0.5c0.3-0.1,0.6-0.2,1-0.2c0.4,0,0.7,0.1,0.9,0.2
			s0.5,0.3,0.7,0.5c0.2,0.2,0.3,0.4,0.4,0.6c0.1,0.2,0.1,0.5,0.1,0.7V54.9z M262.3,52.5c0-0.1,0-0.1,0-0.2c0-0.1-0.1-0.2-0.1-0.2
			s-0.1-0.1-0.2-0.2c-0.1-0.1-0.2-0.1-0.3-0.1s-0.3,0-0.3,0.1S261,52,261,52.1s-0.1,0.1-0.1,0.2c0,0.1,0,0.2,0,0.2v2.3
			c0,0.2,0.1,0.4,0.2,0.6c0.1,0.2,0.3,0.2,0.6,0.2c0.2,0,0.4-0.1,0.5-0.2s0.2-0.3,0.2-0.5V52.5z"/>
		<path fill="#2E3135" d="M265.6,56.9v1.3h-1.1v-2.4l0.6-0.1c0.1-0.1,0.2-0.3,0.3-0.4s0.1-0.3,0.2-0.5c0-0.2,0.1-0.4,0.1-0.7
			s0-0.5,0-0.9l0.1-2.5h3.8v5.1h0.6v2.5h-1.1v-1.3H265.6z M266.8,53.4c0,0.2,0,0.4,0,0.6s0,0.4-0.1,0.6c0,0.2-0.1,0.4-0.1,0.6
			c0,0.2-0.1,0.3-0.2,0.4h1.7v-3.9h-1.2L266.8,53.4z"/>
		<path fill="#2E3135" d="M275.2,54.9c0,0.3-0.1,0.6-0.2,0.8c-0.1,0.2-0.2,0.5-0.4,0.6s-0.4,0.3-0.7,0.4c-0.3,0.1-0.5,0.1-0.8,0.1
			c-0.4,0-0.7-0.1-1-0.2c-0.3-0.1-0.5-0.3-0.7-0.5c-0.2-0.2-0.3-0.4-0.4-0.7s-0.1-0.5-0.1-0.8v-2.2c0-0.2,0-0.5,0.1-0.7
			c0.1-0.2,0.2-0.5,0.4-0.6c0.2-0.2,0.4-0.3,0.7-0.5s0.6-0.2,1-0.2c0.4,0,0.7,0.1,0.9,0.2s0.5,0.3,0.7,0.5c0.2,0.2,0.3,0.4,0.4,0.6
			c0.1,0.2,0.1,0.5,0.1,0.7V54.9z M273.8,52.5c0-0.1,0-0.1,0-0.2c0-0.1-0.1-0.2-0.1-0.2s-0.1-0.1-0.2-0.2c-0.1-0.1-0.2-0.1-0.3-0.1
			c-0.1,0-0.3,0-0.3,0.1c-0.1,0-0.2,0.1-0.2,0.2c-0.1,0.1-0.1,0.1-0.1,0.2c0,0.1,0,0.2,0,0.2v2.3c0,0.2,0.1,0.4,0.2,0.6
			c0.1,0.2,0.3,0.2,0.6,0.2c0.2,0,0.4-0.1,0.5-0.2s0.2-0.3,0.2-0.5V52.5z"/>
		<path fill="#2E3135" d="M280.6,52.6c0,0.3,0,0.6-0.1,0.8c-0.1,0.2-0.2,0.5-0.4,0.6c-0.2,0.2-0.4,0.3-0.6,0.4
			c-0.3,0.1-0.5,0.1-0.8,0.1h-0.8v2.3h-1.4v-6.3h2.1c0.3,0,0.6,0,0.9,0.1c0.3,0.1,0.5,0.2,0.7,0.4s0.3,0.4,0.4,0.6
			C280.6,51.9,280.6,52.2,280.6,52.6z M279.3,52.6c0-0.3-0.1-0.5-0.2-0.6c-0.1-0.1-0.3-0.2-0.6-0.2h-0.7v1.6h0.7
			c0.2,0,0.4-0.1,0.5-0.2C279.2,53.1,279.3,52.9,279.3,52.6z"/>
		<path fill="#2E3135" d="M284,55.6h-1.6c-0.1,0.2-0.1,0.4-0.2,0.6c-0.1,0.2-0.1,0.4-0.2,0.6h-1.4l1.9-6.3h1.4l1.9,6.3h-1.5
			L284,55.6z M283,53.5l-0.2,0.9h0.9l-0.2-0.9l-0.3-1.3h0L283,53.5z"/>
		<path fill="#2E3135" d="M290.7,55.4c-0.1,0.5-0.3,0.9-0.7,1.1c-0.4,0.3-0.8,0.4-1.4,0.4c-0.4,0-0.7-0.1-1-0.2
			c-0.3-0.1-0.5-0.3-0.7-0.5c-0.2-0.2-0.3-0.4-0.4-0.7s-0.1-0.5-0.1-0.8v-2.2c0-0.2,0-0.5,0.1-0.7c0.1-0.2,0.2-0.5,0.4-0.6
			c0.2-0.2,0.4-0.3,0.7-0.5c0.3-0.1,0.6-0.2,1-0.2c0.3,0,0.6,0,0.8,0.1s0.4,0.2,0.6,0.3c0.2,0.1,0.3,0.3,0.4,0.5
			c0.1,0.2,0.2,0.4,0.2,0.6l-1.3,0.4c0-0.1,0-0.1-0.1-0.2c0-0.1-0.1-0.2-0.1-0.2c-0.1-0.1-0.1-0.1-0.2-0.2c-0.1,0-0.2-0.1-0.3-0.1
			c-0.1,0-0.3,0-0.3,0.1s-0.2,0.1-0.2,0.2s-0.1,0.1-0.1,0.2c0,0.1,0,0.2,0,0.2v2.3c0,0.2,0.1,0.4,0.2,0.6c0.1,0.2,0.3,0.2,0.6,0.2
			c0.2,0,0.4-0.1,0.5-0.2c0.1-0.1,0.2-0.3,0.3-0.5L290.7,55.4z"/>
		<path fill="#2E3135" d="M294,51.8v5.1h-1.4v-5.1h-1.4v-1.2h4.2v1.2H294z"/>
		<path fill="#2E3135" d="M300.5,55c0,0.3,0,0.6-0.1,0.8c-0.1,0.2-0.2,0.4-0.4,0.6c-0.2,0.2-0.4,0.3-0.6,0.4
			c-0.2,0.1-0.5,0.1-0.8,0.1h-2.2v-6.3h2.1c0.6,0,1.1,0.2,1.5,0.5s0.5,0.7,0.5,1.3c0,0.2-0.1,0.5-0.2,0.7c-0.1,0.2-0.3,0.4-0.6,0.5
			v0c0.2,0,0.3,0.1,0.4,0.2c0.1,0.1,0.2,0.2,0.3,0.3s0.1,0.3,0.2,0.4C300.5,54.7,300.5,54.8,300.5,55z M299.1,52.4
			c0-0.2-0.1-0.4-0.2-0.5c-0.1-0.1-0.3-0.2-0.5-0.2h-0.7v1.3h0.7c0.3,0,0.4-0.1,0.5-0.2S299.1,52.6,299.1,52.4z M299.2,54.9
			c0-0.2-0.1-0.4-0.2-0.5s-0.3-0.2-0.5-0.2h-0.8v1.4h0.8c0.3,0,0.5-0.1,0.6-0.2C299.1,55.3,299.2,55.1,299.2,54.9z"/>
		<path fill="#2E3135" d="M305.8,54.9c0,0.3-0.1,0.6-0.2,0.8c-0.1,0.2-0.2,0.5-0.4,0.6s-0.4,0.3-0.7,0.4c-0.3,0.1-0.5,0.1-0.8,0.1
			c-0.4,0-0.7-0.1-1-0.2c-0.3-0.1-0.5-0.3-0.7-0.5c-0.2-0.2-0.3-0.4-0.4-0.7s-0.1-0.5-0.1-0.8v-2.2c0-0.2,0-0.5,0.1-0.7
			c0.1-0.2,0.2-0.5,0.4-0.6c0.2-0.2,0.4-0.3,0.7-0.5s0.6-0.2,1-0.2c0.4,0,0.7,0.1,0.9,0.2s0.5,0.3,0.7,0.5c0.2,0.2,0.3,0.4,0.4,0.6
			c0.1,0.2,0.1,0.5,0.1,0.7V54.9z M304.4,52.5c0-0.1,0-0.1,0-0.2c0-0.1-0.1-0.2-0.1-0.2s-0.1-0.1-0.2-0.2c-0.1-0.1-0.2-0.1-0.3-0.1
			c-0.1,0-0.3,0-0.3,0.1c-0.1,0-0.2,0.1-0.2,0.2c-0.1,0.1-0.1,0.1-0.1,0.2c0,0.1,0,0.2,0,0.2v2.3c0,0.2,0.1,0.4,0.2,0.6
			c0.1,0.2,0.3,0.2,0.6,0.2c0.2,0,0.4-0.1,0.5-0.2s0.2-0.3,0.2-0.5V52.5z"/>
		<path fill="#2E3135" d="M311.2,52.6c0,0.3,0,0.6-0.1,0.8s-0.2,0.5-0.4,0.6c-0.2,0.2-0.4,0.3-0.6,0.4c-0.3,0.1-0.5,0.1-0.9,0.1
			h-0.8v2.3H307v-6.3h2.1c0.3,0,0.6,0,0.9,0.1c0.3,0.1,0.5,0.2,0.7,0.4c0.2,0.2,0.3,0.4,0.4,0.6C311.1,51.9,311.2,52.2,311.2,52.6z
			 M309.9,52.6c0-0.3-0.1-0.5-0.2-0.6c-0.1-0.1-0.3-0.2-0.6-0.2h-0.7v1.6h0.7c0.2,0,0.4-0.1,0.5-0.2S309.9,52.9,309.9,52.6z"/>
		<path fill="#2E3135" d="M315.2,56.9v-3.4h0l-1.8,3.4h-1.3v-6.3h1.4v3.6h0l1.9-3.6h1.2v6.3H315.2z"/>
		<path fill="#2E3135" d="M322,56.9v-3l0,0l-0.5,1.1l-0.3,0.8h-1l-0.4-0.9l-0.4-1.1l0,0v3h-1.4v-6.3h1.3l0.8,1.7l0.7,1.6h0l0.6-1.6
			l0.8-1.7h1.3v6.3H322z"/>
		<path fill="#2E3135" d="M324.6,56.9v-6.3h1.4V53h0.8c0.3,0,0.6,0,0.9,0.1c0.3,0.1,0.5,0.2,0.6,0.4s0.3,0.4,0.4,0.6
			c0.1,0.2,0.1,0.5,0.1,0.8c0,0.3,0,0.6-0.1,0.9s-0.2,0.5-0.4,0.6c-0.2,0.2-0.4,0.3-0.7,0.4c-0.3,0.1-0.5,0.1-0.8,0.1H324.6z
			 M326.8,55.7c0.3,0,0.4-0.1,0.6-0.2s0.2-0.3,0.2-0.6c0-0.3-0.1-0.5-0.2-0.6c-0.1-0.1-0.3-0.2-0.6-0.2H326v1.5H326.8z M329.4,56.9
			v-6.3h1.4v6.3H329.4z"/>
		<path fill="#2E3135" d="M335.2,56.9v-3.4h0l-1.8,3.4h-1.3v-6.3h1.4v3.6h0l1.9-3.6h1.2v6.3H335.2z M334.4,50.3
			c-0.3,0-0.5-0.1-0.7-0.2c-0.2-0.1-0.3-0.2-0.5-0.4c-0.1-0.2-0.2-0.3-0.3-0.5s-0.1-0.3-0.1-0.5h1c0,0.1,0,0.1,0,0.2
			c0,0.1,0.1,0.1,0.1,0.2c0,0.1,0.1,0.1,0.2,0.2s0.1,0.1,0.2,0.1c0.1,0,0.2,0,0.2-0.1c0.1,0,0.1-0.1,0.2-0.2c0-0.1,0.1-0.1,0.1-0.2
			c0-0.1,0-0.1,0-0.2h1c0,0.2,0,0.3-0.1,0.5s-0.1,0.3-0.3,0.5c-0.1,0.2-0.3,0.3-0.5,0.4C334.9,50.3,334.7,50.3,334.4,50.3z"/>
		<path fill="#2E3135" d="M213,64.5l0.4-1.4c0.1-0.3,0.2-0.6,0.2-0.9c0.1-0.3,0.2-0.6,0.2-0.9h1.3l-1.4,4.4c0,0.1-0.1,0.2-0.1,0.3
			s-0.1,0.2-0.1,0.3c-0.1,0.3-0.2,0.5-0.3,0.6c-0.1,0.2-0.2,0.3-0.4,0.4s-0.3,0.2-0.5,0.2c-0.2,0-0.3,0.1-0.5,0.1h-0.5v-1.1h0.3
			c0.1,0,0.2,0,0.3-0.1s0.2-0.1,0.3-0.3c0,0,0-0.1,0-0.1c0,0,0-0.1,0-0.1l-1.8-4.7h1.4l0.5,1.7L213,64.5L213,64.5z"/>
		<path fill="#2E3135" d="M218.7,67.7v-2.6h-1.5v2.6h-1.4v-6.3h1.4v2.5h1.5v-2.5h1.4v6.3H218.7z"/>
		<path fill="#2E3135" d="M224.6,67.7v-3.4h0l-1.8,3.4h-1.3v-6.3h1.4V65h0l1.9-3.6h1.2v6.3H224.6z"/>
		<path fill="#2E3135" d="M231.5,65.8c0,0.3,0,0.6-0.1,0.8c-0.1,0.2-0.2,0.4-0.4,0.6s-0.4,0.3-0.6,0.4s-0.5,0.1-0.8,0.1h-2.2v-6.3
			h2.1c0.6,0,1.1,0.2,1.5,0.5s0.5,0.7,0.5,1.3c0,0.2-0.1,0.5-0.2,0.7c-0.1,0.2-0.3,0.4-0.6,0.5v0c0.2,0,0.3,0.1,0.4,0.2
			c0.1,0.1,0.2,0.2,0.3,0.3s0.1,0.3,0.2,0.4C231.4,65.5,231.5,65.6,231.5,65.8z M230,63.2c0-0.2-0.1-0.4-0.2-0.5
			c-0.1-0.1-0.3-0.2-0.5-0.2h-0.7v1.3h0.7c0.3,0,0.4-0.1,0.5-0.2C230,63.6,230,63.4,230,63.2z M230.1,65.7c0-0.2-0.1-0.4-0.2-0.5
			s-0.3-0.2-0.5-0.2h-0.8v1.4h0.8c0.3,0,0.5-0.1,0.6-0.2C230.1,66.1,230.1,65.9,230.1,65.7z"/>
		<path fill="#2E3135" d="M232.6,67.7v-6.3h3.8v1.2H234v1.3h2.1v1.2H234v1.3h2.5v1.2H232.6z"/>
		<path fill="#2E3135" d="M241.7,63.4c0,0.3,0,0.6-0.1,0.8s-0.2,0.5-0.4,0.6c-0.2,0.2-0.4,0.3-0.6,0.4c-0.3,0.1-0.5,0.1-0.9,0.1
			h-0.8v2.3h-1.4v-6.3h2.1c0.3,0,0.6,0,0.9,0.1c0.3,0.1,0.5,0.2,0.7,0.4c0.2,0.2,0.3,0.4,0.4,0.6C241.7,62.7,241.7,63,241.7,63.4z
			 M240.4,63.4c0-0.3-0.1-0.5-0.2-0.6c-0.1-0.1-0.3-0.2-0.6-0.2h-0.7v1.6h0.7c0.2,0,0.4-0.1,0.5-0.2S240.4,63.7,240.4,63.4z"/>
		<path fill="#2E3135" d="M246.7,66.2c-0.1,0.5-0.3,0.9-0.7,1.1c-0.4,0.3-0.8,0.4-1.4,0.4c-0.4,0-0.7-0.1-1-0.2
			c-0.3-0.1-0.5-0.3-0.7-0.5c-0.2-0.2-0.3-0.4-0.4-0.7s-0.1-0.5-0.1-0.8v-2.2c0-0.2,0-0.5,0.1-0.7c0.1-0.2,0.2-0.5,0.4-0.6
			c0.2-0.2,0.4-0.3,0.7-0.5c0.3-0.1,0.6-0.2,1-0.2c0.3,0,0.6,0,0.8,0.1s0.4,0.2,0.6,0.3c0.2,0.1,0.3,0.3,0.4,0.5
			c0.1,0.2,0.2,0.4,0.2,0.6l-1.3,0.4c0-0.1,0-0.1-0.1-0.2c0-0.1-0.1-0.2-0.1-0.2c-0.1-0.1-0.1-0.1-0.2-0.2c-0.1,0-0.2-0.1-0.3-0.1
			c-0.1,0-0.3,0-0.3,0.1s-0.2,0.1-0.2,0.2s-0.1,0.1-0.1,0.2c0,0.1,0,0.2,0,0.2v2.3c0,0.2,0.1,0.4,0.2,0.6c0.1,0.2,0.3,0.2,0.6,0.2
			c0.2,0,0.4-0.1,0.5-0.2c0.1-0.1,0.2-0.3,0.3-0.5L246.7,66.2z"/>
		<path fill="#2E3135" d="M250.6,66.4H249c-0.1,0.2-0.1,0.4-0.2,0.6c-0.1,0.2-0.1,0.4-0.2,0.6h-1.4l1.9-6.3h1.4l1.9,6.3h-1.5
			L250.6,66.4z M249.5,64.3l-0.2,0.9h0.9l-0.2-0.9l-0.3-1.3h0L249.5,64.3z"/>
		<path fill="#2E3135" d="M257.5,61.4v6.3h-1.4v-5H255v1.9c0,0.5,0,0.9-0.1,1.2s-0.1,0.7-0.3,1c-0.1,0.3-0.3,0.5-0.6,0.7
			c-0.3,0.2-0.6,0.3-1,0.4l-0.3-1c0.2-0.1,0.4-0.2,0.6-0.3c0.1-0.1,0.2-0.3,0.3-0.4s0.1-0.4,0.1-0.6c0-0.2,0-0.5,0-0.8v-3.2H257.5z"
			/>
		<path fill="#2E3135" d="M263.2,65.7c0,0.3,0,0.6-0.2,0.9c-0.1,0.2-0.2,0.5-0.4,0.6s-0.4,0.3-0.7,0.4c-0.3,0.1-0.5,0.1-0.8,0.1
			h-2.2v-6.3h1.4v2.3h0.8c0.3,0,0.6,0,0.9,0.1c0.3,0.1,0.5,0.2,0.6,0.4s0.3,0.4,0.4,0.6C263.1,65.1,263.2,65.4,263.2,65.7z
			 M261.8,65.7c0-0.3-0.1-0.5-0.2-0.6s-0.3-0.2-0.6-0.2h-0.8v1.5h0.8c0.3,0,0.4-0.1,0.6-0.2C261.8,66.1,261.8,65.9,261.8,65.7z"/>
		<path fill="#2E3135" d="M267,67.7v-2.6h-1.5v2.6h-1.4v-6.3h1.4v2.5h1.5v-2.5h1.4v6.3H267z"/>
		<path fill="#2E3135" d="M269.7,67.7v-6.3h1.4v2.3h0.8c0.3,0,0.6,0,0.9,0.1c0.3,0.1,0.5,0.2,0.6,0.4c0.2,0.2,0.3,0.4,0.4,0.6
			s0.1,0.5,0.1,0.8c0,0.3,0,0.6-0.1,0.9s-0.2,0.5-0.4,0.6s-0.4,0.3-0.7,0.4c-0.3,0.1-0.5,0.1-0.8,0.1H269.7z M271.9,66.5
			c0.3,0,0.4-0.1,0.6-0.2c0.1-0.1,0.2-0.3,0.2-0.6c0-0.3-0.1-0.5-0.2-0.6c-0.1-0.1-0.3-0.2-0.6-0.2h-0.8v1.5H271.9z M274.5,67.7
			v-6.3h1.4v6.3H274.5z"/>
		<path fill="#2E3135" d="M280.3,67.7v-3.4h0l-1.8,3.4h-1.3v-6.3h1.4V65h0l1.9-3.6h1.2v6.3H280.3z M279.5,61.1
			c-0.3,0-0.5-0.1-0.7-0.2c-0.2-0.1-0.3-0.2-0.5-0.4c-0.1-0.2-0.2-0.3-0.3-0.5s-0.1-0.3-0.1-0.5h1c0,0.1,0,0.1,0,0.2
			c0,0.1,0.1,0.1,0.1,0.2c0,0.1,0.1,0.1,0.2,0.2s0.1,0.1,0.2,0.1c0.1,0,0.2,0,0.2-0.1c0.1,0,0.1-0.1,0.2-0.2c0-0.1,0.1-0.1,0.1-0.2
			c0-0.1,0-0.1,0-0.2h1c0,0.2,0,0.3-0.1,0.5s-0.1,0.3-0.3,0.5c-0.1,0.2-0.3,0.3-0.5,0.4C280,61.1,279.8,61.1,279.5,61.1z"/>
		<path fill="#2E3135" d="M289.7,65.7c0,0.3-0.1,0.6-0.2,0.8c-0.1,0.2-0.2,0.5-0.4,0.6c-0.2,0.2-0.4,0.3-0.7,0.4
			c-0.3,0.1-0.5,0.1-0.8,0.1c-0.4,0-0.7-0.1-1-0.2c-0.3-0.1-0.5-0.3-0.7-0.5c-0.2-0.2-0.3-0.4-0.4-0.7c-0.1-0.3-0.1-0.5-0.1-0.8
			v-2.2c0-0.2,0-0.5,0.1-0.7c0.1-0.2,0.2-0.5,0.4-0.6c0.2-0.2,0.4-0.3,0.7-0.5c0.3-0.1,0.6-0.2,1-0.2c0.4,0,0.7,0.1,0.9,0.2
			s0.5,0.3,0.7,0.5c0.2,0.2,0.3,0.4,0.4,0.6c0.1,0.2,0.1,0.5,0.1,0.7V65.7z M288.3,63.3c0-0.1,0-0.1,0-0.2c0-0.1-0.1-0.2-0.1-0.2
			s-0.1-0.1-0.2-0.2c-0.1-0.1-0.2-0.1-0.3-0.1s-0.3,0-0.3,0.1s-0.2,0.1-0.2,0.2s-0.1,0.1-0.1,0.2c0,0.1,0,0.2,0,0.2v2.3
			c0,0.2,0.1,0.4,0.2,0.6c0.1,0.2,0.3,0.2,0.6,0.2c0.2,0,0.4-0.1,0.5-0.2s0.2-0.3,0.2-0.5V63.3z"/>
		<path fill="#2E3135" d="M292.1,61.4v1.8c0,0.4,0.1,0.6,0.2,0.8c0.1,0.1,0.3,0.2,0.6,0.2c0.1,0,0.2,0,0.4,0c0.1,0,0.3-0.1,0.3-0.1
			v-2.7h1.4v6.3h-1.4v-2.5c-0.2,0.1-0.3,0.1-0.5,0.1c-0.2,0-0.4,0-0.5,0c-0.2,0-0.5,0-0.7-0.1c-0.2-0.1-0.4-0.2-0.5-0.3
			c-0.2-0.1-0.3-0.3-0.4-0.5s-0.1-0.5-0.1-0.8v-2.3H292.1z"/>
		<path fill="#2E3135" d="M299.4,67.7v-3.4h0l-1.8,3.4h-1.3v-6.3h1.4V65h0l1.9-3.6h1.2v6.3H299.4z"/>
		<path fill="#2E3135" d="M306.2,66.2c-0.1,0.5-0.3,0.9-0.7,1.1c-0.4,0.3-0.8,0.4-1.4,0.4c-0.4,0-0.7-0.1-1-0.2
			c-0.3-0.1-0.5-0.3-0.7-0.5c-0.2-0.2-0.3-0.4-0.4-0.7c-0.1-0.3-0.1-0.5-0.1-0.8v-2.2c0-0.2,0-0.5,0.1-0.7c0.1-0.2,0.2-0.5,0.4-0.6
			c0.2-0.2,0.4-0.3,0.7-0.5s0.6-0.2,1-0.2c0.3,0,0.6,0,0.8,0.1s0.4,0.2,0.6,0.3s0.3,0.3,0.4,0.5c0.1,0.2,0.2,0.4,0.2,0.6l-1.3,0.4
			c0-0.1,0-0.1-0.1-0.2c0-0.1-0.1-0.2-0.1-0.2c-0.1-0.1-0.1-0.1-0.2-0.2c-0.1,0-0.2-0.1-0.3-0.1c-0.1,0-0.3,0-0.3,0.1
			c-0.1,0-0.2,0.1-0.2,0.2s-0.1,0.1-0.1,0.2c0,0.1,0,0.2,0,0.2v2.3c0,0.2,0.1,0.4,0.2,0.6c0.1,0.2,0.3,0.2,0.6,0.2
			c0.2,0,0.4-0.1,0.5-0.2c0.1-0.1,0.2-0.3,0.3-0.5L306.2,66.2z"/>
		<path fill="#2E3135" d="M309.5,62.6v5.1h-1.4v-5.1h-1.4v-1.2h4.2v1.2H309.5z"/>
		<path fill="#2E3135" d="M314.9,67.7v-3.4h0l-1.8,3.4h-1.3v-6.3h1.4V65h0l1.9-3.6h1.2v6.3H314.9z"/>
		<path fill="#2E3135" d="M319.9,62.6v5.1h-1.4v-5.1h-1.4v-1.2h4.2v1.2H319.9z"/>
		<path fill="#2E3135" d="M322.2,67.7v-6.3h3.8v1.2h-2.5v1.3h2.1v1.2h-2.1v1.3h2.5v1.2H322.2z"/>
		<path fill="#2E3135" d="M331.3,61.4v6.3H330v-5h-1.1v1.9c0,0.5,0,0.9-0.1,1.2s-0.1,0.7-0.3,1c-0.1,0.3-0.3,0.5-0.6,0.7
			c-0.3,0.2-0.6,0.3-1,0.4l-0.3-1c0.2-0.1,0.4-0.2,0.6-0.3c0.1-0.1,0.2-0.3,0.3-0.4s0.1-0.4,0.1-0.6c0-0.2,0-0.5,0-0.8v-3.2H331.3z"
			/>
		<path fill="#2E3135" d="M337,65.7c0,0.3-0.1,0.6-0.2,0.9c-0.1,0.2-0.2,0.5-0.4,0.6c-0.2,0.2-0.4,0.3-0.7,0.4
			c-0.3,0.1-0.5,0.1-0.8,0.1h-2.2v-6.3h1.4v2.3h0.8c0.3,0,0.6,0,0.9,0.1c0.3,0.1,0.5,0.2,0.6,0.4s0.3,0.4,0.4,0.6S337,65.4,337,65.7
			z M335.6,65.7c0-0.3-0.1-0.5-0.2-0.6c-0.1-0.1-0.3-0.2-0.6-0.2h-0.8v1.5h0.8c0.3,0,0.4-0.1,0.6-0.2
			C335.6,66.1,335.6,65.9,335.6,65.7z"/>
	</g>
</g>
<g>
	<g>
		<path fill="#FFFFFF" d="M241.5,15.2c-0.1,0.5-0.2,0.9-0.3,1.4s-0.2,0.9-0.4,1.4c-0.1,0.7-0.3,1.3-0.5,2c-0.2,0.7-0.4,1.3-0.5,2
			h-2.4l-2.7-13h3c0.1,0.8,0.3,1.6,0.4,2.4c0.1,0.8,0.3,1.6,0.4,2.3c0.1,0.4,0.1,0.9,0.2,1.3c0.1,0.4,0.1,0.9,0.2,1.3h0.1
			c0.1-0.6,0.3-1.2,0.4-1.8c0.1-0.6,0.3-1.2,0.4-1.8l0.8-3.7h2.1c0.1,0.6,0.3,1.2,0.4,1.9c0.1,0.6,0.3,1.2,0.4,1.9
			c0.1,0.6,0.3,1.2,0.4,1.8c0.1,0.6,0.3,1.2,0.4,1.8h0.1c0.1-0.4,0.1-0.9,0.2-1.3c0.1-0.4,0.1-0.9,0.2-1.3l0.8-4.8h3l-2.7,13h-2.4
			c-0.2-0.7-0.3-1.3-0.5-2c-0.2-0.7-0.3-1.4-0.5-2L241.5,15.2L241.5,15.2z"/>
		<path fill="#FFFFFF" d="M255.2,19.4h-3.1c-0.1,0.4-0.2,0.9-0.3,1.3s-0.2,0.9-0.4,1.3h-2.9l3.8-13h2.7l3.8,13h-2.9L255.2,19.4z
			 M253.1,15.1l-0.4,1.9h1.9l-0.4-1.8l-0.5-2.6h-0.1L253.1,15.1z"/>
		<path fill="#FFFFFF" d="M263.9,11.5V22h-2.7V11.5h-2.8V9h8.3v2.5H263.9z"/>
		<path fill="#FFFFFF" d="M268,22V9h7.6v2.5h-4.9v2.7h4.2v2.5h-4.2v2.8h4.9V22H268z"/>
		<path fill="#FFFFFF" d="M282.7,22l-1.7-5.1h-1.1V22h-2.7V9h4.3c0.5,0,1.1,0.1,1.6,0.2s0.9,0.4,1.3,0.7c0.4,0.3,0.7,0.7,0.9,1.2
			s0.3,1.1,0.3,1.7c0,0.8-0.2,1.6-0.5,2.1c-0.3,0.6-0.8,1.1-1.4,1.4l2.1,5.6H282.7z M282.9,12.9c0-0.5-0.1-0.9-0.4-1.1
			s-0.6-0.3-1.1-0.3h-1.5v2.9h1.5c0.4,0,0.8-0.1,1.1-0.3C282.7,13.9,282.9,13.5,282.9,12.9z"/>
		<path fill="#FFFFFF" d="M295.6,18.1c0,0.6-0.1,1.2-0.3,1.7c-0.2,0.5-0.4,0.9-0.8,1.2c-0.3,0.3-0.7,0.6-1.2,0.8
			c-0.5,0.2-1,0.3-1.6,0.3h-4.4V9h4.2c1.3,0,2.2,0.3,2.9,1c0.7,0.6,1,1.5,1,2.7c0,0.5-0.1,1-0.4,1.4c-0.2,0.5-0.6,0.8-1.2,1.1v0.1
			c0.3,0.1,0.6,0.2,0.8,0.4s0.4,0.4,0.5,0.7c0.1,0.3,0.2,0.5,0.3,0.8C295.6,17.5,295.6,17.8,295.6,18.1z M292.8,12.8
			c0-0.4-0.1-0.8-0.3-1s-0.6-0.3-1.1-0.3h-1.3v2.6h1.3c0.5,0,0.9-0.1,1.1-0.4S292.8,13.2,292.8,12.8z M293,17.9c0-0.4-0.1-0.8-0.3-1
			s-0.6-0.4-1.1-0.4h-1.5v3h1.5c0.5,0,0.9-0.1,1.1-0.4C292.9,18.7,293,18.4,293,17.9z"/>
		<path fill="#FFFFFF" d="M303.1,19.4H300c-0.1,0.4-0.2,0.9-0.3,1.3s-0.2,0.9-0.4,1.3h-2.9l3.8-13h2.7l3.8,13h-2.9L303.1,19.4z
			 M300.9,15.1l-0.4,1.9h1.9l-0.4-1.8l-0.5-2.6h-0.1L300.9,15.1z"/>
		<path fill="#FFFFFF" d="M316.1,18.2c0,1.2-0.4,2.2-1.1,2.9s-1.9,1-3.3,1c-0.5,0-1-0.1-1.5-0.2c-0.4-0.1-0.8-0.3-1.2-0.5
			c-0.4-0.2-0.7-0.4-1-0.7c-0.3-0.3-0.5-0.6-0.8-0.9l2.1-1.7c0.3,0.5,0.7,0.8,1.1,1c0.4,0.2,0.8,0.3,1.3,0.3c0.6,0,1-0.1,1.2-0.4
			s0.3-0.6,0.3-0.9c0-0.2-0.1-0.5-0.2-0.6s-0.3-0.3-0.5-0.5c-0.2-0.1-0.4-0.3-0.7-0.4c-0.3-0.1-0.6-0.2-0.9-0.3
			c-0.6-0.2-1.1-0.4-1.5-0.6c-0.4-0.2-0.8-0.5-1-0.8c-0.3-0.3-0.5-0.6-0.6-1c-0.1-0.4-0.2-0.8-0.2-1.3c0-0.6,0.1-1.1,0.3-1.5
			s0.5-0.9,0.8-1.2c0.4-0.3,0.8-0.6,1.3-0.8c0.5-0.2,1.1-0.3,1.7-0.3c1,0,1.8,0.2,2.4,0.5c0.6,0.3,1.2,0.8,1.6,1.4l-1.9,1.8
			c-0.6-0.7-1.3-1.1-2.1-1.1c-0.4,0-0.7,0.1-1,0.3c-0.3,0.2-0.4,0.5-0.4,0.8c0,0.2,0.1,0.4,0.2,0.5c0.1,0.1,0.3,0.3,0.5,0.4
			s0.5,0.2,0.7,0.4s0.6,0.2,0.9,0.3c0.6,0.2,1.2,0.4,1.6,0.7c0.4,0.3,0.8,0.5,1,0.9c0.3,0.3,0.4,0.7,0.6,1.1
			C316.1,17.3,316.1,17.7,316.1,18.2z"/>
		<path fill="#FFFFFF" d="M317.7,22V9h7.6v2.5h-4.9v2.7h4.2v2.5h-4.2v2.8h4.9V22H317.7z"/>
		<path fill="#FFFFFF" d="M331.2,9c0.9,0,1.6,0.2,2.2,0.5c0.6,0.3,1.1,0.9,1.4,1.6c0.2,0.4,0.3,1,0.3,1.6s0,1.4,0,2.1
			c0,1.1,0,2.1,0,2.9c0,0.8-0.1,1.5-0.3,2c-0.2,0.4-0.4,0.8-0.6,1.1c-0.3,0.3-0.6,0.5-0.9,0.7c-0.3,0.2-0.7,0.3-1.1,0.4
			c-0.4,0.1-0.8,0.1-1.2,0.1h-4.1V9H331.2z M332.4,14.4c0-0.4,0-0.7-0.1-1.1c0-0.3-0.1-0.7-0.2-0.9s-0.3-0.5-0.5-0.6
			c-0.2-0.2-0.5-0.2-0.9-0.2h-1.1v8h1.1c0.7,0,1.1-0.2,1.4-0.5s0.3-0.8,0.3-1.4V14.4z"/>
		<path fill="#FFFFFF" d="M276.5,38.9c-0.2,1-0.6,1.8-1.4,2.4c-0.7,0.6-1.6,0.9-2.7,0.9c-0.7,0-1.4-0.1-1.9-0.4
			c-0.5-0.2-1-0.6-1.3-1c-0.3-0.4-0.6-0.9-0.7-1.4c-0.2-0.5-0.2-1.1-0.2-1.7v-4.6c0-0.5,0.1-1,0.2-1.5c0.1-0.5,0.4-0.9,0.7-1.3
			c0.3-0.4,0.8-0.7,1.3-1s1.2-0.4,1.9-0.4c0.6,0,1.1,0.1,1.6,0.3c0.5,0.2,0.9,0.4,1.2,0.7s0.6,0.6,0.8,1c0.2,0.4,0.4,0.8,0.4,1.2
			l-2.6,0.8c0-0.1-0.1-0.3-0.1-0.4s-0.1-0.3-0.3-0.5c-0.1-0.1-0.3-0.3-0.5-0.4c-0.2-0.1-0.4-0.1-0.7-0.1c-0.3,0-0.5,0-0.7,0.1
			c-0.2,0.1-0.3,0.2-0.4,0.4c-0.1,0.1-0.2,0.3-0.2,0.5c0,0.2-0.1,0.3-0.1,0.5v4.8c0,0.5,0.1,0.9,0.3,1.2s0.6,0.5,1.1,0.5
			c0.4,0,0.7-0.1,1-0.4c0.3-0.2,0.5-0.6,0.5-1L276.5,38.9z"/>
		<path fill="#FFFFFF" d="M278.1,42V29h2.7v10.4h4.9V42H278.1z"/>
		<path fill="#FFFFFF" d="M287.1,42V29h7.6v2.5h-4.9v2.7h4.2v2.5h-4.2v2.8h4.9V42H287.1z"/>
		<path fill="#FFFFFF" d="M301.9,39.4h-3.1c-0.1,0.4-0.2,0.9-0.3,1.3s-0.2,0.9-0.4,1.3h-2.9l3.8-13h2.7l3.8,13h-2.9L301.9,39.4z
			 M299.8,35.1l-0.4,1.9h1.9l-0.4-1.8l-0.5-2.6h-0.1L299.8,35.1z"/>
		<path fill="#FFFFFF" d="M313.2,42l-2.4-4.3l-1.4-2.7l-0.1,0V42h-2.7V29h2.4l2.1,3.9l1.7,3.1l0.1,0v-7h2.7v13H313.2z"/>
		<path fill="#FFFFFF" d="M317.8,42V29h7.6v2.5h-4.9v2.7h4.2v2.5h-4.2v2.8h4.9V42H317.8z"/>
		<path fill="#FFFFFF" d="M332.5,42l-1.7-5.1h-1.1V42h-2.7V29h4.3c0.5,0,1.1,0.1,1.6,0.2s0.9,0.4,1.3,0.7c0.4,0.3,0.7,0.7,0.9,1.2
			s0.3,1.1,0.3,1.7c0,0.8-0.2,1.6-0.5,2.1c-0.3,0.6-0.8,1.1-1.4,1.4l2.1,5.6H332.5z M332.7,32.9c0-0.5-0.1-0.9-0.4-1.1
			s-0.6-0.3-1.1-0.3h-1.5v2.9h1.5c0.4,0,0.8-0.1,1.1-0.3C332.5,33.9,332.7,33.5,332.7,32.9z"/>
	</g>
</g>
<rect x="122.5" y="38.8" fill="#FFFFFF" width="14" height="7"/>
<g>
	<path fill="#FFFFFF" d="M128.7,65.5c0-0.4,0.1-0.8,0.1-1.2c0-2.8-0.5-5.2-1.6-7.2C127.4,60.1,127.9,62.9,128.7,65.5z"/>
	<path fill="#FFFFFF" d="M184,53.8h-11.9h-5.3l-0.7,5.1c-0.8,6.5-3.6,7-6.6,7c-2.6,0-4.3-0.9-5.8-2.8c-1.8-2.3-2.7-5.6-2.7-9.8
		c0-2.6,0.4-4.9,1.1-7c0.6-1.7,1.5-3,2.9-4.2c1.2-1,2.7-1.5,4.6-1.5c1.9,0,3.3,0.4,4.3,1.2c0.6,0.5,1.5,1.2,1.9,3.3l1,4.6h4.9h11.8
		h6.5l-0.5-6.3c-0.6-7.3-3.8-13.4-9.4-18.1c-5.5-4.6-12.3-6.9-20.3-6.9c-9.9,0-18,3.4-24.1,10.2c-1.6,1.8-2.9,3.8-4.1,5.9
		c-1.2-5.2-4.3-8.4-7-10.2c-4.3-3-9.8-4.5-16.1-4.5H87.1h-4.4h-3.5h-2.8h-9.1h-4.7l-1.1,4.6l-3.4,14l-3.5-14.1l-1.1-4.6h-4.7H37.5
		h-4.6l-1.2,4.5l-3.5,13.7L25,24.4l-1.1-4.6h-4.8H7.1h-7.8l2,7.6l14.6,54.9l1.2,4.5h4.6h12.2h4.7l1.1-4.6l3.5-14.1l3.5,14.1l1.1,4.6
		h4.7h12h4.6l1.1-4.5l6.3-24v22.4v6.1h6.2h27.4c6.8,0,12.5-2,17.1-5.7c2.3-1.9,4.1-4.3,5.4-7c-0.7-1.1-1.3-2.2-1.9-3.3
		c-1,3.1-2.8,5.8-5.4,7.9c2.6-2.1,4.4-4.8,5.4-7.9c-0.8-1.7-1.5-3.4-2.1-5.3c-0.3,4.6-2,8.3-5.2,10.9c3.2-2.6,4.9-6.3,5.2-10.9
		c-0.8-2.6-1.3-5.4-1.6-8.4c-1.6-3-4.4-5.1-8.4-6.2c0,0,0,0,0,0c4,1.1,6.8,3.2,8.4,6.2c-0.1-1.3-0.2-2.6-0.2-4c0-0.4,0-0.7,0-1.1
		l0,0c0-1.7,0.2-3.3,0.4-4.9c0,0,0,0,0-0.1c-0.2,1.6-0.4,3.3-0.4,5c0,0.4,0,0.7,0,1.1c0,1.4,0.1,2.7,0.2,4c1.1,2,1.6,4.4,1.6,7.2
		c0,0.4,0,0.8-0.1,1.2c0.6,1.9,1.3,3.6,2.1,5.3c0,0,0,0,0,0c0.6,1.1,1.2,2.3,1.9,3.3c0.5-1.2,1-2.4,1.3-3.7c0.5-1.8,0.7-3.7,0.7-5.8
		c1.2,3.6,3.1,6.7,5.5,9.4c4.9,5.3,11.3,7.9,19.2,7.9c7.3,0,13.1-1.9,17.3-5.9c-4.2,4.1-10,6-17.3,6c-8,0-14.4-2.7-19.2-7.9
		c-2.5-2.7-4.3-5.8-5.5-9.4c0,2-0.3,3.9-0.7,5.7c1.1,2,2.5,3.9,4,5.6c5.4,5.9,12.6,8.9,21.4,8.9c8.1,0,14.6-2.3,19.4-6.9
		c4.6-4.5,7.3-10.3,8.1-17.7c-0.8,7.4-3.5,13.3-8.1,17.7c-4.8,4.6-11.3,6.9-19.4,6.9c-8.8,0-16-3-21.4-8.9c-1.6-1.7-2.9-3.6-4-5.7
		c-0.3,1.3-0.8,2.5-1.3,3.6c0.9,1.4,2,2.8,3.1,4c6,6.5,14,9.8,23.6,9.8c8.9,0,16.1-2.6,21.5-7.8c5.3-5.1,8.3-11.7,9.1-20l0.6-6.4
		H184z M126.5,39.6C126.5,39.6,126.5,39.6,126.5,39.6c0-4.6-1.6-8.1-4.9-10.4C124.9,31.5,126.5,35,126.5,39.6z M110.7,63.5
		c0,0,0-0.1,0-0.1C110.7,63.4,110.7,63.5,110.7,63.5C110.7,63.5,110.7,63.5,110.7,63.5z M110.7,62.9c0,0.1,0,0.1,0,0.2
		C110.7,63,110.7,63,110.7,62.9z M114.5,41.5c0-1.4-0.3-2.6-0.8-3.6C114.2,38.8,114.5,40,114.5,41.5
		C114.5,41.5,114.5,41.5,114.5,41.5z M105.4,34.8c0.6,0,1.2,0,1.7,0.1C106.6,34.8,106,34.8,105.4,34.8z M107.8,35
		c0.2,0,0.5,0.1,0.7,0.1C108.3,35.1,108,35,107.8,35z M76.5,35.5v-0.2l2.8-9.5L76.5,35.5z M126.7,48.1c-0.6,0.8-1.2,1.6-1.9,2.3
		c0,0,0,0,0,0C125.5,49.7,126.1,49,126.7,48.1C126.7,48.1,126.7,48.1,126.7,48.1C126.7,48.1,126.7,48.1,126.7,48.1z M151.6,64.9
		c2,2.6,4.6,3.9,8.1,3.9c1.6,0,3.4-0.2,4.9-1c-1.6,0.9-3.4,1.1-5.1,1.1C156,68.9,153.6,67.6,151.6,64.9c-2.2-2.8-3.1-6.7-3.1-11.6
		c0,0,0,0,0,0C148.5,58.2,149.4,62.1,151.6,64.9z M186.6,43.8l0.3,3.1L186.6,43.8c0,0,0-0.1,0-0.1C186.6,43.7,186.6,43.7,186.6,43.8
		z M131.8,34.6c0.4,1.5,0.7,3.2,0.7,5.1c0,0,0,0,0,0C132.5,37.8,132.1,36.1,131.8,34.6C131.8,34.6,131.8,34.6,131.8,34.6z M130,50.9
		L130,50.9c0.8,0.8,1.4,1.7,2,2.7C131.4,52.7,130.8,51.8,130,50.9z M130.3,47.8C130.3,47.8,130.3,47.8,130.3,47.8L130.3,47.8
		C130.3,47.8,130.3,47.8,130.3,47.8z M130.3,47.8c-0.2,0.3-0.4,0.7-0.5,1C130,48.5,130.1,48.1,130.3,47.8L130.3,47.8z M134.5,64.4
		c0-3.2-0.7-6.2-1.8-8.7c0-0.8-0.2-1.6-0.2-2.5c0,0,0,0,0,0c0,0.8,0.1,1.7,0.2,2.5C133.8,58.2,134.5,61.1,134.5,64.4
		C134.5,64.4,134.5,64.4,134.5,64.4z M159.5,72c-4.4,0-7.7-1.8-10.3-5.1c-2.6-3.4-3.7-7.9-3.7-13.6c0,0,0,0,0,0
		c0,5.6,1.1,10.1,3.7,13.5c2.6,3.4,6,5.2,10.4,5.2c7.3,0,11.5-4.2,12.5-12.2C171.1,67.8,166.9,72,159.5,72z"/>
</g>
<g>
	<path fill="#FC4289" d="M134.7,64.7c1.2,3.6,3.1,6.7,5.5,9.4c4.9,5.3,11.3,7.9,19.2,7.9c7.3,0,13.1-1.9,17.3-5.9
		c4.2-4.1,6.6-9.2,7.2-16.2h-11.9c-1,8-5.2,12.2-12.6,12.2c-4.4,0-7.9-1.8-10.5-5.1c-2.6-3.4-3.9-7.9-3.9-13.6c0-3.2,0.5-6.2,1.4-9
		c0.9-2.7,2.5-5,4.8-6.9c2.3-1.9,5.1-2.8,8.4-2.8c3.2,0,5.9,0.6,8,2.3c2.1,1.7,3.5,3.9,4.1,6.9h11.8c-0.5-5-2.9-10.2-7.3-13.9
		c-4.4-3.7-9.9-5.5-16.4-5.5c-8.2,0-14.7,2.8-19.6,8.2c-4.9,5.4-7.4,12.3-7.4,20.5c0,0.8,0,1.7,0.1,2.5c1.1,2.5,1.7,5.5,1.7,8.7
		C134.7,64.5,134.7,64.6,134.7,64.7z"/>
	<path fill="#FC4289" d="M134.7,64.4c0-3.2-0.6-6.2-1.7-8.7c0.2,3.3,0.7,6.3,1.7,9.1C134.7,64.6,134.7,64.5,134.7,64.4z"/>
	<g>
		<path fill="#FC4289" d="M118.7,51c2.3-1,4.1-2.5,5.5-4.5c1.3-2,2-4.2,2-6.8c0-4.6-1.6-8.1-4.9-10.4c-3.3-2.3-7.5-3.5-12.6-3.5
			H85.5L85,27.4l-2.4,8.7v44.8h27.6c5.4,0,9.8-1.5,13.3-4.3c3.2-2.6,4.9-6.3,5.2-10.9c-0.8-2.6-1.3-5.4-1.6-8.4
			C125.5,54.2,122.7,52.1,118.7,51z M94.5,34.8h10.9c2.8,0,5,0.6,6.6,1.5c1.6,0.9,2.5,2.6,2.5,5.1c0,4.3-3,6.4-9.1,6.4H94.5V34.8z
			 M114,69.4c-1.8,1-4.3,1.4-7.4,1.4h-12v-15h11.4c3.3,0,6,0.7,7.9,1.7s2.9,3,2.9,6C116.7,66.4,115.8,68.4,114,69.4z"/>
		<path fill="#FC4289" d="M127.1,57.2c0.2,3,0.8,5.8,1.6,8.4c0-0.4,0.1-0.8,0.1-1.2C128.7,61.6,128.2,59.2,127.1,57.2z"/>
	</g>
	<polygon fill="#FC4289" points="58.3,63.5 48.9,25.8 37.5,25.8 27.9,63.1 19.1,25.8 7.1,25.8 21.6,80.8 33.8,80.8 43.1,43.4 
		52.5,80.8 64.5,80.8 76.5,35.3 76.5,25.8 67.4,25.8 	"/>
	<polygon fill="#FC4289" points="79.3,25.8 76.5,25.8 76.5,35.3 	"/>
	<polygon fill="#FC4289" points="85.5,25.8 82.5,25.8 82.5,36.1 85,27.4 	"/>
</g>
<rect x="153.5" y="37.8" fill="#FFFFFF" width="13" height="11"/>
<rect x="-2.5" y="23.8" fill="#FFFFFF" width="9" height="31"/>
</svg>
