<?xml version="1.0" encoding="utf-8"?>
<!-- Generator: Adobe Illustrator 17.1.0, SVG Export Plug-In . SVG Version: 6.00 Build 0)  -->
<!DOCTYPE svg PUBLIC "-//W3C//DTD SVG 1.1//EN" "http://www.w3.org/Graphics/SVG/1.1/DTD/svg11.dtd">
<svg version="1.1" id="Layer_1" xmlns="http://www.w3.org/2000/svg" xmlns:xlink="http://www.w3.org/1999/xlink" x="0px" y="0px"
	 viewBox="0 0 365.5 83.3" enable-background="new 0 0 365.5 83.3" xml:space="preserve">
<g>
	<polygon points="0.7,-2.8 0.7,44 69.5,44 89.3,-2.8 	"/>
	<polygon fill="#2E3135" points="87.6,-2.8 67.8,44 161.3,44 181.1,-2.8 	"/>
	<polygon points="179.5,-2.8 159.7,44 253.2,44 273,-2.8 	"/>
	<polygon fill="#2E3135" points="342.1,44 362.1,-2.8 271.3,-2.8 251.5,44 	"/>
	<rect x="-0.5" y="41.8" fill="#FFFFFF" width="366" height="11"/>
</g>
<g>
	<text transform="matrix(1.05 0 0 1 200.122 56.8659)"><tspan x="0" y="0" fill="#2E3135" font-family="'PFDinTextCondPro-Bold'" font-size="9">УНИВЕРСАЛЬНАЯ ПРОНИКАЮЩАЯ </tspan><tspan x="86.8" y="10.8" fill="#2E3135" font-family="'PFDinTextCondPro-Bold'" font-size="9">ЖИДКОСТЬ</tspan></text>
</g>
<g>
	<text transform="matrix(1 0 0 1 257.1096 42.3535)" fill="#FFFFFF" font-family="'PFDinTextCondPro-Bold'" font-size="18.6776">CREAP OIL</text>
</g>
<rect x="90.5" y="43.8" fill="#FFFFFF" width="14" height="6"/>
<g>
	<g>
		<g>
			<path fill="#9A4B74" d="M30.5,85.2c-8.3,0-15.1-2.8-20.3-8.4c-5.1-5.5-7.6-12.8-7.6-21.7c0-8.5,2.6-15.6,7.7-21.3
				c5.2-5.8,12.1-8.7,20.7-8.7c6.8,0,12.7,2,17.4,5.9c4.8,4,7.4,9.1,7.9,15.3l0.3,3.2H39.7l-0.5-2.4c-0.4-2.1-1.3-3.7-2.8-4.9
				c-1.5-1.2-3.3-1.7-5.7-1.7c-2.4,0-4.4,0.6-6,2c-1.7,1.4-2.9,3.1-3.6,5.1c-0.8,2.2-1.1,4.7-1.1,7.4c0,4.6,1,8.3,3.1,10.9
				c1.9,2.4,4.3,3.6,7.6,3.6c3.6,0,7.8-1,8.8-9l0.3-2.6h17.2l-0.3,3.3c-0.6,7.2-3.2,13-7.7,17.3C44.3,83,38.1,85.2,30.5,85.2z"/>
			<path fill="#FFFFFF" d="M30.9,28.2c6.1,0,11.3,1.7,15.4,5.2c4.2,3.5,6.4,7.9,6.9,13.3H42.1c-0.6-2.8-1.9-5.1-3.9-6.6
				c-2-1.6-4.5-2.4-7.6-2.4c-3.1,0-5.8,0.9-7.9,2.6c-2.1,1.8-3.7,3.9-4.5,6.5c-0.9,2.6-1.3,5.4-1.3,8.4c0,5.3,1.2,9.5,3.7,12.7
				c2.5,3.2,5.8,4.7,9.9,4.7c6.9,0,10.8-3.9,11.8-11.6h11.2c-0.6,6.5-2.8,11.6-6.8,15.4c-4,3.8-9.4,5.7-16.3,5.7
				c-7.5,0-13.5-2.5-18.1-7.4c-4.6-4.9-6.8-11.5-6.8-19.7c0-7.7,2.3-14.1,6.9-19.3C17.1,30.8,23.2,28.2,30.9,28.2 M30.9,22.2
				c-9.4,0-17.1,3.3-22.9,9.7c-5.6,6.2-8.5,14.1-8.5,23.3c0,9.7,2.8,17.7,8.4,23.7c5.7,6.2,13.3,9.4,22.5,9.4
				c8.5,0,15.4-2.5,20.5-7.4c5-4.8,7.9-11.3,8.6-19.2l0.6-6.5h-6.6H42.3H37l-0.7,5.3c-0.7,5.9-3.1,6.3-5.9,6.3
				c-2.3,0-3.9-0.7-5.2-2.4c-1.6-2.1-2.4-5.1-2.4-9c0-2.4,0.3-4.5,1-6.5c0.5-1.5,1.4-2.7,2.7-3.8c0.7-0.6,1.8-1.3,4.1-1.3
				c1.7,0,2.9,0.4,3.9,1.1c0.5,0.4,1.3,1.2,1.7,3.1l1,4.8h4.9h11.1h6.5l-0.5-6.5c-0.6-7-3.6-12.8-9-17.4
				C44.9,24.4,38.4,22.2,30.9,22.2L30.9,22.2z"/>
		</g>
		<g>
			<path fill="#9A4B74" d="M84.4,85.2c-8.5,0-15.4-2.8-20.6-8.4c-5.2-5.5-7.8-12.8-7.8-21.6c0-8.9,2.6-16.2,7.8-21.7
				c5.2-5.6,12.2-8.4,20.8-8.4c8.4,0,15.3,2.8,20.5,8.5c5.2,5.5,7.8,12.8,7.8,21.6c0,8.8-2.6,16.1-7.8,21.6
				C99.7,82.4,92.8,85.2,84.4,85.2z M84.4,40.5c-3.3,0-5.9,1.2-7.8,3.6c-2.1,2.6-3.2,6.3-3.2,11c0,4.8,1,8.6,3.1,11.2
				c1.9,2.4,4.6,3.6,8,3.7c3.3,0,5.9-1.2,7.7-3.6c2-2.6,3.1-6.4,3.1-11.2c0-4.7-1-8.4-3.1-11C90.3,41.7,87.7,40.5,84.4,40.5z"/>
			<path fill="#FFFFFF" d="M84.5,28.2c7.5,0,13.6,2.5,18.3,7.5c4.7,5,7,11.5,7,19.6c0,8.1-2.3,14.6-7,19.5c-4.7,5-10.8,7.4-18.4,7.4
				c-7.6,0-13.8-2.5-18.5-7.4c-4.7-4.9-7-11.5-7-19.5c0-8.2,2.3-14.7,7-19.7C70.6,30.7,76.8,28.2,84.5,28.2 M84.5,72.9
				c4.3,0,7.7-1.6,10.1-4.8c2.5-3.2,3.7-7.5,3.7-13c0-5.4-1.3-9.7-3.8-12.9c-2.5-3.2-5.9-4.7-10.2-4.7c-4.2,0-7.6,1.6-10.2,4.8
				c-2.5,3.2-3.8,7.5-3.8,12.8c0,5.6,1.3,9.9,3.8,13C76.6,71.3,80.1,72.8,84.5,72.9 M84.5,22.2c-9.4,0-17.1,3.1-22.9,9.3
				c-5.7,6.1-8.6,14.1-8.6,23.8c0,9.6,2.9,17.6,8.7,23.6c5.8,6.2,13.5,9.3,22.8,9.3c9.3,0,16.9-3.1,22.7-9.3
				c5.7-6.1,8.6-14,8.6-23.6c0-9.6-2.9-17.6-8.6-23.7C101.4,25.4,93.7,22.2,84.5,22.2L84.5,22.2z M84.5,66.9c-3.3,0-4.8-1.4-5.7-2.5
				c-1.6-2-2.5-5.2-2.5-9.3c0-3.9,0.8-7,2.5-9.1c1.4-1.8,3-2.5,5.5-2.5c2.5,0,4.2,0.8,5.5,2.5c1.6,2.1,2.5,5.1,2.5,9.1
				c0,4.1-0.8,7.3-2.4,9.4C88.6,66.2,87,66.9,84.5,66.9L84.5,66.9z"/>
		</g>
	</g>
</g>
</svg>
