<?xml version="1.0" encoding="utf-8"?>
<!-- Generator: Adobe Illustrator 17.1.0, SVG Export Plug-In . SVG Version: 6.00 Build 0)  -->
<!DOCTYPE svg PUBLIC "-//W3C//DTD SVG 1.1//EN" "http://www.w3.org/Graphics/SVG/1.1/DTD/svg11.dtd">
<svg version="1.1" id="Layer_1" xmlns="http://www.w3.org/2000/svg" xmlns:xlink="http://www.w3.org/1999/xlink" x="0px" y="0px"
	 viewBox="0 0 365.5 83.3" enable-background="new 0 0 365.5 83.3" xml:space="preserve">
<g>
	<polygon points="0.7,-2.8 0.7,44 69.5,44 89.3,-2.8 	"/>
	<polygon fill="#2E3135" points="87.6,-2.8 67.8,44 161.3,44 181.1,-2.8 	"/>
	<polygon points="179.5,-2.8 159.7,44 253.2,44 273,-2.8 	"/>
	<polygon fill="#2E3135" points="342.1,44 362.1,-2.8 271.3,-2.8 251.5,44 	"/>
	<rect x="-5.5" y="41.8" fill="#FFFFFF" width="376" height="11"/>
</g>
<rect x="90.5" y="43.8" fill="#FFFFFF" width="14" height="6"/>
<g>
	<g>
		<path fill="#2E3135" d="M188.8,56.9v-6.3h1.4v2.5h0.3c0.1,0,0.2,0,0.3,0s0.2-0.1,0.3-0.1c0.1-0.1,0.2-0.2,0.2-0.3
			c0.1-0.1,0.1-0.3,0.2-0.4l0.4-1.6h1.3l-0.5,1.9c-0.1,0.3-0.2,0.6-0.3,0.8c-0.2,0.2-0.3,0.3-0.5,0.4c0.3,0.1,0.5,0.2,0.6,0.4
			c0.1,0.2,0.3,0.4,0.3,0.7l0.5,2.1h-1.4l-0.4-1.7c-0.1-0.3-0.2-0.6-0.4-0.7c-0.1-0.1-0.3-0.2-0.6-0.2h-0.4v2.6H188.8z"/>
		<path fill="#2E3135" d="M198.3,54.9c0,0.3-0.1,0.6-0.2,0.8c-0.1,0.2-0.2,0.5-0.4,0.6s-0.4,0.3-0.7,0.4c-0.3,0.1-0.5,0.1-0.8,0.1
			c-0.4,0-0.7-0.1-1-0.2c-0.3-0.1-0.5-0.3-0.7-0.5c-0.2-0.2-0.3-0.4-0.4-0.7s-0.1-0.5-0.1-0.8v-2.2c0-0.2,0-0.5,0.1-0.7
			c0.1-0.2,0.2-0.5,0.4-0.6c0.2-0.2,0.4-0.3,0.7-0.5s0.6-0.2,1-0.2c0.4,0,0.7,0.1,0.9,0.2s0.5,0.3,0.7,0.5c0.2,0.2,0.3,0.4,0.4,0.6
			c0.1,0.2,0.1,0.5,0.1,0.7V54.9z M196.9,52.5c0-0.1,0-0.1,0-0.2c0-0.1-0.1-0.2-0.1-0.2s-0.1-0.1-0.2-0.2c-0.1-0.1-0.2-0.1-0.3-0.1
			c-0.1,0-0.3,0-0.3,0.1c-0.1,0-0.2,0.1-0.2,0.2c-0.1,0.1-0.1,0.1-0.1,0.2c0,0.1,0,0.2,0,0.2v2.3c0,0.2,0.1,0.4,0.2,0.6
			c0.1,0.2,0.3,0.2,0.6,0.2c0.2,0,0.4-0.1,0.5-0.2s0.2-0.3,0.2-0.5V52.5z"/>
		<path fill="#2E3135" d="M202.4,56.9v-2.6h-1.5v2.6h-1.4v-6.3h1.4v2.5h1.5v-2.5h1.4v6.3H202.4z"/>
		<path fill="#2E3135" d="M208.9,56.9h-3.8v-6.3h1.4v5.1h1.5v-5.1h1.4v5.1h0.7v2.5h-1.1V56.9z"/>
		<path fill="#2E3135" d="M211,56.9v-6.3h3.8v1.2h-2.5v1.3h2.1v1.2h-2.1v1.3h2.5v1.2H211z"/>
		<path fill="#2E3135" d="M218.7,56.9v-2.6h-1.5v2.6h-1.4v-6.3h1.4v2.5h1.5v-2.5h1.4v6.3H218.7z"/>
		<path fill="#2E3135" d="M223.7,51.8v5.1h-1.4v-5.1h-1.4v-1.2h4.2v1.2H223.7z"/>
		<path fill="#2E3135" d="M230.2,52.6c0,0.3,0,0.6-0.1,0.8c-0.1,0.2-0.2,0.5-0.4,0.6c-0.2,0.2-0.4,0.3-0.6,0.4
			c-0.3,0.1-0.5,0.1-0.8,0.1h-0.8v2.3H226v-6.3h2.1c0.3,0,0.6,0,0.9,0.1c0.3,0.1,0.5,0.2,0.7,0.4s0.3,0.4,0.4,0.6
			C230.1,51.9,230.2,52.2,230.2,52.6z M228.9,52.6c0-0.3-0.1-0.5-0.2-0.6c-0.1-0.1-0.3-0.2-0.6-0.2h-0.7v1.6h0.7
			c0.2,0,0.4-0.1,0.5-0.2C228.8,53.1,228.9,52.9,228.9,52.6z"/>
		<path fill="#2E3135" d="M234.2,56.9v-3.4h0l-1.8,3.4h-1.3v-6.3h1.4v3.6h0l1.9-3.6h1.2v6.3H234.2z"/>
		<path fill="#2E3135" d="M241.1,52.6c0,0.3,0,0.6-0.1,0.8c-0.1,0.2-0.2,0.5-0.4,0.6c-0.2,0.2-0.4,0.3-0.6,0.4
			c-0.3,0.1-0.5,0.1-0.8,0.1h-0.8v2.3h-1.4v-6.3h2.1c0.3,0,0.6,0,0.9,0.1c0.3,0.1,0.5,0.2,0.7,0.4s0.3,0.4,0.4,0.6
			C241.1,51.9,241.1,52.2,241.1,52.6z M239.8,52.6c0-0.3-0.1-0.5-0.2-0.6c-0.1-0.1-0.3-0.2-0.6-0.2h-0.7v1.6h0.7
			c0.2,0,0.4-0.1,0.5-0.2C239.7,53.1,239.8,52.9,239.8,52.6z"/>
		<path fill="#2E3135" d="M246.1,54.9c0,0.3-0.1,0.6-0.2,0.8c-0.1,0.2-0.2,0.5-0.4,0.6c-0.2,0.2-0.4,0.3-0.7,0.4
			c-0.3,0.1-0.5,0.1-0.8,0.1c-0.4,0-0.7-0.1-1-0.2c-0.3-0.1-0.5-0.3-0.7-0.5c-0.2-0.2-0.3-0.4-0.4-0.7c-0.1-0.3-0.1-0.5-0.1-0.8
			v-2.2c0-0.2,0-0.5,0.1-0.7c0.1-0.2,0.2-0.5,0.4-0.6c0.2-0.2,0.4-0.3,0.7-0.5c0.3-0.1,0.6-0.2,1-0.2c0.4,0,0.7,0.1,0.9,0.2
			s0.5,0.3,0.7,0.5c0.2,0.2,0.3,0.4,0.4,0.6c0.1,0.2,0.1,0.5,0.1,0.7V54.9z M244.8,52.5c0-0.1,0-0.1,0-0.2c0-0.1-0.1-0.2-0.1-0.2
			s-0.1-0.1-0.2-0.2c-0.1-0.1-0.2-0.1-0.3-0.1s-0.3,0-0.3,0.1s-0.2,0.1-0.2,0.2s-0.1,0.1-0.1,0.2c0,0.1,0,0.2,0,0.2v2.3
			c0,0.2,0.1,0.4,0.2,0.6c0.1,0.2,0.3,0.2,0.6,0.2c0.2,0,0.4-0.1,0.5-0.2s0.2-0.3,0.2-0.5V52.5z"/>
		<path fill="#2E3135" d="M251.5,55c0,0.3,0,0.6-0.1,0.8c-0.1,0.2-0.2,0.4-0.4,0.6c-0.2,0.2-0.4,0.3-0.6,0.4
			c-0.2,0.1-0.5,0.1-0.8,0.1h-2.2v-6.3h2.1c0.6,0,1.1,0.2,1.5,0.5s0.5,0.7,0.5,1.3c0,0.2-0.1,0.5-0.2,0.7c-0.1,0.2-0.3,0.4-0.6,0.5
			v0c0.2,0,0.3,0.1,0.4,0.2c0.1,0.1,0.2,0.2,0.3,0.3s0.1,0.3,0.2,0.4C251.5,54.7,251.5,54.8,251.5,55z M250.1,52.4
			c0-0.2-0.1-0.4-0.2-0.5c-0.1-0.1-0.3-0.2-0.5-0.2h-0.7v1.3h0.7c0.3,0,0.4-0.1,0.5-0.2S250.1,52.6,250.1,52.4z M250.2,54.9
			c0-0.2-0.1-0.4-0.2-0.5s-0.3-0.2-0.5-0.2h-0.8v1.4h0.8c0.3,0,0.5-0.1,0.6-0.2C250.2,55.3,250.2,55.1,250.2,54.9z"/>
		<path fill="#2E3135" d="M255.5,55.6H254c-0.1,0.2-0.1,0.4-0.2,0.6c-0.1,0.2-0.1,0.4-0.2,0.6h-1.4l1.9-6.3h1.4l1.9,6.3h-1.5
			L255.5,55.6z M254.5,53.5l-0.2,0.9h0.9l-0.2-0.9l-0.3-1.3h0L254.5,53.5z"/>
		<path fill="#2E3135" d="M261.1,56.9v-2.6h-1.5v2.6h-1.4v-6.3h1.4v2.5h1.5v-2.5h1.4v6.3H261.1z"/>
		<path fill="#2E3135" d="M266.7,56.9v-2.6h-1.5v2.6h-1.4v-6.3h1.4v2.5h1.5v-2.5h1.4v6.3H266.7z"/>
		<path fill="#2E3135" d="M269.4,56.9v-6.3h1.4V53h0.8c0.3,0,0.6,0,0.9,0.1c0.3,0.1,0.5,0.2,0.6,0.4s0.3,0.4,0.4,0.6
			c0.1,0.2,0.1,0.5,0.1,0.8c0,0.3,0,0.6-0.1,0.9s-0.2,0.5-0.4,0.6c-0.2,0.2-0.4,0.3-0.7,0.4c-0.3,0.1-0.5,0.1-0.8,0.1H269.4z
			 M271.5,55.7c0.3,0,0.4-0.1,0.6-0.2s0.2-0.3,0.2-0.6c0-0.3-0.1-0.5-0.2-0.6c-0.1-0.1-0.3-0.2-0.6-0.2h-0.8v1.5H271.5z M274.2,56.9
			v-6.3h1.4v6.3H274.2z"/>
		<path fill="#2E3135" d="M280,56.9v-3.4h0l-1.8,3.4h-1.3v-6.3h1.4v3.6h0l1.9-3.6h1.2v6.3H280z M279.2,50.3c-0.3,0-0.5-0.1-0.7-0.2
			c-0.2-0.1-0.3-0.2-0.5-0.4c-0.1-0.2-0.2-0.3-0.3-0.5s-0.1-0.3-0.1-0.5h1c0,0.1,0,0.1,0,0.2c0,0.1,0.1,0.1,0.1,0.2
			c0,0.1,0.1,0.1,0.2,0.2s0.1,0.1,0.2,0.1c0.1,0,0.2,0,0.2-0.1c0.1,0,0.1-0.1,0.2-0.2c0-0.1,0.1-0.1,0.1-0.2c0-0.1,0-0.1,0-0.2h1
			c0,0.2,0,0.3-0.1,0.5s-0.1,0.3-0.3,0.5c-0.1,0.2-0.3,0.3-0.5,0.4C279.7,50.3,279.5,50.3,279.2,50.3z"/>
		<path fill="#2E3135" d="M289.4,54.9c0,0.3-0.1,0.6-0.2,0.8c-0.1,0.2-0.2,0.5-0.4,0.6s-0.4,0.3-0.7,0.4c-0.3,0.1-0.5,0.1-0.8,0.1
			c-0.4,0-0.7-0.1-1-0.2c-0.3-0.1-0.5-0.3-0.7-0.5c-0.2-0.2-0.3-0.4-0.4-0.7s-0.1-0.5-0.1-0.8v-2.2c0-0.2,0-0.5,0.1-0.7
			c0.1-0.2,0.2-0.5,0.4-0.6c0.2-0.2,0.4-0.3,0.7-0.5s0.6-0.2,1-0.2c0.4,0,0.7,0.1,0.9,0.2s0.5,0.3,0.7,0.5c0.2,0.2,0.3,0.4,0.4,0.6
			c0.1,0.2,0.1,0.5,0.1,0.7V54.9z M288,52.5c0-0.1,0-0.1,0-0.2c0-0.1-0.1-0.2-0.1-0.2s-0.1-0.1-0.2-0.2c-0.1-0.1-0.2-0.1-0.3-0.1
			c-0.1,0-0.3,0-0.3,0.1c-0.1,0-0.2,0.1-0.2,0.2c-0.1,0.1-0.1,0.1-0.1,0.2c0,0.1,0,0.2,0,0.2v2.3c0,0.2,0.1,0.4,0.2,0.6
			c0.1,0.2,0.3,0.2,0.6,0.2c0.2,0,0.4-0.1,0.5-0.2s0.2-0.3,0.2-0.5V52.5z"/>
		<path fill="#2E3135" d="M291.8,50.6v1.8c0,0.4,0.1,0.6,0.2,0.8c0.1,0.1,0.3,0.2,0.6,0.2c0.1,0,0.2,0,0.4,0c0.1,0,0.3-0.1,0.3-0.1
			v-2.7h1.4v6.3h-1.4v-2.5c-0.2,0.1-0.3,0.1-0.5,0.1c-0.2,0-0.4,0-0.5,0c-0.2,0-0.5,0-0.7-0.1c-0.2-0.1-0.4-0.2-0.5-0.3
			s-0.3-0.3-0.4-0.5c-0.1-0.2-0.1-0.5-0.1-0.8v-2.3H291.8z"/>
		<path fill="#2E3135" d="M299.1,56.9v-3.4h0l-1.8,3.4H296v-6.3h1.4v3.6h0l1.9-3.6h1.2v6.3H299.1z"/>
		<path fill="#2E3135" d="M305.8,55.4c-0.1,0.5-0.3,0.9-0.7,1.1c-0.4,0.3-0.8,0.4-1.4,0.4c-0.4,0-0.7-0.1-1-0.2
			c-0.3-0.1-0.5-0.3-0.7-0.5c-0.2-0.2-0.3-0.4-0.4-0.7s-0.1-0.5-0.1-0.8v-2.2c0-0.2,0-0.5,0.1-0.7c0.1-0.2,0.2-0.5,0.4-0.6
			c0.2-0.2,0.4-0.3,0.7-0.5c0.3-0.1,0.6-0.2,1-0.2c0.3,0,0.6,0,0.8,0.1s0.4,0.2,0.6,0.3c0.2,0.1,0.3,0.3,0.4,0.5
			c0.1,0.2,0.2,0.4,0.2,0.6l-1.3,0.4c0-0.1,0-0.1-0.1-0.2c0-0.1-0.1-0.2-0.1-0.2c-0.1-0.1-0.1-0.1-0.2-0.2c-0.1,0-0.2-0.1-0.3-0.1
			c-0.1,0-0.3,0-0.3,0.1s-0.2,0.1-0.2,0.2s-0.1,0.1-0.1,0.2c0,0.1,0,0.2,0,0.2v2.3c0,0.2,0.1,0.4,0.2,0.6c0.1,0.2,0.3,0.2,0.6,0.2
			c0.2,0,0.4-0.1,0.5-0.2c0.1-0.1,0.2-0.3,0.3-0.5L305.8,55.4z"/>
		<path fill="#2E3135" d="M309.1,51.8v5.1h-1.4v-5.1h-1.4v-1.2h4.2v1.2H309.1z"/>
		<path fill="#2E3135" d="M314.6,56.9v-3.4h0l-1.8,3.4h-1.3v-6.3h1.4v3.6h0l1.9-3.6h1.2v6.3H314.6z"/>
		<path fill="#2E3135" d="M319.5,51.8v5.1h-1.4v-5.1h-1.4v-1.2h4.2v1.2H319.5z"/>
		<path fill="#2E3135" d="M321.8,56.9v-6.3h3.8v1.2h-2.5v1.3h2.1v1.2h-2.1v1.3h2.5v1.2H321.8z"/>
		<path fill="#2E3135" d="M331,50.6v6.3h-1.4v-5h-1.1v1.9c0,0.5,0,0.9-0.1,1.2c0,0.4-0.1,0.7-0.3,1c-0.1,0.3-0.3,0.5-0.6,0.7
			c-0.3,0.2-0.6,0.3-1,0.4l-0.3-1c0.2-0.1,0.4-0.2,0.6-0.3c0.1-0.1,0.2-0.3,0.3-0.4s0.1-0.4,0.1-0.6c0-0.2,0-0.5,0-0.8v-3.2H331z"/>
		<path fill="#2E3135" d="M336.7,54.9c0,0.3,0,0.6-0.2,0.9c-0.1,0.2-0.2,0.5-0.4,0.6s-0.4,0.3-0.7,0.4c-0.3,0.1-0.5,0.1-0.8,0.1
			h-2.2v-6.3h1.4V53h0.8c0.3,0,0.6,0,0.9,0.1c0.3,0.1,0.5,0.2,0.6,0.4s0.3,0.4,0.4,0.6C336.6,54.3,336.7,54.6,336.7,54.9z
			 M335.3,54.9c0-0.3-0.1-0.5-0.2-0.6s-0.3-0.2-0.6-0.2h-0.8v1.5h0.8c0.3,0,0.4-0.1,0.6-0.2C335.2,55.3,335.3,55.1,335.3,54.9z"/>
	</g>
</g>
<g>
	<g>
		<path fill="#FFFFFF" d="M155.2,39.2c-0.2,1-0.6,1.8-1.4,2.4c-0.7,0.6-1.6,0.9-2.7,0.9c-0.7,0-1.4-0.1-1.9-0.4
			c-0.5-0.2-1-0.6-1.3-1c-0.3-0.4-0.6-0.9-0.7-1.4s-0.2-1.1-0.2-1.7v-4.6c0-0.5,0.1-1,0.2-1.5c0.1-0.5,0.4-0.9,0.7-1.3
			c0.3-0.4,0.8-0.7,1.3-1s1.2-0.4,1.9-0.4c0.6,0,1.1,0.1,1.6,0.3c0.5,0.2,0.9,0.4,1.2,0.7c0.3,0.3,0.6,0.6,0.8,1
			c0.2,0.4,0.4,0.8,0.4,1.2l-2.6,0.8c0-0.1-0.1-0.3-0.1-0.4c-0.1-0.2-0.1-0.3-0.3-0.5c-0.1-0.1-0.3-0.3-0.5-0.4
			c-0.2-0.1-0.4-0.1-0.7-0.1c-0.3,0-0.5,0-0.7,0.1c-0.2,0.1-0.3,0.2-0.4,0.4c-0.1,0.1-0.2,0.3-0.2,0.5c0,0.2-0.1,0.3-0.1,0.5v4.8
			c0,0.5,0.1,0.9,0.3,1.2s0.6,0.5,1.1,0.5c0.4,0,0.7-0.1,1-0.4c0.3-0.2,0.5-0.6,0.5-1L155.2,39.2z"/>
		<path fill="#FFFFFF" d="M164.9,38.3c0,0.6-0.1,1.2-0.3,1.7c-0.2,0.5-0.5,1-0.9,1.3c-0.4,0.4-0.8,0.6-1.3,0.8
			c-0.5,0.2-1.1,0.3-1.7,0.3c-0.7,0-1.4-0.1-1.9-0.4c-0.5-0.2-1-0.6-1.3-1c-0.3-0.4-0.6-0.9-0.7-1.4s-0.2-1.1-0.2-1.7v-4.6
			c0-0.5,0.1-1,0.2-1.5c0.1-0.5,0.4-0.9,0.7-1.3c0.3-0.4,0.8-0.7,1.3-1s1.2-0.4,1.9-0.4c0.7,0,1.3,0.1,1.8,0.4c0.5,0.2,1,0.6,1.3,1
			c0.3,0.4,0.6,0.8,0.8,1.3c0.2,0.5,0.3,1,0.3,1.5V38.3z M162.1,33.3c0-0.1,0-0.3-0.1-0.4c0-0.2-0.1-0.3-0.2-0.5
			c-0.1-0.1-0.3-0.3-0.4-0.4c-0.2-0.1-0.4-0.2-0.7-0.2s-0.5,0-0.7,0.1c-0.2,0.1-0.3,0.2-0.5,0.4c-0.1,0.1-0.2,0.3-0.3,0.5
			c-0.1,0.2-0.1,0.3-0.1,0.5v4.8c0,0.5,0.1,0.9,0.3,1.2s0.6,0.5,1.1,0.5c0.4,0,0.7-0.1,1-0.4c0.3-0.2,0.4-0.6,0.4-1V33.3z"/>
		<path fill="#FFFFFF" d="M173.4,42.4L171,38l-1.4-2.7l-0.1,0v7.1h-2.7v-13h2.4l2.1,3.9l1.7,3.1l0.1,0v-7h2.7v13H173.4z"/>
		<path fill="#FFFFFF" d="M185.9,39.2c-0.2,1-0.6,1.8-1.4,2.4c-0.7,0.6-1.6,0.9-2.7,0.9c-0.7,0-1.4-0.1-1.9-0.4
			c-0.5-0.2-1-0.6-1.3-1c-0.3-0.4-0.6-0.9-0.7-1.4c-0.2-0.5-0.2-1.1-0.2-1.7v-4.6c0-0.5,0.1-1,0.2-1.5c0.1-0.5,0.4-0.9,0.7-1.3
			c0.3-0.4,0.8-0.7,1.3-1s1.2-0.4,1.9-0.4c0.6,0,1.1,0.1,1.6,0.3c0.5,0.2,0.9,0.4,1.2,0.7c0.3,0.3,0.6,0.6,0.8,1s0.4,0.8,0.4,1.2
			l-2.6,0.8c0-0.1-0.1-0.3-0.1-0.4c-0.1-0.2-0.1-0.3-0.3-0.5c-0.1-0.1-0.3-0.3-0.5-0.4c-0.2-0.1-0.4-0.1-0.7-0.1
			c-0.3,0-0.5,0-0.7,0.1c-0.2,0.1-0.3,0.2-0.4,0.4c-0.1,0.1-0.2,0.3-0.2,0.5c0,0.2-0.1,0.3-0.1,0.5v4.8c0,0.5,0.1,0.9,0.3,1.2
			c0.2,0.3,0.6,0.5,1.1,0.5c0.4,0,0.7-0.1,1-0.4c0.3-0.2,0.5-0.6,0.5-1L185.9,39.2z"/>
		<path fill="#FFFFFF" d="M187.6,42.4v-13h7.6v2.5h-4.9v2.7h4.2V37h-4.2v2.8h4.9v2.6H187.6z"/>
		<path fill="#FFFFFF" d="M203.3,42.4l-2.4-4.3l-1.4-2.7l-0.1,0v7.1h-2.7v-13h2.4l2.1,3.9l1.7,3.1l0.1,0v-7h2.7v13H203.3z"/>
		<path fill="#FFFFFF" d="M212.3,31.8v10.5h-2.7V31.8h-2.8v-2.5h8.3v2.5H212.3z"/>
		<path fill="#FFFFFF" d="M222,42.4l-1.7-5.1h-1.1v5.1h-2.7v-13h4.3c0.5,0,1.1,0.1,1.6,0.2s0.9,0.4,1.3,0.7c0.4,0.3,0.7,0.7,0.9,1.2
			c0.2,0.5,0.3,1.1,0.3,1.7c0,0.8-0.2,1.6-0.5,2.1s-0.8,1.1-1.4,1.4l2.1,5.6H222z M222.1,33.2c0-0.5-0.1-0.9-0.4-1.1
			c-0.3-0.2-0.6-0.3-1.1-0.3h-1.5v2.9h1.5c0.4,0,0.8-0.1,1.1-0.3C222,34.2,222.1,33.8,222.1,33.2z"/>
		<path fill="#FFFFFF" d="M232.2,39.7h-3.1c-0.1,0.4-0.2,0.9-0.3,1.3c-0.1,0.4-0.2,0.9-0.4,1.3h-2.9l3.8-13h2.7l3.8,13h-2.9
			L232.2,39.7z M230.1,35.4l-0.4,1.9h1.9l-0.4-1.8l-0.5-2.6h-0.1L230.1,35.4z"/>
		<path fill="#FFFFFF" d="M240.9,31.8v10.5h-2.7V31.8h-2.8v-2.5h8.3v2.5H240.9z"/>
		<path fill="#FFFFFF" d="M245,42.4v-13h7.6v2.5h-4.9v2.7h4.2V37h-4.2v2.8h4.9v2.6H245z"/>
		<path fill="#FFFFFF" d="M258.5,29.4c0.9,0,1.6,0.2,2.2,0.5c0.6,0.3,1.1,0.9,1.4,1.6c0.2,0.4,0.3,1,0.3,1.6s0,1.4,0,2.1
			c0,1.1,0,2.1,0,2.9c0,0.8-0.1,1.5-0.3,2c-0.2,0.4-0.4,0.8-0.6,1.1c-0.3,0.3-0.6,0.5-0.9,0.7c-0.3,0.2-0.7,0.3-1.1,0.4
			c-0.4,0.1-0.8,0.1-1.2,0.1h-4.1v-13H258.5z M259.7,34.8c0-0.4,0-0.7-0.1-1.1c0-0.3-0.1-0.7-0.2-0.9c-0.1-0.3-0.3-0.5-0.5-0.6
			s-0.5-0.2-0.9-0.2h-1.1v8h1.1c0.7,0,1.1-0.2,1.4-0.5c0.2-0.3,0.3-0.8,0.3-1.4V34.8z"/>
		<path fill="#FFFFFF" d="M277.1,39.2c-0.2,1-0.6,1.8-1.4,2.4c-0.7,0.6-1.6,0.9-2.7,0.9c-0.7,0-1.4-0.1-1.9-0.4
			c-0.5-0.2-1-0.6-1.3-1c-0.3-0.4-0.6-0.9-0.7-1.4c-0.2-0.5-0.2-1.1-0.2-1.7v-4.6c0-0.5,0.1-1,0.2-1.5c0.1-0.5,0.4-0.9,0.7-1.3
			c0.3-0.4,0.8-0.7,1.3-1s1.2-0.4,1.9-0.4c0.6,0,1.1,0.1,1.6,0.3c0.5,0.2,0.9,0.4,1.2,0.7c0.3,0.3,0.6,0.6,0.8,1s0.4,0.8,0.4,1.2
			l-2.6,0.8c0-0.1-0.1-0.3-0.1-0.4c-0.1-0.2-0.1-0.3-0.3-0.5c-0.1-0.1-0.3-0.3-0.5-0.4c-0.2-0.1-0.4-0.1-0.7-0.1
			c-0.3,0-0.5,0-0.7,0.1c-0.2,0.1-0.3,0.2-0.4,0.4c-0.1,0.1-0.2,0.3-0.2,0.5c0,0.2-0.1,0.3-0.1,0.5v4.8c0,0.5,0.1,0.9,0.3,1.2
			c0.2,0.3,0.6,0.5,1.1,0.5c0.4,0,0.7-0.1,1-0.4c0.3-0.2,0.5-0.6,0.5-1L277.1,39.2z"/>
		<path fill="#FFFFFF" d="M278.7,42.4v-13h2.7v10.4h4.9v2.6H278.7z"/>
		<path fill="#FFFFFF" d="M287.7,42.4v-13h7.6v2.5h-4.9v2.7h4.2V37h-4.2v2.8h4.9v2.6H287.7z"/>
		<path fill="#FFFFFF" d="M302.4,39.7h-3.1c-0.1,0.4-0.2,0.9-0.3,1.3c-0.1,0.4-0.2,0.9-0.4,1.3h-2.9l3.8-13h2.7l3.8,13h-2.9
			L302.4,39.7z M300.3,35.4l-0.4,1.9h1.9l-0.4-1.8l-0.5-2.6h-0.1L300.3,35.4z"/>
		<path fill="#FFFFFF" d="M313.8,42.4l-2.4-4.3l-1.4-2.7l-0.1,0v7.1h-2.7v-13h2.4l2.1,3.9l1.7,3.1l0.1,0v-7h2.7v13H313.8z"/>
		<path fill="#FFFFFF" d="M318.4,42.4v-13h7.6v2.5h-4.9v2.7h4.2V37h-4.2v2.8h4.9v2.6H318.4z"/>
		<path fill="#FFFFFF" d="M333.1,42.4l-1.7-5.1h-1.1v5.1h-2.7v-13h4.3c0.5,0,1.1,0.1,1.6,0.2s0.9,0.4,1.3,0.7
			c0.4,0.3,0.7,0.7,0.9,1.2c0.2,0.5,0.3,1.1,0.3,1.7c0,0.8-0.2,1.6-0.5,2.1s-0.8,1.1-1.4,1.4l2.1,5.6H333.1z M333.3,33.2
			c0-0.5-0.1-0.9-0.4-1.1c-0.3-0.2-0.6-0.3-1.1-0.3h-1.5v2.9h1.5c0.4,0,0.8-0.1,1.1-0.3C333.1,34.2,333.3,33.8,333.3,33.2z"/>
	</g>
</g>
<g>
	<g>
		<g>
			<path fill="#0071BC" d="M30.5,85.2c-8.3,0-15.1-2.8-20.3-8.4c-5.1-5.5-7.6-12.8-7.6-21.7c0-8.5,2.6-15.6,7.7-21.3
				c5.2-5.8,12.1-8.7,20.7-8.7c6.8,0,12.7,2,17.4,5.9c4.8,4,7.4,9.1,7.9,15.3l0.3,3.2H39.7l-0.5-2.4c-0.4-2.1-1.3-3.7-2.8-4.9
				c-1.5-1.2-3.3-1.7-5.7-1.7c-2.4,0-4.4,0.6-6,2c-1.7,1.4-2.9,3.1-3.6,5.1c-0.8,2.2-1.1,4.7-1.1,7.4c0,4.6,1,8.3,3.1,10.9
				c1.9,2.4,4.3,3.6,7.6,3.6c3.6,0,7.8-1,8.8-9l0.3-2.6h17.2l-0.3,3.3c-0.6,7.2-3.2,13-7.7,17.3C44.3,83,38.1,85.2,30.5,85.2z"/>
			<path fill="#FFFFFF" d="M30.9,28.2c6.1,0,11.3,1.7,15.4,5.2c4.2,3.5,6.4,7.9,6.9,13.3H42.1c-0.6-2.8-1.9-5.1-3.9-6.6
				c-2-1.6-4.5-2.4-7.6-2.4c-3.1,0-5.8,0.9-7.9,2.6c-2.1,1.8-3.7,3.9-4.5,6.5c-0.9,2.6-1.3,5.4-1.3,8.4c0,5.3,1.2,9.5,3.7,12.7
				c2.5,3.2,5.8,4.7,9.9,4.7c6.9,0,10.8-3.9,11.8-11.6h11.2c-0.6,6.5-2.8,11.6-6.8,15.4c-4,3.8-9.4,5.7-16.3,5.7
				c-7.5,0-13.5-2.5-18.1-7.4c-4.6-4.9-6.8-11.5-6.8-19.7c0-7.7,2.3-14.1,6.9-19.3C17.1,30.8,23.2,28.2,30.9,28.2 M30.9,22.2
				c-9.4,0-17.1,3.3-22.9,9.7c-5.6,6.2-8.5,14.1-8.5,23.3c0,9.7,2.8,17.7,8.4,23.7c5.7,6.2,13.3,9.4,22.5,9.4
				c8.5,0,15.4-2.5,20.5-7.4c5-4.8,7.9-11.3,8.6-19.2l0.6-6.5h-6.6H42.3H37l-0.7,5.3c-0.7,5.9-3.1,6.3-5.9,6.3
				c-2.3,0-3.9-0.7-5.2-2.4c-1.6-2.1-2.4-5.1-2.4-9c0-2.4,0.3-4.5,1-6.5c0.5-1.5,1.4-2.7,2.7-3.8c0.7-0.6,1.8-1.3,4.1-1.3
				c1.7,0,2.9,0.4,3.9,1.1c0.5,0.4,1.3,1.2,1.7,3.1l1,4.8h4.9h11.1h6.5l-0.5-6.5c-0.6-7-3.6-12.8-9-17.4
				C44.9,24.4,38.4,22.2,30.9,22.2L30.9,22.2z"/>
		</g>
	</g>
</g>
<g>
	<g>
		<g>
			<path fill="#0071BC" d="M83.5,85.2c-8.3,0-15.1-2.8-20.3-8.4c-5.1-5.5-7.6-12.8-7.6-21.7c0-8.5,2.6-15.6,7.7-21.3
				c5.2-5.8,12.1-8.7,20.7-8.7c6.8,0,12.7,2,17.4,5.9c4.8,4,7.4,9.1,7.9,15.3l0.3,3.2H92.7l-0.5-2.4c-0.4-2.1-1.3-3.7-2.8-4.9
				c-1.5-1.2-3.3-1.7-5.7-1.7c-2.4,0-4.4,0.6-6,2c-1.7,1.4-2.9,3.1-3.6,5.1c-0.8,2.2-1.1,4.7-1.1,7.4c0,4.6,1,8.3,3.1,10.9
				c1.9,2.4,4.3,3.6,7.6,3.6c3.6,0,7.8-1,8.8-9l0.3-2.6h17.2l-0.3,3.3c-0.6,7.2-3.2,13-7.7,17.3C97.3,83,91.1,85.2,83.5,85.2z"/>
			<path fill="#FFFFFF" d="M83.9,28.2c6.1,0,11.3,1.7,15.4,5.2c4.2,3.5,6.4,7.9,6.9,13.3H95.1c-0.6-2.8-1.9-5.1-3.9-6.6
				c-2-1.6-4.5-2.4-7.6-2.4c-3.1,0-5.8,0.9-7.9,2.6c-2.1,1.8-3.7,3.9-4.5,6.5c-0.9,2.6-1.3,5.4-1.3,8.4c0,5.3,1.2,9.5,3.7,12.7
				c2.5,3.2,5.8,4.7,9.9,4.7c6.9,0,10.8-3.9,11.8-11.6h11.2c-0.6,6.5-2.8,11.6-6.8,15.4c-4,3.8-9.4,5.7-16.3,5.7
				c-7.5,0-13.5-2.5-18.1-7.4c-4.6-4.9-6.8-11.5-6.8-19.7c0-7.7,2.3-14.1,6.9-19.3C70.1,30.8,76.2,28.2,83.9,28.2 M83.9,22.2
				c-9.4,0-17.1,3.3-22.9,9.7c-5.6,6.2-8.5,14.1-8.5,23.3c0,9.7,2.8,17.7,8.4,23.7c5.7,6.2,13.3,9.4,22.5,9.4
				c8.5,0,15.4-2.5,20.5-7.4c5-4.8,7.9-11.3,8.6-19.2l0.6-6.5h-6.6H95.3H90l-0.7,5.3c-0.7,5.9-3.1,6.3-5.9,6.3
				c-2.3,0-3.9-0.7-5.2-2.4c-1.6-2.1-2.4-5.1-2.4-9c0-2.4,0.3-4.5,1-6.5c0.5-1.5,1.4-2.7,2.7-3.8c0.7-0.6,1.8-1.3,4.1-1.3
				c1.7,0,2.9,0.4,3.9,1.1c0.5,0.4,1.3,1.2,1.7,3.1l1,4.8h4.9h11.1h6.5l-0.5-6.5c-0.6-7-3.6-12.8-9-17.4
				C97.9,24.4,91.4,22.2,83.9,22.2L83.9,22.2z"/>
		</g>
	</g>
</g>
</svg>
