<?xml version="1.0" encoding="utf-8"?>
<!-- Generator: Adobe Illustrator 17.1.0, SVG Export Plug-In . SVG Version: 6.00 Build 0)  -->
<!DOCTYPE svg PUBLIC "-//W3C//DTD SVG 1.1//EN" "http://www.w3.org/Graphics/SVG/1.1/DTD/svg11.dtd">
<svg version="1.1" id="Layer_1" xmlns="http://www.w3.org/2000/svg" xmlns:xlink="http://www.w3.org/1999/xlink" x="0px" y="0px"
	 viewBox="0 0 213.4 112.2" enable-background="new 0 0 213.4 112.2" xml:space="preserve">
<g>
	<path fill-rule="evenodd" clip-rule="evenodd" fill="#007CCE" d="M90.6,93.1v18.3H87l-1.2-2.4c-0.4,0.5-0.9,1.1-1.8,1.6
		c-0.9,0.5-1.7,0.8-2.5,0.8H78c-1.1,0-2.2-0.4-3-1.1c-0.9-0.7-1.2-1.5-1.2-2.5V80.1c0-1.2,0.4-2.3,1.2-3.1c0.8-0.8,1.8-1.2,3-1.2
		h7.8c1.3,0,2.5,0.4,3.3,1.1c1,0.8,1.4,1.8,1.4,3v8.2h-7.1v-5.4c0-0.9-0.4-1.3-1.3-1.3c-0.8,0-1.2,0.4-1.2,1.3v21.5
		c0,0.4,0.1,0.7,0.4,1c0.3,0.3,0.5,0.3,0.9,0.3c0.9,0,1.3-0.3,1.3-1.3v-4.1c0-0.6-0.1-1-0.3-1.1c-0.3-0.2-0.6-0.3-1.1-0.3v-5.7H90.6
		z"/>
	<path fill-rule="evenodd" clip-rule="evenodd" fill="#007CCE" d="M102.9,98.5h-2.2l1.1-15.5L102.9,98.5z M97.2,75.8l-4.4,35.6h6.9
		l0.5-6.8h3.1l0.5,6.8h6.9l-4.4-35.6H97.2z"/>
	<polygon fill-rule="evenodd" clip-rule="evenodd" fill="#007CCE" points="125.8,75.8 125.8,81.5 119.2,105.6 125.8,105.6 
		125.8,111.4 112.1,111.4 112.1,106.9 119.1,81.5 112.7,81.5 112.7,75.8 	"/>
	<path fill-rule="evenodd" clip-rule="evenodd" fill="#007CCE" d="M135.9,81.3h1.3c0.3,0,0.5,0.1,0.8,0.3c0.3,0.3,0.4,0.6,0.4,1v9.6
		c0,0.3-0.1,0.5-0.3,0.8c-0.3,0.3-0.6,0.4-0.9,0.4h-1.3V81.3z M128.8,111.2h7.1v-12h5.6c1.1,0,2.1-0.4,2.9-1.2
		c0.8-0.8,1.1-1.8,1.1-2.9V79.3c0-1.1-0.4-1.9-1.1-2.6c-0.8-0.7-1.7-1.1-2.7-1.1h-13V111.2z"/>
	<path fill-rule="evenodd" clip-rule="evenodd" fill="#007CCE" d="M155.6,81.3h1.3c0.3,0,0.5,0.1,0.9,0.3c0.3,0.3,0.4,0.6,0.4,1v7.1
		c0,0.4-0.2,0.6-0.4,0.9c-0.3,0.3-0.5,0.4-0.9,0.4h-1.3V81.3z M155.6,111.2V97.6h1.3c0.3,0,0.5,0.1,0.9,0.4c0.3,0.3,0.4,0.6,0.4,1
		v12.3h7.1V98.1c0-1.1-0.3-2-0.7-2.8c-0.5-0.8-1.1-1.3-1.8-1.4c0.8-0.2,1.3-0.5,1.8-1.2c0.4-0.7,0.7-1.5,0.7-2.4V79.5
		c0-1.1-0.4-2-1.1-2.8c-0.7-0.7-1.5-1.1-2.5-1.1h-13.3v35.6H155.6z"/>
	<path fill-rule="evenodd" clip-rule="evenodd" fill="#007CCE" d="M175.9,82.6c0-0.9,0.4-1.3,1.3-1.3c0.8,0,1.2,0.4,1.2,1.3v21.5
		c0,0.9-0.4,1.3-1.2,1.3c-0.4,0-0.7-0.1-1-0.4c-0.3-0.3-0.4-0.6-0.4-1V82.6z M185.6,79.6c0-1.1-0.4-2.1-1.2-2.9
		c-0.8-0.8-1.8-1.1-3-1.1h-8.5c-1.1,0-2.1,0.4-2.9,1.1c-0.8,0.8-1.1,1.8-1.1,2.9v27.5c0,1.1,0.4,2.1,1.2,2.8
		c0.8,0.8,1.8,1.2,2.8,1.2h8.5c1.2,0,2.2-0.4,3-1.2s1.2-1.8,1.2-2.8V79.6z"/>
	<polygon fill-rule="evenodd" clip-rule="evenodd" fill="#007CCE" points="198.5,75.6 201.2,93.9 203.8,75.6 213.4,75.6 
		213.4,111.2 206.2,111.2 206.2,90.9 203.3,111.2 199.1,111.2 196.3,90.9 196.2,111.2 189,111.2 189,75.6 	"/>
	<path fill-rule="evenodd" clip-rule="evenodd" fill="#007CCE" d="M53.2,74.3L53.2,74.3C60.9,62.8,64.9,51,64.9,37.2
		c0-13.8-4.1-25.7-11.7-37.2c-6.8,10.8-11.1,22.1-11.5,34.7C41.3,48.8,45.3,62.6,53.2,74.3 M53.2,71.6L53.2,71.6
		c-2.1-4.3-3.2-8.9-3.2-13.5c0-4.6,1.1-9.4,3.2-13.4c2.1,4.2,3.3,8.7,3.3,13.4C56.5,63,55.3,67.2,53.2,71.6 M44.6,34.4
		c0.7-10.3,3.8-19.4,8.6-28.7v0.1c5.5,9.8,8.3,19.6,8.9,30.8c0.3,4.9-0.2,9.7-1.2,14.6c0.3-5,0-9.7-1-14.5
		c-1.1-6.8-3.5-12.8-6.7-18.9v-0.1c-2.8,5.5-4.9,11-6.2,16.9c-1.2,5.6-1.5,10.7-1.5,16.5C44.7,45.5,44.2,40,44.6,34.4"/>
	<path fill-rule="evenodd" clip-rule="evenodd" fill="#007CCE" d="M41.4,88c2.3-2.2,4.4-3.3,7.5-3.1c5.1,0.5,8.4,3.6,8.7,8.6
		c0.4,9.7-12.4,15.6-20.3,15.2C25.6,108,17.9,100.6,16,89.9c-1.1-6.5,1.3-13.6,5.9-18.6c4.6-4.8,10.7-6.7,17.1-6.8V35.3
		c-21.8,0-37.8,15.4-38.9,36.6c-1.2,23.5,15.9,39.5,37.6,40.3c11.6,0.4,20.3-3.9,28.2-11.4V75.7H41.4V88z"/>
</g>
</svg>
