<?xml version="1.0" encoding="utf-8"?>
<!-- Generator: Adobe Illustrator 22.0.1, SVG Export Plug-In . SVG Version: 6.00 Build 0)  -->
<svg version="1.1" id="Слой_1" xmlns="http://www.w3.org/2000/svg" xmlns:xlink="http://www.w3.org/1999/xlink" x="0px" y="0px"
	 viewBox="0 0 48 48" style="enable-background:new 0 0 48 48;" xml:space="preserve">
<style type="text/css">
	.st0{fill:#333333;}
</style>
<g>
	<g>
		<path class="st0" d="M9.6,9"/>
		<path class="st0" d="M35.2,14.7c0,1.8,1.5,3.3,3.3,3.3s3.3-1.5,3.3-3.3s-1.5-3.3-3.3-3.3S35.2,12.9,35.2,14.7L35.2,14.7z"/>
		<path class="st0" d="M41.9,19.1l-0.8-0.3c-0.3-0.1-0.6,0-0.9,0.2l-1.7,1.2L36.9,19c-0.3-0.2-0.6-0.2-0.9-0.2l-0.8,0.3
			c-1.3,0.4-2.2,1.7-2.2,3.1v5c0,0.2,0.1,0.4,0.2,0.5l1.7,2.5v6.7c0,0.5,0.4,1,1,1h5.6c0.5,0,1-0.4,1-1v-6.7l1.7-2.5
			c0.1-0.2,0.2-0.3,0.2-0.5v-5C44.1,20.8,43.2,19.5,41.9,19.1L41.9,19.1z"/>
		<path class="st0" d="M9.5,18c1.8,0,3.3-1.5,3.3-3.3s-1.5-3.3-3.3-3.3s-3.3,1.5-3.3,3.3S7.7,18,9.5,18L9.5,18z"/>
		<path class="st0" d="M12.9,19.1l-0.8-0.3c-0.3-0.1-0.6,0-0.9,0.2l-1.7,1.2L7.8,19c-0.3-0.2-0.6-0.2-0.9-0.2l-0.8,0.3
			c-1.3,0.4-2.2,1.7-2.2,3.1v5c0,0.2,0.1,0.4,0.2,0.5l1.7,2.5v6.7c0,0.5,0.4,1,1,1h5.6c0.5,0,1-0.4,1-1v-6.7l1.7-2.5
			c0.1-0.2,0.2-0.3,0.2-0.5v-5C15.1,20.8,14.2,19.5,12.9,19.1L12.9,19.1z"/>
		<path class="st0" d="M28.3,10c0-2.3-1.9-4.3-4.3-4.3s-4.3,1.9-4.3,4.3c0,2.3,1.9,4.3,4.3,4.3S28.3,12.4,28.3,10L28.3,10z"/>
		<path class="st0" d="M28.7,16.3L28.7,16.3L27.5,16c-0.2-0.1-0.4,0-0.5,0.2l-2.6,7c-0.1,0.4-0.7,0.4-0.9,0l-2.6-7
			C20.8,16,20.7,16,20.5,16l-1.3,0.4c-1.6,0.5-2.6,2-2.6,3.6v7.4c0,0.1,0,0.1,0.1,0.2l2.7,4.1V42c0,0.2,0.2,0.4,0.4,0.4h8.3
			c0.2,0,0.4-0.2,0.4-0.4V31.6l2.7-4.1c0-0.1,0.1-0.1,0.1-0.2v-7.4C31.3,18.3,30.2,16.8,28.7,16.3L28.7,16.3z"/>
		<path class="st0" d="M25,16.2c-0.1-0.1-0.3-0.2-0.4-0.2h-1.2c-0.2,0-0.3,0.1-0.4,0.2c-0.2,0.2-0.2,0.4-0.1,0.6l0.6,0.9l-0.3,2.5
			l0.6,1.5c0.1,0.2,0.3,0.2,0.3,0l0.6-1.5l-0.3-2.5l0.6-0.9C25.2,16.6,25.2,16.4,25,16.2L25,16.2z"/>
	</g>
</g>
</svg>
