<?xml version="1.0" encoding="utf-8"?>
<!-- Generator: Adobe Illustrator 17.1.0, SVG Export Plug-In . SVG Version: 6.00 Build 0)  -->
<!DOCTYPE svg PUBLIC "-//W3C//DTD SVG 1.1//EN" "http://www.w3.org/Graphics/SVG/1.1/DTD/svg11.dtd">
<svg version="1.1" id="Layer_1" xmlns="http://www.w3.org/2000/svg" xmlns:xlink="http://www.w3.org/1999/xlink" x="0px" y="0px"
	 viewBox="0 0 75.9 32.6" enable-background="new 0 0 75.9 32.6" xml:space="preserve">
<path d="M30.1,0C13.6-0.2,0.1,7.4,0,17c0,3.9,2.1,7.5,5.7,10.5C3.9,24.8,3,21.8,3,18.9C3.1,9.2,16.4,1.5,32.7,1.7
	c8.9,0.1,16.8,2.6,22.2,6.3C49.6,3.3,40.5,0.1,30.1,0z"/>
<path d="M28.1,24.3c-0.5,0-1.5,0.4-3.1,1.1c-1.6,0.7-3,1.1-4.2,1.1c-1.5,0-2.8-0.3-3.8-0.8c-1.3-0.7-1.9-1.6-1.9-2.9H28
	c1.2,0,2.1-0.2,2.6-0.6c0.6-0.4,0.8-1.2,0.8-2.3c0-3.1-1.1-5.7-3.3-8c-2.2-2.2-4.9-3.3-8.2-3.3c-3.5,0-6.5,1.2-8.9,3.5
	c-2.4,2.4-3.6,5.2-3.6,8.5c0,3.5,1.1,6.4,3.4,8.6c2.3,2.3,5.3,3.4,9,3.4c2.3,0,4.6-0.4,6.8-1.1c2.9-1,4.4-2.4,4.4-4.2
	c0-0.8-0.3-1.5-0.9-2C29.7,24.6,29,24.3,28.1,24.3z M16.6,15.4c1-0.8,2-1.2,3.1-1.2c1.1,0,2.1,0.4,3.1,1.2c1,0.8,1.5,1.7,1.5,2.7
	h-9.2C15.2,17.1,15.6,16.2,16.6,15.4z"/>
<path fill="#FEDA00" d="M72.6,12c-2.3-2.4-5.2-3.6-8.8-3.6c-3.6,0-6.5,1.2-8.7,3.6c-2.2,2.3-3.2,5.1-3.2,8.5c0,3.4,1.1,6.2,3.2,8.5
	c2.2,2.4,5.2,3.6,8.7,3.6c3.6,0,6.5-1.2,8.8-3.6c2.2-2.3,3.2-5.1,3.2-8.5C75.9,17.1,74.8,14.3,72.6,12z M67.5,24.4
	c-0.9,1.2-2.1,1.8-3.7,1.8c-1.6,0-2.8-0.6-3.7-1.8C59.4,23.3,59,22,59,20.5c0-1.5,0.4-2.8,1.2-3.8c0.9-1.2,2.1-1.8,3.7-1.8
	c1.6,0,2.8,0.6,3.7,1.8c0.8,1,1.2,2.3,1.2,3.8C68.7,22,68.3,23.3,67.5,24.4z"/>
<path fill="#FEDA00" d="M51.7,25.9c-0.6-0.6-1.3-0.9-2-0.9c-0.5,0-1.4,0.2-2.6,0.6c-1.2,0.4-2.2,0.6-2.9,0.6c-1.6,0-2.8-0.6-3.7-1.8
	c-0.8-1-1.2-2.3-1.2-3.8c0-1.6,0.4-2.9,1.3-3.9c0.9-1.1,2.3-1.7,4-1.7c0.6,0,1.5,0.2,2.6,0.5c1.1,0.4,1.9,0.5,2.5,0.5
	c0.8,0,1.5-0.3,2.1-0.9c0.6-0.6,0.8-1.3,0.8-2.2c0-1.6-1-2.8-3.1-3.6c-1.5-0.6-3.3-0.8-5.3-0.8c-3.6,0-6.5,1.2-8.7,3.5
	c-2.2,2.3-3.3,5.2-3.3,8.5s1.1,6.2,3.2,8.5c2.2,2.4,5.2,3.6,8.7,3.6c1.9,0,3.6-0.3,5.3-1.1c2.1-0.9,3.1-2.1,3.1-3.6
	C52.5,27.2,52.2,26.5,51.7,25.9z"/>
</svg>
