<?xml version="1.0" encoding="utf-8"?>
<!-- Generator: Adobe Illustrator 17.1.0, SVG Export Plug-In . SVG Version: 6.00 Build 0)  -->
<!DOCTYPE svg PUBLIC "-//W3C//DTD SVG 1.1//EN" "http://www.w3.org/Graphics/SVG/1.1/DTD/svg11.dtd">
<svg version="1.1" id="Layer_1" xmlns="http://www.w3.org/2000/svg" xmlns:xlink="http://www.w3.org/1999/xlink" x="0px" y="0px"
	 viewBox="0 0 36 36" enable-background="new 0 0 36 36" xml:space="preserve">
<g>
	<g>
		<path fill="#FEDA00" d="M18,36C8.1,36,0,27.9,0,18S8.1,0,18,0s18,8.1,18,18S27.9,36,18,36L18,36z M18,4.6c-7.4,0-13.4,6-13.4,13.4
			s6,13.4,13.4,13.4s13.4-6,13.4-13.4S25.4,4.6,18,4.6L18,4.6z M18,4.6"/>
		<path fill="#FEDA00" d="M19.9,11.7c0,1.2-1,2.1-2.1,2.1c-1.2,0-2.1-1-2.1-2.1c0-1.2,1-2.1,2.1-2.1C18.9,9.6,19.9,10.5,19.9,11.7
			L19.9,11.7z M19.9,11.7"/>
		<path fill="#FEDA00" d="M20.9,26.4h-5.9v-2.9h1.1v-4.9h-1.1v-2.9h4.8v7.7h1.1V26.4z M20.9,26.4"/>
	</g>
</g>
</svg>
