<?xml version="1.0" encoding="utf-8"?>
<!-- Generator: Adobe Illustrator 22.0.1, SVG Export Plug-In . SVG Version: 6.00 Build 0)  -->
<svg version="1.1" id="Слой_1" xmlns="http://www.w3.org/2000/svg" xmlns:xlink="http://www.w3.org/1999/xlink" x="0px" y="0px"
	 viewBox="0 0 48 48" style="enable-background:new 0 0 48 48;" xml:space="preserve">
<style type="text/css">
	.st0{fill:#333333;}
</style>
<g>
	<g>
		<path class="st0" d="M36.2,43.2l-7.5-15v-9.5c0.7-0.1,1.2-0.7,1.2-1.4c0-0.8-0.6-1.4-1.4-1.4h-9.2c-0.8,0-1.4,0.6-1.4,1.4
			c0,0.7,0.5,1.3,1.2,1.4v9.5l-7.5,15c-0.2,0.4-0.2,0.8,0.1,1.2c0.2,0.4,0.6,0.6,1,0.6H35c0.4,0,0.8-0.2,1-0.6
			C36.4,44.1,36.4,43.6,36.2,43.2L36.2,43.2z M19.4,33.3l2.2-4.5v-10h4.7v1.4h-1.9c-0.5,0-0.9,0.4-0.9,0.9s0.4,0.9,0.9,0.9h1.9v3
			h-1.9c-0.5,0-0.9,0.4-0.9,0.9s0.4,0.9,0.9,0.9h1.9v2l2.2,4.5C28.5,33.3,19.4,33.3,19.4,33.3z"/>
	</g>
	<path class="st0" d="M26.3,6.1c0.9,0,1.6-0.7,1.6-1.6s-0.7-1.6-1.6-1.6s-1.6,0.7-1.6,1.6C24.8,5.4,25.5,6.1,26.3,6.1L26.3,6.1z"/>
	<path class="st0" d="M26,9.2c-1.2,0-2.2,1-2.2,2.2s1,2.2,2.2,2.2s2.2-1,2.2-2.2S27.2,9.2,26,9.2L26,9.2z"/>
	<path class="st0" d="M21.8,12.6c0.6,0,1.2-0.2,1.7-0.6c-0.1-0.2-0.1-0.4-0.1-0.7c0-0.9,0.5-1.7,1.1-2.2C24.2,8,23.1,7,21.8,7
		C20.3,7,19,8.3,19,9.8C19,11.4,20.3,12.6,21.8,12.6L21.8,12.6z"/>
</g>
</svg>
