<?xml version="1.0" encoding="utf-8"?>
<!-- Generator: Adobe Illustrator 22.0.1, SVG Export Plug-In . SVG Version: 6.00 Build 0)  -->
<svg version="1.1" id="Слой_1" xmlns="http://www.w3.org/2000/svg" xmlns:xlink="http://www.w3.org/1999/xlink" x="0px" y="0px"
	 viewBox="0 0 48 48" style="enable-background:new 0 0 48 48;" xml:space="preserve">
<style type="text/css">
	.st0{fill:#313131;}
</style>
<g>
	<path class="st0" d="M6.6,14.4c0.1-0.3,0.2-0.6,0.3-0.8c3.5,3.5,7,6.9,10.5,10.4c-3.5,3.5-7,6.9-10.5,10.4
		c-0.1-0.2-0.2-0.5-0.3-0.8C6.6,27.2,6.6,20.8,6.6,14.4z"/>
	<path class="st0" d="M8.4,12c0.5-0.1,0.9-0.2,1.4-0.2c2.8,0,5.5,0,8.3,0c6.7,0,13.3,0,20,0c0.5,0,0.9,0.1,1.4,0.2
		c0,0.1,0.1,0.1,0.1,0.2c-0.1,0.1-0.2,0.1-0.3,0.2c-4.8,4.8-9.6,9.6-14.4,14.4c-0.6,0.6-1.3,0.6-1.9,0c-4.8-4.8-9.6-9.6-14.4-14.4
		c-0.1-0.1-0.2-0.2-0.2-0.2C8.4,12.1,8.4,12,8.4,12z"/>
	<path class="st0" d="M8.4,35.9c3.5-3.5,7-6.9,10.5-10.4c0,0,0.1,0.1,0.2,0.2c0.8,0.8,1.7,1.7,2.5,2.5c1.4,1.4,3.4,1.4,4.8,0
		c0.9-0.9,1.8-1.8,2.7-2.7c3.5,3.5,7,6.9,10.5,10.4V36c-0.5,0.1-0.9,0.2-1.4,0.2c-2.7,0-5.5,0-8.2,0c-6.7,0-13.4,0-20.1,0
		C9.4,36.2,8.9,36.2,8.4,35.9z"/>
	<path class="st0" d="M41.1,13.5c0.1,0.4,0.2,0.8,0.2,1.3c0,6.1,0,12.2,0,18.4c0,0.4-0.1,0.9-0.2,1.3c-3.5-3.5-7-7-10.5-10.5
		C34.1,20.5,37.6,17.1,41.1,13.5z"/>
</g>
</svg>
