<?xml version="1.0" encoding="utf-8"?>
<!-- Generator: Adobe Illustrator 17.1.0, SVG Export Plug-In . SVG Version: 6.00 Build 0)  -->
<!DOCTYPE svg PUBLIC "-//W3C//DTD SVG 1.1//EN" "http://www.w3.org/Graphics/SVG/1.1/DTD/svg11.dtd">
<svg version="1.1" id="Layer_1" xmlns="http://www.w3.org/2000/svg" xmlns:xlink="http://www.w3.org/1999/xlink" x="0px" y="0px"
	 viewBox="0 0 30 30" enable-background="new 0 0 30 30" xml:space="preserve">
<g>
	<g>
		<path fill="#FEDA00" d="M20.9,16.4c0.6,0.6,1.2,1.1,1.8,1.8c0.2,0.3,0.5,0.6,0.6,0.9c0.2,0.5,0,1-0.4,1h-2.6
			c-0.7,0.1-1.2-0.2-1.7-0.7c-0.4-0.4-0.7-0.8-1.1-1.2c-0.1-0.2-0.3-0.3-0.5-0.4c-0.4-0.2-0.7-0.2-0.9,0.2c-0.2,0.4-0.3,0.8-0.3,1.2
			c0,0.6-0.2,0.8-0.8,0.8c-1.3,0.1-2.6-0.1-3.8-0.8c-1-0.6-1.8-1.4-2.5-2.4c-1.4-1.8-2.4-3.9-3.3-6c-0.2-0.5-0.1-0.7,0.5-0.7
			c0.9,0,1.7,0,2.6,0c0.3,0,0.6,0.2,0.7,0.5c0.5,1.1,1,2.2,1.7,3.2c0.2,0.3,0.4,0.5,0.7,0.7s0.5,0.1,0.7-0.2
			c0.1-0.2,0.1-0.4,0.2-0.7c0.1-0.8,0.1-1.6,0-2.4c-0.1-0.5-0.4-0.8-0.8-0.9c-0.3,0-0.2-0.1-0.1-0.3c0.2-0.2,0.4-0.4,0.8-0.4h3
			c0.5,0.1,0.6,0.3,0.6,0.8v3.3c0,0.2,0.1,0.7,0.4,0.8c0.3,0.1,0.4-0.1,0.6-0.3c0.7-0.8,1.2-1.7,1.7-2.6c0.2-0.4,0.4-0.8,0.5-1.3
			c0.1-0.3,0.3-0.5,0.7-0.5h2.9c0.1,0,0.2,0,0.3,0c0.5,0.1,0.6,0.3,0.5,0.8c-0.2,0.7-0.7,1.4-1.1,2c-0.5,0.7-1,1.3-1.5,2
			C20.4,15.6,20.4,15.9,20.9,16.4L20.9,16.4z"/>
	</g>
</g>
</svg>
